<svg width="221" height="221" viewBox="0 0 221 221" fill="none" xmlns="http://www.w3.org/2000/svg">
<path d="M203.405 119.153L213.741 121.002L213.541 122.118L212.347 121.904L212.322 122.041C212.438 122.149 212.583 122.297 212.758 122.483C212.937 122.673 213.08 122.924 213.189 123.237C213.301 123.553 213.313 123.956 213.226 124.445C213.112 125.078 212.854 125.608 212.452 126.034C212.049 126.46 211.533 126.757 210.904 126.924C210.274 127.091 209.565 127.104 208.775 126.962C207.979 126.82 207.314 126.561 206.778 126.186C206.246 125.811 205.863 125.355 205.629 124.819C205.398 124.282 205.339 123.701 205.451 123.075C205.537 122.592 205.686 122.22 205.898 121.958C206.113 121.697 206.337 121.506 206.571 121.386C206.808 121.267 207.002 121.177 207.154 121.117L207.172 121.019L203.198 120.308L203.405 119.153ZM209.779 121.465C209.211 121.364 208.696 121.357 208.232 121.446C207.771 121.535 207.39 121.718 207.088 121.994C206.79 122.271 206.599 122.64 206.516 123.104C206.43 123.587 206.485 124.012 206.682 124.381C206.881 124.753 207.183 125.06 207.588 125.3C207.995 125.545 208.467 125.715 209.002 125.811C209.53 125.905 210.021 125.909 210.474 125.822C210.93 125.738 211.312 125.556 211.618 125.274C211.927 124.996 212.125 124.612 212.213 124.123C212.297 123.653 212.248 123.237 212.067 122.874C211.89 122.513 211.603 122.212 211.208 121.973C210.817 121.735 210.34 121.565 209.779 121.465Z" fill="white"/>
<path d="M204.18 130.547C204.358 129.881 204.672 129.339 205.123 128.92C205.574 128.506 206.122 128.233 206.767 128.104C207.411 127.977 208.114 128.016 208.877 128.219C209.645 128.424 210.279 128.743 210.778 129.174C211.276 129.609 211.616 130.118 211.8 130.703C211.983 131.29 211.985 131.917 211.808 132.583C211.63 133.249 211.316 133.789 210.865 134.204C210.414 134.622 209.865 134.894 209.217 135.02C208.569 135.149 207.86 135.111 207.092 134.905C206.33 134.702 205.701 134.383 205.206 133.949C204.711 133.519 204.372 133.01 204.189 132.422C204.005 131.838 204.002 131.213 204.18 130.547ZM205.198 130.819C205.063 131.325 205.082 131.775 205.254 132.171C205.426 132.567 205.703 132.9 206.083 133.17C206.464 133.439 206.901 133.64 207.394 133.772C207.888 133.903 208.368 133.948 208.836 133.904C209.304 133.861 209.712 133.711 210.062 133.455C210.412 133.198 210.654 132.817 210.789 132.311C210.924 131.805 210.904 131.354 210.729 130.957C210.553 130.56 210.274 130.227 209.89 129.956C209.506 129.685 209.067 129.484 208.574 129.353C208.081 129.221 207.602 129.177 207.137 129.221C206.673 129.265 206.267 129.416 205.921 129.674C205.574 129.931 205.333 130.313 205.198 130.819Z" fill="white"/>
<path d="M203.327 135.298L210.545 137.792L210.162 138.901L207.023 137.816L206.769 138.549L209.012 142.228L208.519 143.656L206.048 139.541L201.288 141.2L201.781 139.772L205.645 138.455L205.989 137.459L202.944 136.407L203.327 135.298Z" fill="white"/>
<path d="M200.897 142.45L208.016 145.213L207.591 146.307L200.472 143.544L200.897 142.45ZM208.987 146.23C209.069 146.017 209.213 145.861 209.418 145.763C209.622 145.668 209.826 145.66 210.03 145.739C210.234 145.818 210.379 145.962 210.466 146.169C210.551 146.38 210.552 146.592 210.47 146.806C210.387 147.019 210.244 147.173 210.04 147.268C209.834 147.366 209.63 147.376 209.426 147.296C209.222 147.217 209.077 147.072 208.992 146.861C208.906 146.654 208.904 146.443 208.987 146.23Z" fill="white"/>
<path d="M200.013 145.411L206.906 148.697L205.562 151.515C205.209 152.257 204.76 152.766 204.217 153.043C203.674 153.32 203.127 153.328 202.576 153.065C202.157 152.866 201.892 152.587 201.78 152.229C201.671 151.872 201.669 151.48 201.773 151.052C201.616 151.29 201.409 151.494 201.151 151.665C200.892 151.838 200.599 151.945 200.272 151.983C199.948 152.024 199.605 151.957 199.243 151.785C198.89 151.617 198.617 151.376 198.425 151.064C198.232 150.752 198.135 150.39 198.133 149.978C198.131 149.566 198.241 149.126 198.464 148.66L200.013 145.411ZM200.503 146.878L199.433 149.122C199.259 149.487 199.21 149.814 199.285 150.103C199.36 150.392 199.547 150.608 199.846 150.751C200.202 150.92 200.531 150.951 200.833 150.841C201.138 150.733 201.377 150.497 201.551 150.132L202.621 147.888L200.503 146.878ZM203.537 148.324L202.672 150.137C202.537 150.421 202.459 150.684 202.44 150.924C202.424 151.166 202.464 151.376 202.559 151.554C202.656 151.736 202.806 151.875 203.009 151.972C203.299 152.11 203.585 152.098 203.865 151.934C204.148 151.771 204.39 151.478 204.593 151.053L205.457 149.24L203.537 148.324Z" fill="white"/>
<path d="M194.364 153.028L197.139 154.78L196.799 155.318C196.854 155.536 196.931 155.743 197.03 155.94C197.13 156.136 197.267 156.338 197.441 156.546C197.617 156.758 197.847 156.99 198.132 157.24C198.419 157.492 198.776 157.78 199.203 158.104L201.621 159.936L199.031 164.04L193.499 160.548L192.872 161.54L190.098 159.789L190.724 158.797L192.574 159.964L195.588 155.188L193.738 154.02L194.364 153.028ZM196.088 156.444L194.125 159.556L198.733 162.464L200.112 160.278L198.587 159.08C197.956 158.583 197.421 158.124 196.982 157.702C196.543 157.28 196.245 156.861 196.088 156.444Z" fill="white"/>
<path d="M189.863 164.077C190.277 163.526 190.771 163.14 191.346 162.921C191.919 162.704 192.528 162.656 193.175 162.777C193.82 162.9 194.458 163.198 195.089 163.671C195.726 164.149 196.195 164.681 196.496 165.267C196.796 165.857 196.922 166.456 196.874 167.067C196.825 167.68 196.593 168.262 196.179 168.814C195.766 169.366 195.272 169.75 194.7 169.966C194.125 170.186 193.514 170.233 192.866 170.108C192.217 169.985 191.574 169.685 190.937 169.208C190.306 168.734 189.842 168.204 189.545 167.617C189.246 167.032 189.122 166.433 189.171 165.82C189.219 165.21 189.45 164.629 189.863 164.077ZM190.706 164.709C190.392 165.128 190.241 165.554 190.253 165.985C190.265 166.417 190.397 166.829 190.65 167.221C190.902 167.614 191.233 167.963 191.641 168.269C192.05 168.575 192.479 168.796 192.929 168.93C193.379 169.065 193.814 169.079 194.234 168.971C194.655 168.864 195.022 168.601 195.336 168.182C195.65 167.763 195.8 167.336 195.785 166.903C195.771 166.469 195.636 166.055 195.381 165.661C195.126 165.267 194.794 164.916 194.385 164.61C193.977 164.304 193.549 164.084 193.102 163.952C192.654 163.819 192.222 163.808 191.804 163.917C191.387 164.026 191.021 164.291 190.706 164.709Z" fill="white"/>
<path d="M185.069 170.489C185.539 169.949 186.071 169.595 186.666 169.427C187.26 169.259 187.873 169.265 188.503 169.444C189.133 169.624 189.736 169.964 190.311 170.465C190.896 170.974 191.318 171.531 191.579 172.135C191.839 172.745 191.927 173.353 191.842 173.96C191.758 174.572 191.489 175.138 191.037 175.658C190.684 176.063 190.291 176.363 189.858 176.557C189.425 176.751 188.984 176.835 188.533 176.807C188.082 176.78 187.655 176.634 187.252 176.371L188.022 175.486C188.344 175.647 188.707 175.699 189.112 175.643C189.517 175.592 189.889 175.371 190.229 174.981C190.529 174.636 190.702 174.255 190.749 173.838C190.795 173.426 190.719 173.006 190.521 172.579C190.322 172.155 190.005 171.754 189.57 171.376C189.126 170.988 188.677 170.721 188.225 170.574C187.771 170.429 187.341 170.406 186.934 170.504C186.525 170.605 186.169 170.831 185.864 171.181C185.664 171.411 185.522 171.654 185.439 171.912C185.356 172.169 185.332 172.428 185.369 172.688C185.406 172.949 185.505 173.198 185.668 173.436L184.897 174.321C184.601 173.975 184.402 173.584 184.302 173.15C184.201 172.72 184.212 172.274 184.333 171.812C184.454 171.355 184.699 170.914 185.069 170.489Z" fill="white"/>
<path d="M182.796 173.704L188.176 179.123L185.96 181.323C185.377 181.902 184.783 182.23 184.178 182.308C183.573 182.385 183.056 182.208 182.626 181.775C182.299 181.446 182.143 181.093 182.159 180.719C182.176 180.346 182.307 179.976 182.549 179.609C182.321 179.779 182.057 179.901 181.757 179.975C181.454 180.052 181.143 180.053 180.822 179.979C180.503 179.907 180.203 179.729 179.92 179.445C179.645 179.167 179.469 178.849 179.393 178.49C179.317 178.131 179.348 177.758 179.485 177.369C179.622 176.981 179.874 176.604 180.241 176.24L182.796 173.704ZM182.762 175.251L180.998 177.002C180.711 177.287 180.554 177.578 180.527 177.876C180.5 178.173 180.604 178.44 180.837 178.675C181.115 178.955 181.415 179.094 181.736 179.093C182.059 179.094 182.364 178.952 182.651 178.667L184.415 176.916L182.762 175.251ZM185.13 177.636L183.704 179.051C183.481 179.273 183.32 179.494 183.22 179.713C183.124 179.936 183.09 180.147 183.12 180.346C183.149 180.55 183.244 180.732 183.403 180.892C183.629 181.12 183.902 181.204 184.221 181.144C184.542 181.087 184.87 180.892 185.204 180.561L186.629 179.146L185.13 177.636Z" fill="white"/>
<path d="M177.498 179.017L182.678 184.628L181.816 185.424L176.636 179.813L177.498 179.017ZM183.103 185.968C183.271 185.813 183.468 185.736 183.696 185.738C183.921 185.743 184.108 185.825 184.256 185.986C184.404 186.147 184.472 186.339 184.458 186.564C184.442 186.791 184.35 186.982 184.182 187.137C184.014 187.292 183.817 187.368 183.592 187.363C183.365 187.361 183.177 187.28 183.028 187.119C182.88 186.958 182.814 186.765 182.83 186.538C182.844 186.313 182.935 186.123 183.103 185.968Z" fill="white"/>
<path d="M174.884 178.965L176.91 181.547L176.409 181.939C176.387 182.163 176.39 182.384 176.418 182.603C176.446 182.821 176.507 183.057 176.601 183.312C176.695 183.571 176.834 183.866 177.019 184.198C177.205 184.532 177.445 184.923 177.738 185.371L179.4 187.909L175.583 190.905L171.544 185.758L170.621 186.482L168.595 183.901L169.518 183.176L170.869 184.897L175.312 181.411L173.961 179.69L174.884 178.965ZM175.361 182.762L172.467 185.033L175.831 189.32L177.865 187.724L176.83 186.084C176.402 185.404 176.052 184.792 175.781 184.247C175.509 183.702 175.369 183.207 175.361 182.762Z" fill="white"/>
<path d="M167.208 184.366C167.373 184.255 167.529 184.17 167.677 184.11C167.823 184.048 167.929 184.013 167.995 184.004L168.325 185.029C168.048 185.127 167.824 185.246 167.654 185.384C167.483 185.523 167.377 185.712 167.335 185.953C167.288 186.192 167.314 186.512 167.412 186.913L167.564 187.53L174.192 192.322L173.136 193.033L167.99 189.161L167.924 189.206L169.572 195.431L168.516 196.142L166.321 187.072C166.221 186.664 166.189 186.292 166.223 185.957C166.256 185.62 166.355 185.319 166.522 185.056C166.685 184.794 166.914 184.564 167.208 184.366Z" fill="white"/>
<path d="M158.816 190.137C158.992 190.045 159.157 189.977 159.31 189.934C159.462 189.889 159.571 189.865 159.638 189.864L159.853 190.919C159.567 190.986 159.331 191.079 159.146 191.198C158.962 191.317 158.835 191.494 158.767 191.728C158.694 191.96 158.684 192.282 158.738 192.691L158.821 193.321L164.881 198.814L163.753 199.404L159.065 194.989L158.994 195.026L159.947 201.395L158.819 201.985L157.636 192.729C157.582 192.312 157.591 191.939 157.662 191.61C157.731 191.278 157.863 190.99 158.058 190.747C158.249 190.505 158.502 190.301 158.816 190.137Z" fill="white"/>
<path d="M148.637 198.318C149.304 198.056 149.939 197.989 150.544 198.114C151.149 198.24 151.689 198.528 152.165 198.979C152.641 199.43 153.018 200.01 153.297 200.719C153.58 201.441 153.697 202.13 153.649 202.787C153.598 203.448 153.395 204.028 153.039 204.527C152.681 205.03 152.182 205.408 151.54 205.66C151.04 205.856 150.553 205.94 150.08 205.913C149.606 205.885 149.176 205.755 148.789 205.522C148.402 205.289 148.09 204.963 147.854 204.543L148.947 204.114C149.157 204.405 149.455 204.62 149.84 204.757C150.223 204.899 150.655 204.875 151.136 204.686C151.562 204.519 151.892 204.261 152.126 203.913C152.357 203.57 152.484 203.162 152.506 202.691C152.525 202.224 152.43 201.722 152.219 201.185C152.004 200.636 151.73 200.191 151.397 199.852C151.061 199.514 150.69 199.294 150.284 199.194C149.875 199.094 149.454 199.13 149.022 199.299C148.739 199.41 148.5 199.561 148.308 199.75C148.115 199.94 147.975 200.159 147.887 200.407C147.799 200.655 147.772 200.922 147.806 201.208L146.714 201.636C146.611 201.193 146.615 200.755 146.727 200.323C146.837 199.895 147.052 199.504 147.373 199.151C147.691 198.801 148.113 198.524 148.637 198.318Z" fill="white"/>
<path d="M141.771 198.531L145.302 210.821L144.175 211.145L140.644 198.855L141.771 198.531ZM142.447 200.882C142.944 200.739 143.422 200.698 143.881 200.759C144.34 200.824 144.765 200.98 145.153 201.227C145.542 201.477 145.883 201.812 146.176 202.231C146.469 202.65 146.697 203.144 146.86 203.711C147.024 204.284 147.094 204.826 147.068 205.337C147.044 205.851 146.933 206.317 146.736 206.736C146.539 207.155 146.262 207.512 145.906 207.807C145.55 208.106 145.124 208.327 144.627 208.47L144.283 208.568L142.103 200.981L142.447 200.882ZM142.738 201.895L142.547 201.95L144.145 207.512L144.336 207.457C144.712 207.349 145.016 207.178 145.25 206.946C145.484 206.716 145.654 206.445 145.76 206.132C145.865 205.822 145.913 205.488 145.906 205.128C145.896 204.768 145.838 204.404 145.732 204.035C145.591 203.544 145.382 203.111 145.105 202.735C144.828 202.36 144.49 202.089 144.091 201.925C143.692 201.76 143.241 201.75 142.738 201.895ZM141.319 201.206L141.663 201.107L143.843 208.695L143.499 208.794C143.002 208.936 142.524 208.976 142.064 208.911C141.605 208.85 141.181 208.694 140.792 208.444C140.403 208.194 140.061 207.857 139.767 207.435C139.474 207.015 139.245 206.519 139.081 205.946C138.918 205.379 138.849 204.84 138.875 204.329C138.9 203.818 139.012 203.353 139.209 202.935C139.407 202.519 139.683 202.162 140.039 201.863C140.395 201.568 140.822 201.349 141.319 201.206ZM141.61 202.219C141.231 202.328 140.926 202.495 140.694 202.72C140.46 202.949 140.29 203.219 140.186 203.528C140.08 203.841 140.031 204.176 140.04 204.532C140.047 204.892 140.103 205.255 140.208 205.622C140.349 206.112 140.559 206.547 140.837 206.926C141.114 207.305 141.453 207.578 141.853 207.746C142.253 207.914 142.705 207.925 143.208 207.781L143.399 207.726L141.801 202.164L141.61 202.219Z" fill="white"/>
<path d="M133.84 203.407C134.561 203.261 135.215 203.294 135.803 203.506C136.388 203.722 136.88 204.089 137.279 204.607C137.675 205.129 137.951 205.773 138.107 206.539C138.262 207.306 138.259 208.01 138.098 208.651C137.935 209.296 137.635 209.834 137.198 210.264C136.758 210.698 136.2 210.984 135.525 211.121C135.135 211.2 134.737 211.213 134.33 211.16C133.924 211.107 133.535 210.966 133.164 210.737C132.794 210.511 132.468 210.178 132.186 209.738C131.904 209.298 131.692 208.729 131.551 208.03L131.452 207.543L137.221 206.374L137.422 207.368L132.823 208.3C132.908 208.722 133.069 209.082 133.305 209.379C133.538 209.677 133.828 209.89 134.175 210.019C134.52 210.149 134.9 210.172 135.315 210.088C135.773 209.995 136.147 209.801 136.435 209.506C136.721 209.214 136.917 208.87 137.022 208.474C137.128 208.077 137.139 207.672 137.055 207.26L136.921 206.597C136.807 206.032 136.612 205.572 136.338 205.219C136.06 204.869 135.726 204.627 135.333 204.494C134.942 204.364 134.514 204.346 134.049 204.44C133.747 204.501 133.483 204.598 133.256 204.732C133.027 204.87 132.841 205.043 132.697 205.251C132.554 205.463 132.46 205.709 132.415 205.988L131.241 205.902C131.282 205.501 131.411 205.13 131.629 204.788C131.848 204.449 132.144 204.159 132.518 203.918C132.892 203.68 133.333 203.509 133.84 203.407Z" fill="white"/>
<path d="M129.056 201.957L130.267 212.387L129.141 212.518L129.001 211.313L128.863 211.329C128.793 211.471 128.693 211.652 128.566 211.874C128.435 212.099 128.236 212.309 127.968 212.504C127.698 212.702 127.315 212.83 126.822 212.887C126.183 212.962 125.601 212.867 125.077 212.605C124.553 212.342 124.12 211.933 123.779 211.379C123.437 210.825 123.22 210.149 123.128 209.352C123.034 208.549 123.09 207.837 123.295 207.216C123.5 206.598 123.826 206.1 124.272 205.721C124.719 205.345 125.259 205.121 125.891 205.048C126.378 204.991 126.778 205.026 127.089 205.154C127.402 205.284 127.649 205.444 127.831 205.633C128.013 205.825 128.155 205.986 128.257 206.114L128.356 206.103L127.89 202.093L129.056 201.957ZM128.681 208.727C128.614 208.155 128.472 207.659 128.253 207.241C128.034 206.826 127.75 206.513 127.398 206.304C127.047 206.098 126.638 206.022 126.171 206.076C125.683 206.133 125.292 206.308 124.996 206.603C124.697 206.901 124.49 207.279 124.376 207.736C124.26 208.197 124.233 208.697 124.295 209.237C124.357 209.77 124.496 210.241 124.71 210.65C124.921 211.063 125.206 211.375 125.564 211.587C125.92 211.803 126.344 211.882 126.838 211.824C127.312 211.769 127.697 211.603 127.991 211.325C128.287 211.051 128.492 210.69 128.606 210.243C128.722 209.799 128.747 209.294 128.681 208.727Z" fill="white"/>
<path d="M120.931 205.82L121.549 213.431L120.38 213.526L119.762 205.914L120.931 205.82ZM121.057 214.748C121.285 214.729 121.488 214.791 121.666 214.933C121.84 215.075 121.937 215.255 121.954 215.473C121.972 215.691 121.906 215.884 121.757 216.053C121.604 216.221 121.414 216.315 121.186 216.333C120.958 216.352 120.757 216.29 120.582 216.148C120.405 216.006 120.307 215.826 120.289 215.608C120.272 215.39 120.339 215.197 120.492 215.028C120.641 214.86 120.829 214.766 121.057 214.748Z" fill="white"/>
<path d="M109.484 211.277L109.509 210.184L113.962 210.287L113.937 211.38L109.484 211.277Z" fill="white"/>
<path d="M104.957 203.658L103.506 214.057L102.383 213.901L102.551 212.699L102.413 212.68C102.309 212.799 102.168 212.95 101.988 213.133C101.805 213.318 101.559 213.471 101.251 213.592C100.94 213.716 100.538 213.743 100.045 213.675C99.4083 213.586 98.8692 213.348 98.4278 212.962C97.9864 212.576 97.6703 212.072 97.4794 211.449C97.2885 210.827 97.2485 210.119 97.3594 209.324C97.4711 208.523 97.7043 207.848 98.0587 207.298C98.4127 206.752 98.8535 206.352 99.3809 206.098C99.9079 205.846 100.486 205.765 101.117 205.853C101.603 205.921 101.98 206.055 102.25 206.257C102.519 206.462 102.718 206.679 102.847 206.908C102.975 207.14 103.072 207.331 103.138 207.48L103.237 207.494L103.795 203.496L104.957 203.658ZM102.891 210.116C102.971 209.545 102.957 209.03 102.851 208.57C102.744 208.113 102.547 207.739 102.259 207.448C101.972 207.16 101.595 206.984 101.129 206.919C100.643 206.851 100.22 206.922 99.8588 207.133C99.4944 207.347 99.1996 207.66 98.9745 208.074C98.7457 208.49 98.5938 208.968 98.5186 209.506C98.4444 210.038 98.4596 210.529 98.5642 210.978C98.665 211.431 98.8621 211.805 99.1556 212.1C99.4452 212.398 99.8363 212.581 100.329 212.65C100.801 212.716 101.215 212.652 101.57 212.457C101.925 212.266 102.214 211.968 102.438 211.564C102.661 211.164 102.812 210.681 102.891 210.116Z" fill="white"/>
<path d="M93.7581 204.894C94.4305 205.047 94.9841 205.34 95.4191 205.775C95.8509 206.21 96.1438 206.747 96.2979 207.387C96.4487 208.026 96.437 208.73 96.2627 209.499C96.0869 210.275 95.7929 210.92 95.3805 211.435C94.965 211.949 94.4688 212.309 93.892 212.515C93.312 212.72 92.6859 212.746 92.0135 212.594C91.3412 212.442 90.7891 212.149 90.3574 211.714C89.9224 211.279 89.6298 210.741 89.4797 210.098C89.3263 209.455 89.3376 208.746 89.5133 207.97C89.6876 207.201 89.9822 206.561 90.397 206.05C90.8086 205.538 91.3044 205.18 91.8844 204.975C92.4612 204.769 93.0858 204.742 93.7581 204.894ZM93.5252 205.922C93.0145 205.807 92.5646 205.842 92.1756 206.029C91.7865 206.217 91.4645 206.506 91.2094 206.896C90.9543 207.287 90.7704 207.731 90.6576 208.229C90.5448 208.727 90.5189 209.209 90.5799 209.675C90.6409 210.14 90.8062 210.543 91.0759 210.883C91.3455 211.223 91.7357 211.451 92.2464 211.566C92.7572 211.682 93.2074 211.645 93.5972 211.454C93.9869 211.264 94.3097 210.972 94.5655 210.578C94.8213 210.184 95.0056 209.738 95.1184 209.24C95.2312 208.742 95.2567 208.262 95.195 207.799C95.1333 207.337 94.9673 206.937 94.6969 206.601C94.4265 206.264 94.0359 206.038 93.5252 205.922Z" fill="white"/>
<path d="M88.896 204.204L86.6763 211.511L85.5536 211.17L86.519 207.992L85.7769 207.767L82.1857 210.147L80.7396 209.707L84.7583 207.083L82.9213 202.389L84.3674 202.828L85.8284 206.639L86.8369 206.946L87.7733 203.863L88.896 204.204Z" fill="white"/>
<path d="M81.7287 202.071L79.235 209.289L78.126 208.905L80.6197 201.688L81.7287 202.071ZM78.2555 210.297C78.4716 210.371 78.6326 210.509 78.7383 210.711C78.841 210.911 78.8566 211.115 78.7851 211.321C78.7137 211.528 78.5758 211.679 78.3714 211.773C78.1639 211.866 77.9521 211.875 77.7359 211.8C77.5198 211.726 77.3604 211.588 77.2578 211.388C77.152 211.187 77.1348 210.983 77.2063 210.776C77.2777 210.569 77.4172 210.419 77.6247 210.326C77.829 210.232 78.0393 210.222 78.2555 210.297Z" fill="white"/>
<path d="M78.82 201.315L75.819 208.337L72.9481 207.11C72.1922 206.787 71.6648 206.36 71.3657 205.828C71.0666 205.297 71.0369 204.751 71.2766 204.19C71.4589 203.763 71.7267 203.487 72.08 203.36C72.4319 203.236 72.8236 203.218 73.255 203.305C73.0115 203.158 72.7992 202.959 72.6179 202.709C72.4335 202.457 72.3153 202.168 72.2632 201.843C72.2097 201.521 72.2618 201.176 72.4194 200.807C72.5731 200.448 72.802 200.165 73.106 199.96C73.41 199.754 73.7678 199.643 74.1795 199.624C74.5912 199.605 75.0348 199.697 75.5102 199.901L78.82 201.315ZM77.374 201.865L75.0882 200.888C74.7164 200.729 74.3875 200.693 74.1017 200.78C73.8158 200.867 73.6078 201.063 73.4776 201.368C73.3226 201.73 73.3059 202.06 73.4276 202.357C73.5481 202.657 73.7942 202.887 74.166 203.046L76.4518 204.023L77.374 201.865ZM76.0532 204.955L74.2063 204.166C73.9168 204.042 73.6514 203.976 73.4103 203.966C73.1679 203.96 72.9599 204.008 72.7864 204.111C72.6085 204.215 72.4753 204.371 72.3867 204.578C72.2604 204.873 72.2848 205.158 72.46 205.431C72.634 205.707 72.9373 205.938 73.3701 206.123L75.217 206.912L76.0532 204.955Z" fill="white"/>
<path d="M71.0023 195.979L69.3647 198.823L68.8132 198.505C68.5972 198.568 68.3932 198.653 68.2013 198.761C68.0093 198.868 67.8129 199.013 67.6121 199.196C67.4068 199.38 67.1848 199.619 66.9462 199.914C66.7059 200.212 66.4325 200.58 66.126 201.019L64.3934 203.51L60.1886 201.088L63.4539 195.418L62.4372 194.833L64.0748 191.99L65.0915 192.575L63.9997 194.471L68.8938 197.289L69.9856 195.394L71.0023 195.979ZM67.6586 197.84L64.4706 196.004L61.7512 200.726L63.9914 202.016L65.1265 200.444C65.5969 199.793 66.0342 199.24 66.4382 198.784C66.8422 198.328 67.249 198.013 67.6586 197.84Z" fill="white"/>
<path d="M59.781 191.919C60.3487 192.31 60.7537 192.788 60.996 193.353C61.2356 193.917 61.3082 194.524 61.2136 195.176C61.1163 195.825 60.8439 196.475 60.3964 197.124C59.9451 197.779 59.4324 198.269 58.8583 198.594C58.2815 198.917 57.6872 199.067 57.0752 199.044C56.4606 199.019 55.8694 198.811 55.3017 198.42C54.734 198.029 54.3304 197.551 54.0908 196.988C53.8484 196.422 53.7768 195.813 53.876 195.161C53.9724 194.507 54.2463 193.853 54.6976 193.198C55.1452 192.548 55.6564 192.063 56.2313 191.743C56.8035 191.421 57.3969 191.272 58.0116 191.297C58.6235 191.32 59.2133 191.527 59.781 191.919ZM59.183 192.786C58.7518 192.489 58.3208 192.355 57.8901 192.385C57.4594 192.414 57.0531 192.563 56.6711 192.831C56.2892 193.099 55.9534 193.443 55.6638 193.863C55.3742 194.284 55.1712 194.721 55.0548 195.177C54.9385 195.632 54.9424 196.067 55.0666 196.483C55.1908 196.898 55.4685 197.255 55.8997 197.552C56.3309 197.849 56.7628 197.982 57.1954 197.95C57.628 197.918 58.0362 197.766 58.4201 197.495C58.8039 197.224 59.1406 196.879 59.4302 196.459C59.7198 196.038 59.9218 195.602 60.0363 195.149C60.1508 194.697 60.145 194.264 60.019 193.851C59.8929 193.439 59.6142 193.084 59.183 192.786Z" fill="white"/>
<path d="M53.2158 187.403C53.7742 187.851 54.1492 188.369 54.3408 188.956C54.5324 189.543 54.5511 190.156 54.3969 190.793C54.2427 191.43 53.927 192.045 53.4499 192.64C52.9644 193.245 52.4249 193.689 51.8313 193.973C51.233 194.258 50.6287 194.37 50.0185 194.31C49.4037 194.25 48.8275 194.004 48.2898 193.573C47.8711 193.237 47.5559 192.856 47.3443 192.431C47.1328 192.007 47.0318 191.569 47.0413 191.117C47.0508 190.666 47.179 190.233 47.4261 189.82L48.3411 190.554C48.1931 190.881 48.1552 191.246 48.2276 191.649C48.2953 192.051 48.5308 192.415 48.934 192.738C49.2907 193.025 49.6782 193.183 50.0964 193.212C50.5099 193.242 50.9265 193.15 51.3461 192.934C51.761 192.719 52.149 192.386 52.51 191.936C52.8792 191.476 53.1284 191.018 53.2575 190.56C53.384 190.101 53.3898 189.67 53.275 189.267C53.1577 188.863 52.918 188.516 52.5561 188.225C52.3183 188.034 52.0693 187.902 51.8091 187.83C51.5488 187.757 51.2892 187.744 51.0304 187.791C50.7715 187.838 50.5265 187.948 50.2953 188.119L49.3803 187.385C49.7141 187.075 50.0962 186.861 50.5265 186.743C50.9522 186.625 51.3981 186.618 51.8644 186.72C52.3259 186.823 52.7764 187.05 53.2158 187.403Z" fill="white"/>
<path d="M49.9354 185.276L44.7354 190.868L42.4489 188.742C41.847 188.182 41.4952 187.602 41.3936 187.001C41.292 186.399 41.4489 185.875 41.8641 185.429C42.1801 185.089 42.5257 184.919 42.901 184.92C43.274 184.922 43.6487 185.038 44.0252 185.266C43.8459 185.045 43.7134 184.786 43.6276 184.489C43.5393 184.189 43.5256 183.878 43.5866 183.554C43.6452 183.233 43.8111 182.926 44.0842 182.632C44.3505 182.346 44.6615 182.157 45.017 182.067C45.3725 181.977 45.7471 181.992 46.1409 182.114C46.5346 182.236 46.9208 182.473 47.2994 182.825L49.9354 185.276ZM48.3886 185.304L46.5682 183.611C46.2721 183.336 45.9748 183.191 45.6764 183.176C45.378 183.161 45.116 183.275 44.8903 183.518C44.6217 183.806 44.4944 184.111 44.5085 184.432C44.5202 184.755 44.6741 185.054 44.9703 185.33L46.7907 187.022L48.3886 185.304ZM46.1001 187.765L44.6292 186.398C44.3986 186.183 44.1714 186.031 43.9477 185.94C43.7217 185.852 43.5097 185.827 43.3117 185.865C43.1091 185.903 42.931 186.004 42.7776 186.169C42.5586 186.405 42.4854 186.681 42.5579 186.997C42.6281 187.316 42.8355 187.635 43.1802 187.956L44.6511 189.323L46.1001 187.765Z" fill="white"/>
<path d="M44.4234 180.201L39.0236 185.601L38.194 184.771L43.5937 179.371L44.4234 180.201ZM37.7018 186.079C37.8635 186.24 37.9479 186.435 37.9549 186.662C37.9596 186.887 37.8846 187.077 37.73 187.232C37.5753 187.386 37.3854 187.461 37.1605 187.457C36.9331 187.45 36.7386 187.365 36.5769 187.204C36.4152 187.042 36.332 186.848 36.3273 186.624C36.3203 186.396 36.3941 186.205 36.5488 186.05C36.7034 185.896 36.8944 185.822 37.1218 185.829C37.3468 185.834 37.5401 185.917 37.7018 186.079Z" fill="white"/>
<path d="M44.3996 177.617L41.9015 179.745L41.4889 179.26C41.2643 179.247 41.0435 179.259 40.8266 179.295C40.6097 179.332 40.376 179.403 40.1254 179.507C39.8702 179.611 39.5807 179.762 39.2569 179.959C38.9305 180.159 38.5492 180.414 38.1128 180.725L35.6439 182.488L32.4979 178.794L37.479 174.552L36.7183 173.658L39.2164 171.531L39.9771 172.424L38.3117 173.842L41.9735 178.142L43.6389 176.724L44.3996 177.617ZM40.625 178.246L38.2397 175.445L34.0913 178.978L35.7675 180.946L37.365 179.847C38.0269 179.392 38.6247 179.018 39.1584 178.724C39.6921 178.431 40.181 178.271 40.625 178.246Z" fill="white"/>
<path d="M38.7078 170.18C38.8254 170.34 38.9168 170.493 38.9822 170.638C39.0502 170.781 39.0899 170.886 39.1011 170.952L38.0907 171.322C37.981 171.049 37.8535 170.831 37.7081 170.666C37.5627 170.501 37.3693 170.403 37.1276 170.37C36.8867 170.333 36.5678 170.372 36.1708 170.486L35.5603 170.662L31.0388 177.478L30.2863 176.451L33.948 171.154L33.901 171.09L27.7468 172.987L26.9944 171.961L35.9679 169.402C36.3722 169.286 36.7423 169.239 37.0782 169.26C37.4167 169.279 37.721 169.366 37.9911 169.521C38.2592 169.674 38.4981 169.894 38.7078 170.18Z" fill="white"/>
<path d="M32.5996 162.022C32.6989 162.195 32.773 162.356 32.822 162.508C32.8739 162.658 32.9018 162.766 32.9058 162.833L31.8608 163.09C31.7817 162.807 31.679 162.575 31.5526 162.396C31.4262 162.216 31.2447 162.097 31.0081 162.038C30.7727 161.975 30.4515 161.978 30.0443 162.048L29.4181 162.156L24.1757 168.434L23.5405 167.331L27.7616 162.468L27.7219 162.399L21.3967 163.609L20.7615 162.506L29.9616 160.948C30.3762 160.878 30.7493 160.871 31.0808 160.929C31.4152 160.985 31.7081 161.105 31.9595 161.289C32.2093 161.471 32.4226 161.715 32.5996 162.022Z" fill="white"/>
<path d="M23.9772 152.14C24.2634 152.796 24.355 153.428 24.2519 154.038C24.1487 154.647 23.8809 155.197 23.4484 155.69C23.016 156.182 22.4504 156.581 21.7517 156.886C21.0408 157.196 20.3565 157.339 19.6987 157.315C19.0366 157.289 18.4494 157.108 17.9372 156.771C17.4206 156.432 17.0244 155.946 16.7488 155.315C16.5341 154.822 16.4318 154.339 16.4418 153.865C16.4518 153.39 16.5658 152.955 16.7839 152.56C17.002 152.165 17.3165 151.841 17.7275 151.59L18.1966 152.665C17.9134 152.886 17.7104 153.192 17.5876 153.582C17.4604 153.97 17.5002 154.401 17.7069 154.875C17.8898 155.294 18.1595 155.614 18.5161 155.835C18.8682 156.053 19.2802 156.165 19.752 156.169C20.2195 156.171 20.7175 156.057 21.2461 155.826C21.7868 155.59 22.2206 155.3 22.5474 154.955C22.8729 154.607 23.0782 154.228 23.1635 153.818C23.2474 153.405 23.1966 152.986 23.0111 152.561C22.8892 152.282 22.7299 152.049 22.5333 151.864C22.3367 151.678 22.1128 151.546 21.8616 151.468C21.6105 151.389 21.3427 151.372 21.0583 151.417L20.5892 150.341C21.0289 150.222 21.4666 150.21 21.9025 150.306C22.3339 150.399 22.7323 150.6 23.0977 150.907C23.4587 151.212 23.7519 151.623 23.9772 152.14Z" fill="white"/>
<path d="M23.5288 145.353L11.3964 149.392L11.0258 148.278L23.1582 144.24L23.5288 145.353ZM21.208 146.125C21.3713 146.616 21.4319 147.092 21.3898 147.553C21.3445 148.015 21.2065 148.445 20.9758 148.844C20.7419 149.243 20.4216 149.598 20.0148 149.908C19.608 150.218 19.1247 150.466 18.565 150.652C17.9989 150.841 17.4602 150.933 16.9487 150.928C16.4341 150.925 15.9635 150.834 15.537 150.654C15.1105 150.475 14.7422 150.213 14.4321 149.869C14.1188 149.526 13.8806 149.11 13.7172 148.619L13.6042 148.279L21.0949 145.786L21.208 146.125ZM20.2079 146.458L20.1451 146.27L14.6545 148.098L14.7173 148.286C14.8408 148.657 15.0236 148.955 15.2656 149.178C15.5045 149.402 15.7827 149.561 16.1002 149.655C16.4136 149.746 16.75 149.781 17.1095 149.759C17.468 149.734 17.8296 149.66 18.1944 149.539C18.6787 149.378 19.1027 149.151 19.4665 148.859C19.8303 148.567 20.0862 148.218 20.2341 147.812C20.3821 147.406 20.3734 146.955 20.2079 146.458ZM20.8374 145.012L20.9504 145.352L13.4597 147.846L13.3467 147.506C13.1833 147.015 13.1243 146.539 13.1696 146.077C13.2117 145.616 13.3497 145.185 13.5835 144.786C13.8174 144.387 14.1393 144.032 14.5493 143.721C14.9561 143.411 15.4425 143.161 16.0085 142.973C16.5683 142.787 17.1039 142.696 17.6154 142.7C18.1268 142.704 18.5958 142.796 19.0223 142.976C19.4457 143.156 19.814 143.418 20.1273 143.761C20.4374 144.104 20.6741 144.522 20.8374 145.012ZM19.8374 145.345C19.7128 144.971 19.5331 144.673 19.2985 144.45C19.0596 144.226 18.7835 144.068 18.4701 143.977C18.1526 143.883 17.8162 143.849 17.4608 143.873C17.1013 143.895 16.7408 143.966 16.3791 144.086C15.8948 144.247 15.4692 144.475 15.1023 144.768C14.7353 145.061 14.4763 145.411 14.3252 145.818C14.1741 146.224 14.1813 146.676 14.3467 147.173L14.4095 147.362L19.9002 145.534L19.8374 145.345Z" fill="white"/>
<path d="M18.3117 137.621C18.4852 138.336 18.477 138.991 18.2872 139.586C18.0934 140.179 17.7454 140.685 17.2433 141.103C16.7372 141.519 16.1041 141.82 15.3439 142.004C14.5838 142.188 13.8802 142.213 13.2332 142.076C12.5823 141.937 12.0335 141.658 11.5871 141.238C11.1366 140.815 10.8301 140.269 10.6675 139.599C10.5738 139.212 10.5456 138.815 10.583 138.407C10.6204 137.999 10.7465 137.605 10.9613 137.225C11.173 136.846 11.4933 136.508 11.9222 136.209C12.3511 135.911 12.9118 135.678 13.6043 135.51L14.0875 135.392L15.4755 141.113L14.4899 141.352L13.3832 136.791C12.9645 136.893 12.6112 137.067 12.3233 137.314C12.0346 137.558 11.8324 137.856 11.7166 138.208C11.6 138.557 11.5918 138.938 11.6918 139.35C11.802 139.804 12.0101 140.17 12.3161 140.447C12.618 140.721 12.9692 140.904 13.3698 140.994C13.7703 141.085 14.175 141.08 14.5841 140.981L15.2412 140.822C15.8016 140.686 16.2533 140.474 16.5961 140.186C16.9349 139.896 17.1636 139.552 17.2821 139.155C17.3974 138.759 17.3992 138.33 17.2874 137.869C17.2147 137.57 17.1072 137.31 16.9648 137.088C16.8185 136.865 16.6385 136.685 16.4248 136.549C16.2078 136.414 15.9588 136.33 15.6777 136.296L15.7196 135.119C16.1214 135.144 16.4972 135.259 16.8471 135.464C17.1937 135.67 17.4948 135.955 17.7503 136.32C18.0026 136.685 18.1897 137.118 18.3117 137.621Z" fill="white"/>
<path d="M19.6097 132.914L9.24022 134.564L9.06203 133.445L10.26 133.254L10.2381 133.117C10.0937 133.052 9.90797 132.961 9.68107 132.843C9.45037 132.722 9.23216 132.532 9.02645 132.272C8.81694 132.011 8.67311 131.634 8.59496 131.143C8.49388 130.508 8.56353 129.923 8.80392 129.388C9.04431 128.853 9.4342 128.403 9.97358 128.039C10.513 127.675 11.1787 127.429 11.9708 127.303C12.7695 127.176 13.4834 127.202 14.1125 127.38C14.7384 127.559 15.25 127.864 15.6474 128.294C16.0415 128.724 16.2885 129.254 16.3886 129.882C16.4657 130.367 16.4472 130.767 16.3332 131.084C16.2159 131.402 16.0667 131.655 15.8855 131.845C15.701 132.036 15.5468 132.184 15.4229 132.291L15.4385 132.39L19.4252 131.755L19.6097 132.914ZM12.8296 132.825C13.3992 132.734 13.8883 132.571 14.2971 132.335C14.7025 132.099 15.0025 131.801 15.1969 131.441C15.3881 131.082 15.4467 130.67 15.3727 130.205C15.2956 129.721 15.1036 129.337 14.7967 129.053C14.486 128.767 14.1 128.577 13.6386 128.483C13.1734 128.385 12.6724 128.38 12.1356 128.465C11.6054 128.549 11.1405 128.707 10.741 128.939C10.3378 129.167 10.0378 129.465 9.84116 129.832C9.64071 130.196 9.57956 130.624 9.65771 131.115C9.73274 131.586 9.91525 131.963 10.2053 132.246C10.492 132.529 10.8611 132.719 11.3127 132.815C11.761 132.911 12.2666 132.915 12.8296 132.825Z" fill="white"/>
<path d="M15.3816 124.833L7.79965 125.743L7.65981 124.578L15.2417 123.668L15.3816 124.833ZM6.46489 125.302C6.49215 125.529 6.43832 125.734 6.30341 125.917C6.1681 126.097 5.99185 126.2 5.77466 126.226C5.55747 126.252 5.36186 126.194 5.18784 126.051C5.01342 125.905 4.91258 125.719 4.88532 125.492C4.85807 125.265 4.91209 125.061 5.0474 124.881C5.18231 124.698 5.35837 124.594 5.57556 124.568C5.79275 124.542 5.98855 124.601 6.16297 124.747C6.33699 124.89 6.43763 125.075 6.46489 125.302Z" fill="white"/>
<path d="M9.49558 114.285L10.589 114.26L10.6922 118.713L9.59874 118.738L9.49558 114.285Z" fill="white"/>
<path d="M16.8864 108.799L6.43916 107.748L6.5526 106.62L7.75958 106.742L7.77351 106.603C7.65022 106.504 7.49398 106.368 7.30478 106.196C7.11261 106.02 6.95016 105.781 6.81743 105.478C6.68173 105.171 6.63876 104.77 6.68851 104.275C6.75286 103.636 6.96952 103.088 7.3385 102.632C7.70747 102.176 8.19922 101.841 8.81376 101.626C9.42829 101.411 10.1346 101.344 10.9326 101.425C11.7373 101.505 12.421 101.713 12.9838 102.046C13.5432 102.378 13.9602 102.803 14.2346 103.321C14.5057 103.838 14.6094 104.413 14.5458 105.046C14.4967 105.534 14.3766 105.917 14.1854 106.194C13.991 106.471 13.782 106.678 13.5583 106.815C13.3313 106.952 13.1443 107.057 12.9972 107.129L12.9872 107.227L17.0039 107.632L16.8864 108.799ZM10.3536 106.983C10.9274 107.04 11.4421 107.007 11.8976 106.883C12.3498 106.759 12.7158 106.547 12.9957 106.249C13.2722 105.95 13.434 105.567 13.4811 105.099C13.5302 104.611 13.4426 104.19 13.2182 103.838C12.9909 103.482 12.6662 103.2 12.2441 102.991C11.8192 102.778 11.3363 102.644 10.7954 102.59C10.2612 102.536 9.77143 102.57 9.32613 102.692C8.87788 102.81 8.51185 103.022 8.22805 103.326C7.94128 103.627 7.77302 104.025 7.72327 104.519C7.6755 104.994 7.75573 105.405 7.96396 105.753C8.16889 106.1 8.47742 106.377 8.88954 106.585C9.29837 106.793 9.78639 106.926 10.3536 106.983Z" fill="white"/>
<path d="M15.1949 97.7792C15.0709 98.4573 14.8008 99.0228 14.3844 99.4757C13.9686 99.9253 13.4444 100.241 12.8116 100.421C12.1794 100.599 11.4753 100.617 10.6993 100.475C9.91682 100.332 9.25971 100.065 8.72796 99.6747C8.19681 99.2811 7.81634 98.8005 7.58656 98.2329C7.35736 97.662 7.30476 97.0375 7.42874 96.3593C7.55272 95.6812 7.82259 95.1173 8.23835 94.6677C8.65471 94.2148 9.18062 93.8999 9.81608 93.723C10.4521 93.5428 11.1614 93.5242 11.9439 93.6672C12.7199 93.8091 13.3718 94.0765 13.8997 94.4695C14.4282 94.8593 14.807 95.3396 15.0362 95.9105C15.266 96.4781 15.3189 97.101 15.1949 97.7792ZM14.1581 97.5896C14.2523 97.0745 14.1977 96.6265 13.9944 96.2457C13.7912 95.8648 13.4889 95.5552 13.0878 95.3167C12.6866 95.0783 12.235 94.9132 11.7329 94.8214C11.2308 94.7296 10.7483 94.7239 10.2855 94.8044C9.82266 94.8849 9.42717 95.067 9.09902 95.3507C8.77087 95.6343 8.55971 96.0338 8.46553 96.5489C8.37135 97.064 8.42754 97.5123 8.63409 97.8937C8.84064 98.2752 9.14612 98.5854 9.55054 98.8244C9.95496 99.0635 10.4082 99.2289 10.9103 99.3207C11.4124 99.4125 11.8932 99.4178 12.3528 99.3368C12.8124 99.2557 13.2046 99.073 13.5295 98.7887C13.8544 98.5045 14.0639 98.1048 14.1581 97.5896Z" fill="white"/>
<path d="M15.6448 93.0038L8.25198 91.0905L8.54595 89.9546L11.761 90.7867L11.9554 90.0358L9.42787 86.547L9.80655 85.0838L12.5959 88.9897L17.2093 86.9586L16.8306 88.4218L13.084 90.0404L12.8199 91.0607L15.9387 91.8679L15.6448 93.0038Z" fill="white"/>
<path d="M17.515 85.6005L10.2 83.4084L10.5368 82.2845L17.8518 84.4766L17.515 85.6005ZM9.15206 82.4716C9.08642 82.6906 8.9552 82.8572 8.75841 82.9712C8.56257 83.0821 8.35987 83.1061 8.15033 83.0433C7.94079 82.9805 7.78471 82.849 7.68211 82.6487C7.58046 82.4452 7.56246 82.234 7.62811 82.0149C7.69376 81.7958 7.8245 81.6309 8.02034 81.52C8.21713 81.406 8.4203 81.3804 8.62985 81.4432C8.83939 81.506 8.99499 81.6391 9.09663 81.8425C9.19924 82.0428 9.21771 82.2525 9.15206 82.4716Z" fill="white"/>
<path d="M18.0526 82.8978L10.9131 80.1883L12.0209 77.2692C12.3126 76.5008 12.7178 75.9562 13.2365 75.6355C13.7553 75.3147 14.2998 75.2626 14.8699 75.479C15.3038 75.6436 15.5912 75.8998 15.7322 76.2476C15.8701 76.5941 15.9044 76.9847 15.8352 77.4193C15.9723 77.17 16.1623 76.9496 16.4051 76.7582C16.6491 76.5636 16.9324 76.4336 17.2551 76.3682C17.5746 76.3016 17.9218 76.3394 18.2968 76.4817C18.6624 76.6205 18.9541 76.8375 19.1717 77.1328C19.3893 77.4281 19.5159 77.781 19.5515 78.1916C19.5872 78.6021 19.5132 79.0491 19.3298 79.5325L18.0526 82.8978ZM17.4438 81.4756L18.3258 79.1515C18.4693 78.7735 18.4917 78.4434 18.3931 78.1614C18.2945 77.8794 18.0903 77.6796 17.7804 77.562C17.4117 77.422 17.0814 77.419 16.7895 77.5528C16.4946 77.6855 16.2754 77.9408 16.1319 78.3189L15.2499 80.643L17.4438 81.4756ZM14.3017 80.2831L15.0143 78.4053C15.126 78.1109 15.1816 77.843 15.181 77.6018C15.1773 77.3593 15.1207 77.1535 15.0112 76.9843C14.8998 76.8108 14.7387 76.6841 14.528 76.6042C14.2274 76.4901 13.9443 76.5262 13.6786 76.7125C13.4098 76.8977 13.1919 77.2102 13.0249 77.6503L12.3123 79.5281L14.3017 80.2831Z" fill="white"/>
<path d="M23.034 74.8246L20.1264 73.3038L20.4214 72.7399C20.3497 72.5266 20.2562 72.3262 20.1411 72.1388C20.0259 71.9514 19.873 71.761 19.6823 71.5678C19.4902 71.3701 19.2421 71.158 18.9378 70.9315C18.6307 70.7036 18.2514 70.4453 17.8001 70.1569L15.2415 68.5269L17.4904 64.2272L23.2879 67.2596L23.8317 66.2199L26.7392 67.7407L26.1954 68.7804L24.257 67.7665L21.6394 72.771L23.5778 73.7849L23.034 74.8246ZM21.0389 71.5592L22.7441 68.2993L17.9158 65.7738L16.7176 68.0646L18.3347 69.1349C19.0041 69.5785 19.5747 69.9929 20.0465 70.3781C20.5183 70.7633 20.8491 71.157 21.0389 71.5592Z" fill="white"/>
<path d="M26.825 63.0606C26.455 63.6422 25.9918 64.0645 25.4356 64.3274C24.8812 64.5875 24.2769 64.6822 23.6226 64.6116C22.97 64.5382 22.311 64.2897 21.6455 63.8663C20.9743 63.4393 20.4659 62.9449 20.1201 62.3831C19.7762 61.8185 19.6045 61.2301 19.6053 60.6177C19.6078 60.0025 19.7941 59.4041 20.1641 58.8225C20.5342 58.2409 20.9964 57.82 21.5508 57.5599C22.107 57.297 22.7128 57.2032 23.3681 57.2784C24.0252 57.3508 24.6894 57.6005 25.3605 58.0275C26.026 58.451 26.5294 58.9441 26.8705 59.5069C27.2135 60.0668 27.3837 60.6544 27.3812 61.2696C27.3805 61.882 27.1951 62.479 26.825 63.0606ZM25.9358 62.4948C26.2169 62.053 26.335 61.6174 26.2899 61.1881C26.2449 60.7587 26.0814 60.3581 25.7995 59.9862C25.5176 59.6143 25.1613 59.2914 24.7306 59.0174C24.3 58.7434 23.8551 58.5566 23.396 58.457C22.9369 58.3574 22.502 58.3772 22.0912 58.5166C21.6804 58.6559 21.3345 58.9465 21.0534 59.3883C20.7723 59.8301 20.6556 60.2666 20.7034 60.6977C20.7512 61.1288 20.9175 61.5312 21.2022 61.9049C21.487 62.2785 21.8447 62.6024 22.2753 62.8764C22.7059 63.1504 23.1494 63.3363 23.6057 63.4341C24.062 63.532 24.4942 63.5103 24.9021 63.3692C25.3101 63.2281 25.6547 62.9366 25.9358 62.4948Z" fill="white"/>
<path d="M30.8043 56.7181C30.379 57.294 29.8767 57.6894 29.2976 57.9045C28.7185 58.1195 28.1076 58.1627 27.465 58.0342C26.8224 57.9056 26.1945 57.6149 25.5813 57.162C24.9575 56.7012 24.4916 56.1799 24.1837 55.5982C23.8752 55.0118 23.7389 54.4125 23.7749 53.8004C23.8101 53.1836 24.0326 52.598 24.4422 52.0435C24.7612 51.6116 25.1287 51.2814 25.5446 51.053C25.9606 50.8246 26.3942 50.7061 26.8456 50.6975C27.297 50.6889 27.7343 50.7997 28.1576 51.0299L27.4605 51.9737C27.1274 51.8389 26.7613 51.8157 26.3622 51.9042C25.9624 51.988 25.609 52.2378 25.3018 52.6537C25.03 53.0216 24.8877 53.4151 24.8749 53.8341C24.8613 54.2485 24.9707 54.661 25.2031 55.0717C25.4347 55.4777 25.7825 55.852 26.2464 56.1946C26.7209 56.5451 27.1893 56.7757 27.6515 56.8864C28.1156 56.9943 28.5464 56.9829 28.9439 56.8521C29.3433 56.7185 29.6809 56.4652 29.9565 56.0919C30.1377 55.8467 30.2595 55.5925 30.3219 55.3296C30.3842 55.0666 30.3867 54.8068 30.3291 54.55C30.2715 54.2932 30.1524 54.0528 29.9718 53.8287L30.6689 52.8849C30.9921 53.2061 31.2212 53.5793 31.3562 54.0045C31.4906 54.4251 31.516 54.8704 31.4326 55.3404C31.3485 55.8057 31.1391 56.2649 30.8043 56.7181Z" fill="white"/>
<path d="M32.818 53.284L27.0222 48.3118L29.0551 45.9422C29.5903 45.3183 30.1563 44.9436 30.7531 44.818C31.35 44.6925 31.8798 44.8282 32.3427 45.2253C32.6948 45.5275 32.8782 45.866 32.8928 46.241C32.9048 46.6138 32.8046 46.9928 32.5919 47.3781C32.8055 47.1902 33.0591 47.0474 33.3524 46.9497C33.648 46.8496 33.9586 46.8235 34.2843 46.8714C34.6075 46.9172 34.9212 47.0707 35.2256 47.3318C35.5224 47.5865 35.7231 47.8896 35.8275 48.2413C35.932 48.5929 35.9313 48.9678 35.8254 49.3661C35.7196 49.7644 35.4983 50.1597 35.1616 50.5522L32.818 53.284ZM32.728 51.7396L34.3466 49.8529C34.6099 49.546 34.743 49.2432 34.7461 48.9445C34.7491 48.6458 34.6248 48.3885 34.3732 48.1727C34.0739 47.9159 33.7642 47.8009 33.4443 47.8277C33.1218 47.8523 32.8289 48.0181 32.5656 48.325L30.9471 50.2117L32.728 51.7396ZM30.1773 49.5513L31.4851 48.0269C31.6901 47.7879 31.8333 47.5548 31.9147 47.3277C31.9935 47.0983 32.0101 46.8855 31.9645 46.6892C31.9186 46.4882 31.8101 46.3144 31.6391 46.1676C31.3951 45.9583 31.1165 45.8962 30.8033 45.9812C30.4876 46.0641 30.1766 46.2842 29.8701 46.6414L28.5623 48.1658L30.1773 49.5513Z" fill="white"/>
<path d="M37.6791 47.5424L32.0679 42.3627L32.8638 41.5006L38.475 46.6803L37.6791 47.5424ZM31.5374 41.0611C31.3823 41.2291 31.1913 41.3212 30.9644 41.3373C30.7398 41.351 30.5471 41.2837 30.3864 41.1353C30.2257 40.9869 30.1431 40.8002 30.1388 40.5752C30.1368 40.3478 30.2133 40.15 30.3684 39.982C30.5235 39.814 30.7134 39.7231 30.938 39.7094C31.1649 39.6933 31.3587 39.7595 31.5194 39.9078C31.6802 40.0562 31.7616 40.2441 31.7636 40.4715C31.7679 40.6965 31.6925 40.8931 31.5374 41.0611Z" fill="white"/>
<path d="M40.5338 47.0849L38.3169 44.6658L38.7861 44.2358C38.7912 44.0109 38.7715 43.7907 38.727 43.5752C38.6824 43.3598 38.6033 43.1288 38.4898 42.8822C38.3764 42.631 38.2152 42.3471 38.0061 42.0307C37.7949 41.7118 37.5261 41.34 37.1997 40.9153L35.3482 38.5121L38.9255 35.2338L43.3458 40.0574L44.2108 39.2647L46.4277 41.6838L45.5626 42.4765L44.0847 40.8638L39.9209 44.6795L41.3988 46.2922L40.5338 47.0849ZM39.7684 43.3357L42.4808 40.8501L38.7995 36.8329L36.8935 38.5795L38.0501 40.136C38.5287 40.7809 38.9243 41.3647 39.2369 41.8874C39.5496 42.4101 39.7268 42.8928 39.7684 43.3357Z" fill="white"/>
<path d="M47.3157 41.4848C47.1602 41.6087 47.0111 41.7062 46.8686 41.7773C46.7282 41.8511 46.6254 41.8948 46.5601 41.9087L46.1491 40.914C46.4175 40.7934 46.6311 40.6572 46.7898 40.5054C46.9485 40.3535 47.0392 40.1562 47.062 39.9135C47.0894 39.6713 47.038 39.3542 46.9079 38.9621L46.7073 38.3591L39.7157 34.1146L40.7112 33.3216L46.1515 36.7678L46.2138 36.7183L44.071 30.6452L45.0665 29.8522L47.983 38.7158C48.1147 39.1152 48.1768 39.4831 48.1694 39.8195C48.164 40.1586 48.0891 40.4661 47.9446 40.7423C47.8027 41.0163 47.5931 41.2638 47.3157 41.4848Z" fill="white"/>
<path d="M55.3064 34.942C55.1382 35.0481 54.9794 35.1287 54.83 35.1838C54.6823 35.2417 54.5753 35.274 54.509 35.2806L54.2093 34.2469C54.4893 34.1565 54.7164 34.0444 54.8908 33.9109C55.0652 33.7773 55.177 33.5911 55.2262 33.3524C55.2799 33.1146 55.2636 32.7938 55.1771 32.3898L55.0437 31.7685L48.5588 26.7842L49.6351 26.105L54.6655 30.126L54.7328 30.0835L53.2676 23.8124L54.3439 23.1331L56.2727 32.2627C56.3599 32.6741 56.3814 33.0466 56.3372 33.3802C56.2947 33.7166 56.1866 34.0141 56.0128 34.2727C55.8418 34.5296 55.6063 34.7527 55.3064 34.942Z" fill="white"/>
<path d="M64.9932 25.8097C64.3493 26.1225 63.7209 26.2399 63.1081 26.1618C62.4953 26.0836 61.9341 25.8386 61.4244 25.4266C60.9147 25.0147 60.4933 24.4659 60.1602 23.7802C59.8212 23.0826 59.6503 22.4047 59.6474 21.7465C59.6461 21.0839 59.8033 20.4898 60.1191 19.9642C60.4364 19.4342 60.9051 19.0185 61.5252 18.7172C62.0081 18.4826 62.4868 18.3606 62.9613 18.3511C63.4358 18.3417 63.8749 18.4379 64.2788 18.6396C64.6826 18.8414 65.0187 19.1424 65.2869 19.5427L64.2315 20.0554C63.999 19.7815 63.6854 19.5912 63.2908 19.4844C62.8978 19.3732 62.4687 19.4306 62.0037 19.6566C61.5923 19.8564 61.2837 20.139 61.078 20.5043C60.8737 20.8651 60.7793 21.2813 60.7947 21.7529C60.8116 22.22 60.9461 22.713 61.1981 23.2317C61.4559 23.7623 61.7639 24.1838 62.1221 24.4962C62.4832 24.8072 62.8701 24.9969 63.2829 25.0653C63.6987 25.1323 64.1153 25.0644 64.5326 24.8616C64.8069 24.7284 65.0326 24.5598 65.2099 24.3557C65.3871 24.1517 65.5098 23.9226 65.5779 23.6684C65.646 23.4142 65.652 23.146 65.596 22.8637L66.6513 22.351C66.7886 22.7854 66.8185 23.2222 66.7409 23.6616C66.6648 24.0966 66.4808 24.5029 66.1889 24.8805C65.8986 25.2537 65.5 25.5634 64.9932 25.8097Z" fill="white"/>
<path d="M71.4915 25.1758L66.9545 13.2208L68.0514 12.8045L72.5885 24.7595L71.4915 25.1758ZM70.6236 22.8889C70.1402 23.0723 69.6673 23.1526 69.2048 23.1296C68.7411 23.1035 68.3056 22.9834 67.8982 22.7693C67.4896 22.5521 67.122 22.2467 66.7954 21.8531C66.4687 21.4595 66.2008 20.9869 65.9914 20.4353C65.7798 19.8776 65.6655 19.3431 65.6488 18.8318C65.6308 18.3175 65.7027 17.8436 65.8643 17.41C66.0259 16.9765 66.2721 16.5977 66.6029 16.2736C66.9325 15.9464 67.339 15.6911 67.8224 15.5077L68.157 15.3807L70.9583 22.7619L70.6236 22.8889ZM70.2496 21.9035L70.4356 21.8329L68.3823 16.4225L68.1963 16.4931C67.8307 16.6318 67.5413 16.8268 67.3282 17.0778C67.1138 17.3258 66.9666 17.6103 66.8864 17.9314C66.8081 18.2483 66.7873 18.5859 66.824 18.9442C66.8639 19.3013 66.952 19.6596 67.0884 20.019C67.2695 20.4962 67.5136 20.9105 67.8207 21.2619C68.1277 21.6134 68.4869 21.8546 68.8983 21.9856C69.3096 22.1167 69.76 22.0893 70.2496 21.9035ZM71.7206 22.4726L71.3859 22.5996L68.5847 15.2184L68.9193 15.0914C69.4027 14.9079 69.8763 14.8292 70.3399 14.8553C70.8024 14.8783 71.238 14.9984 71.6465 15.2156C72.0551 15.4328 72.4233 15.7397 72.7511 16.1364C73.0777 16.5301 73.3469 17.0058 73.5586 17.5635C73.7679 18.1151 73.8809 18.6465 73.8977 19.1577C73.9145 19.6689 73.842 20.1413 73.6804 20.5749C73.5177 21.0053 73.2715 21.3842 72.9419 21.7113C72.6111 22.0354 72.204 22.2891 71.7206 22.4726ZM71.3466 21.4872C71.7154 21.3472 72.0059 21.1554 72.2183 20.9117C72.4326 20.6638 72.5789 20.3814 72.6572 20.0645C72.7374 19.7434 72.7582 19.4058 72.7195 19.0518C72.6828 18.6935 72.5969 18.3362 72.4616 17.9798C72.2805 17.5026 72.0358 17.0868 71.7276 16.7323C71.4193 16.3777 71.059 16.1334 70.6465 15.9993C70.234 15.8651 69.7829 15.891 69.2933 16.0768L69.1074 16.1473L71.1607 21.5577L71.3466 21.4872Z" fill="white"/>
<path d="M79.0302 19.6064C78.3231 19.8096 77.6682 19.8288 77.0656 19.664C76.4653 19.4951 75.9456 19.1685 75.5065 18.6843C75.0696 18.196 74.7431 17.576 74.5271 16.8242C74.3111 16.0724 74.2577 15.3705 74.3669 14.7184C74.4784 14.0622 74.7347 13.5023 75.1361 13.0386C75.5396 12.5709 76.0727 12.2419 76.7353 12.0515C77.1176 11.9417 77.5133 11.8969 77.9227 11.9172C78.332 11.9376 78.7307 12.0472 79.1189 12.246C79.5062 12.4416 79.8579 12.7475 80.174 13.1636C80.4901 13.5797 80.7466 14.1302 80.9434 14.815L81.0807 15.2929L75.4232 16.9185L75.1431 15.9437L79.6538 14.6476C79.5348 14.2335 79.3458 13.8878 79.0868 13.6105C78.831 13.3322 78.5248 13.1426 78.1681 13.0416C77.8147 12.9397 77.4341 12.9473 77.0264 13.0645C76.5772 13.1936 76.2206 13.4167 75.9566 13.734C75.6948 14.0471 75.5271 14.4057 75.4535 14.8096C75.3799 15.2136 75.4012 15.6178 75.5175 16.0224L75.7042 16.6722C75.8635 17.2265 76.094 17.6689 76.3959 17.9994C76.7001 18.3258 77.053 18.54 77.4547 18.6418C77.8555 18.7404 78.2836 18.7243 78.7392 18.5934C79.0354 18.5083 79.2911 18.39 79.5062 18.2385C79.7236 18.083 79.8956 17.8956 80.0223 17.6764C80.1481 17.4541 80.2222 17.2017 80.2445 16.9194L81.4218 16.9122C81.4133 17.3147 81.314 17.695 81.1237 18.0531C80.9326 18.408 80.6604 18.7208 80.307 18.9913C79.9528 19.2586 79.5272 19.4636 79.0302 19.6064Z" fill="white"/>
<path d="M84.1816 20.577L82.1356 10.2782L83.2474 10.0574L83.4838 11.2472L83.6203 11.2201C83.679 11.0732 83.7631 10.8842 83.8726 10.6529C83.9847 10.4178 84.1663 10.1924 84.4175 9.97697C84.6713 9.75759 85.042 9.59946 85.5296 9.50259C86.1603 9.37729 86.7475 9.42452 87.2913 9.64427C87.835 9.86402 88.2993 10.2364 88.6841 10.7615C89.0689 11.2865 89.3394 11.9424 89.4957 12.7291C89.6533 13.5223 89.655 14.2367 89.5008 14.8722C89.3459 15.5044 89.0612 16.0273 88.6466 16.4408C88.2314 16.8511 87.7117 17.1183 87.0875 17.2423C86.6064 17.3378 86.2053 17.3347 85.8844 17.2329C85.5627 17.1279 85.3036 16.9884 85.1068 16.8146C84.9095 16.6376 84.755 16.4892 84.6433 16.3694L84.5458 16.3888L85.3324 20.3483L84.1816 20.577ZM84.0109 13.7985C84.1233 14.3641 84.3053 14.8467 84.557 15.2461C84.808 15.6423 85.1171 15.9306 85.4841 16.1111C85.8505 16.2884 86.2645 16.3312 86.7261 16.2395C87.2072 16.1439 87.5835 15.9374 87.855 15.6199C88.129 15.2984 88.3044 14.9054 88.381 14.4408C88.4603 13.9722 88.447 13.4714 88.341 12.9382C88.2364 12.4116 88.0609 11.9531 87.8143 11.5628C87.5705 11.1686 87.2614 10.8802 86.8872 10.6977C86.5157 10.5114 86.0861 10.4666 85.5985 10.5635C85.1303 10.6565 84.7606 10.8533 84.4891 11.1539C84.217 11.4513 84.0417 11.8274 83.9631 12.2823C83.8839 12.7339 83.8998 13.2393 84.0109 13.7985Z" fill="white"/>
<path d="M91.524 16.1411L90.2947 8.60435L91.4527 8.41547L92.682 15.9522L91.524 16.1411ZM90.6787 7.25218C90.4529 7.289 90.2458 7.24387 90.0571 7.1168C89.8718 6.9892 89.7615 6.81745 89.7263 6.60156C89.6911 6.38566 89.7411 6.18777 89.8763 6.00788C90.0147 5.82745 90.1968 5.71884 90.4226 5.68202C90.6483 5.64521 90.8538 5.6906 91.0392 5.8182C91.2278 5.94527 91.3397 6.11675 91.3749 6.33264C91.4102 6.54854 91.3585 6.7467 91.22 6.92712C91.0848 7.10701 90.9044 7.21537 90.6787 7.25218Z" fill="white"/>
<path d="M102.14 9.75597L102.207 10.8476L97.7612 11.1224L97.6937 10.0308L102.14 9.75597Z" fill="white"/>
<path d="M107.521 16.8975L108.129 6.4151L109.26 6.48067L109.19 7.6917L109.329 7.69976C109.423 7.57239 109.552 7.41054 109.716 7.21421C109.883 7.01476 110.116 6.84231 110.413 6.69686C110.714 6.54829 111.112 6.48838 111.609 6.51714C112.251 6.55433 112.807 6.74759 113.278 7.09693C113.749 7.44626 114.105 7.92337 114.346 8.52826C114.586 9.13314 114.683 9.83596 114.637 10.6367C114.59 11.4441 114.412 12.1359 114.103 12.7123C113.795 13.2854 113.388 13.7199 112.882 14.016C112.377 14.3088 111.807 14.4368 111.172 14.4C110.682 14.3716 110.295 14.2678 110.01 14.0886C109.725 13.9061 109.509 13.706 109.362 13.4884C109.216 13.2674 109.103 13.0849 109.026 12.941L108.926 12.9352L108.693 16.9654L107.521 16.8975ZM109.059 10.2936C109.026 10.8693 109.081 11.3821 109.224 11.832C109.368 12.2785 109.594 12.6353 109.904 12.9022C110.214 13.1659 110.604 13.3113 111.074 13.3385C111.564 13.3669 111.98 13.2615 112.322 13.0224C112.669 12.7802 112.937 12.4439 113.128 12.0134C113.322 11.5798 113.435 11.0916 113.467 10.549C113.498 10.0129 113.443 9.52506 113.303 9.08532C113.166 8.64247 112.939 8.28572 112.623 8.01508C112.31 7.74132 111.905 7.59006 111.409 7.5613C110.932 7.53369 110.525 7.63127 110.187 7.85402C109.849 8.07347 109.584 8.39348 109.394 8.81404C109.204 9.2313 109.092 9.72448 109.059 10.2936Z" fill="white"/>
<path d="M119.271 14.8016C118.588 14.7036 118.013 14.4553 117.544 14.0566C117.079 13.6584 116.744 13.1466 116.539 12.5212C116.338 11.8962 116.293 11.1933 116.405 10.4125C116.518 9.62513 116.759 8.95828 117.129 8.41197C117.502 7.86614 117.967 7.46754 118.526 7.21618C119.088 6.96529 119.71 6.8888 120.392 6.98672C121.074 7.08463 121.648 7.33271 122.113 7.73095C122.582 8.12965 122.917 8.64311 123.118 9.27133C123.322 9.90002 123.368 10.6081 123.255 11.3954C123.143 12.1763 122.901 12.838 122.528 13.3805C122.159 13.9235 121.694 14.3205 121.132 14.5714C120.574 14.8228 119.953 14.8995 119.271 14.8016ZM119.42 13.7583C119.939 13.8327 120.384 13.761 120.757 13.5432C121.13 13.3255 121.428 13.0117 121.651 12.6017C121.874 12.1917 122.021 11.734 122.094 11.2288C122.166 10.7236 122.153 10.2412 122.055 9.78182C121.957 9.32241 121.76 8.93418 121.464 8.61714C121.168 8.3001 120.761 8.10439 120.242 8.03001C119.724 7.95563 119.278 8.02894 118.905 8.24995C118.532 8.47096 118.233 8.7881 118.01 9.20138C117.787 9.61466 117.639 10.0739 117.566 10.5792C117.494 11.0844 117.507 11.5651 117.605 12.0212C117.704 12.4774 117.902 12.8623 118.198 13.1761C118.495 13.4898 118.902 13.6839 119.42 13.7583Z" fill="white"/>
<path d="M124.103 15.0746L125.734 7.61438L126.88 7.86493L126.171 11.1093L126.929 11.275L130.319 8.61656L131.796 8.9393L127.999 11.8752L130.204 16.408L128.727 16.0853L126.967 12.4029L125.938 12.1779L125.25 15.3252L124.103 15.0746Z" fill="white"/>
<path d="M130.969 16.5178L132.854 9.11781L133.991 9.40747L132.106 16.8075L130.969 16.5178ZM133.747 8.03176C133.525 7.9753 133.353 7.85114 133.231 7.65927C133.112 7.46822 133.08 7.26671 133.134 7.05473C133.188 6.84275 133.313 6.68133 133.508 6.57047C133.708 6.46043 133.918 6.43363 134.139 6.49009C134.361 6.54655 134.531 6.6703 134.65 6.86135C134.772 7.05322 134.806 7.25514 134.752 7.46712C134.698 7.6791 134.572 7.84011 134.373 7.95015C134.177 8.06102 133.968 8.08822 133.747 8.03176Z" fill="white"/>
<path d="M134.392 17.1246L136.831 9.88829L139.79 10.8856C140.569 11.1482 141.128 11.5326 141.468 12.0389C141.808 12.5453 141.881 13.0874 141.686 13.6653C141.538 14.105 141.292 14.4018 140.95 14.5558C140.609 14.7066 140.22 14.7556 139.783 14.7028C140.037 14.8305 140.265 15.012 140.465 15.2475C140.669 15.484 140.809 15.7622 140.887 16.0822C140.965 16.3989 140.941 16.7474 140.813 17.1274C140.688 17.498 140.482 17.7976 140.195 18.0262C139.908 18.2547 139.56 18.3945 139.151 18.4455C138.742 18.4966 138.293 18.4395 137.803 18.2743L134.392 17.1246ZM135.79 16.4627L138.146 17.2567C138.529 17.3859 138.859 17.3959 139.138 17.2868C139.416 17.1777 139.608 16.9661 139.714 16.652C139.84 16.2783 139.83 15.9481 139.685 15.6615C139.542 15.3717 139.278 15.1622 138.895 15.0331L136.54 14.2391L135.79 16.4627ZM136.864 13.278L138.767 13.9196C139.065 14.0201 139.335 14.0656 139.576 14.0559C139.818 14.0431 140.022 13.9788 140.187 13.863C140.356 13.7452 140.477 13.5795 140.549 13.3659C140.651 13.0612 140.604 12.7797 140.408 12.5212C140.213 12.2595 139.893 12.0535 139.447 11.9032L137.543 11.2616L136.864 13.278Z" fill="white"/>
<path d="M142.764 21.8571L144.176 18.8952L144.75 19.1691C144.961 19.0895 145.157 18.9887 145.34 18.8667C145.523 18.7446 145.708 18.5847 145.894 18.387C146.084 18.1878 146.287 17.9319 146.502 17.6195C146.719 17.3041 146.963 16.9156 147.234 16.4538L148.768 13.8365L153.148 15.9245L150.333 21.8304L151.392 22.3353L149.98 25.2972L148.921 24.7923L149.862 22.8177L144.764 20.3874L143.823 22.362L142.764 21.8571ZM145.953 19.7424L149.274 21.3255L151.619 16.407L149.285 15.2945L148.275 16.9502C147.857 17.6355 147.464 18.2211 147.096 18.7069C146.729 19.1926 146.348 19.5378 145.953 19.7424Z" fill="white"/>
<path d="M154.175 24.9602C153.579 24.614 153.139 24.1683 152.853 23.6232C152.571 23.0798 152.452 22.4797 152.496 21.8231C152.543 21.1681 152.765 20.4996 153.161 19.8174C153.56 19.1296 154.034 18.6016 154.581 18.2334C155.131 17.8669 155.712 17.6716 156.324 17.6476C156.939 17.6252 157.544 17.7872 158.141 18.1334C158.737 18.4797 159.176 18.9245 159.458 19.4679C159.743 20.013 159.862 20.6145 159.813 21.2724C159.767 21.9319 159.545 22.6055 159.145 23.2934C158.749 23.9755 158.276 24.4984 157.728 24.862C157.182 25.2273 156.602 25.4212 155.987 25.4435C155.375 25.4676 154.771 25.3065 154.175 24.9602ZM154.705 24.0488C155.157 24.3119 155.597 24.4122 156.025 24.3498C156.452 24.2875 156.846 24.108 157.206 23.8112C157.566 23.5145 157.874 23.1454 158.13 22.7041C158.387 22.2627 158.556 21.8106 158.637 21.3479C158.717 20.8851 158.68 20.4514 158.524 20.0466C158.368 19.6417 158.064 19.3078 157.611 19.0448C157.158 18.7818 156.718 18.6829 156.289 18.7481C155.86 18.8133 155.465 18.9957 155.103 19.2953C154.741 19.5949 154.432 19.9654 154.175 20.4068C153.919 20.8481 153.751 21.2987 153.672 21.7586C153.593 22.2185 153.632 22.6494 153.789 23.0514C153.947 23.4533 154.252 23.7858 154.705 24.0488Z" fill="white"/>
<path d="M160.63 28.6441C160.037 28.2422 159.622 27.7563 159.384 27.1863C159.146 26.6163 159.078 26.0076 159.181 25.3604C159.283 24.7131 159.549 24.074 159.976 23.4431C160.412 22.8013 160.914 22.3148 161.483 21.9838C162.056 21.652 162.65 21.4917 163.263 21.503C163.88 21.5135 164.475 21.7122 165.045 22.0991C165.489 22.4005 165.834 22.7544 166.079 23.1609C166.324 23.5673 166.46 23.9959 166.487 24.4465C166.513 24.8972 166.42 25.3386 166.207 25.7708L165.236 25.1122C165.357 24.774 165.366 24.4072 165.261 24.012C165.162 23.616 164.898 23.2728 164.47 22.9826C164.091 22.7258 163.692 22.5995 163.273 22.6035C162.859 22.6066 162.451 22.7325 162.05 22.9812C161.654 23.229 161.294 23.5915 160.97 24.0688C160.639 24.5571 160.427 25.0343 160.335 25.5006C160.246 25.9687 160.275 26.3987 160.421 26.7905C160.571 27.1843 160.838 27.5114 161.222 27.7718C161.474 27.943 161.733 28.0544 161.998 28.1062C162.263 28.158 162.523 28.1499 162.777 28.0821C163.032 28.0142 163.267 27.8856 163.484 27.6961L164.455 28.3547C164.147 28.6905 163.783 28.9345 163.364 29.0865C162.949 29.2376 162.505 29.2809 162.032 29.2165C161.564 29.1512 161.096 28.9604 160.63 28.6441Z" fill="white"/>
<path d="M164.192 30.5448L168.928 24.5546L171.377 26.491C172.022 27.0008 172.419 27.5514 172.569 28.1427C172.718 28.734 172.603 29.2688 172.225 29.7472C171.937 30.1112 171.607 30.308 171.232 30.3376C170.86 30.3645 170.478 30.2795 170.084 30.0825C170.28 30.2884 170.433 30.536 170.543 30.8252C170.655 31.1165 170.693 31.4259 170.658 31.7532C170.625 32.0779 170.485 32.3976 170.236 32.7122C169.993 33.019 169.698 33.2316 169.351 33.3501C169.004 33.4685 168.629 33.4828 168.227 33.393C167.825 33.3031 167.421 33.0979 167.016 32.7772L164.192 30.5448ZM165.732 30.3931L167.682 31.9348C167.999 32.1856 168.307 32.3065 168.605 32.2976C168.904 32.2886 169.156 32.1542 169.362 31.8942C169.606 31.5848 169.709 31.2708 169.669 30.9521C169.632 30.6309 169.454 30.3449 169.137 30.0941L167.187 28.5524L165.732 30.3931ZM167.816 27.7568L169.392 29.0025C169.639 29.1978 169.877 29.3315 170.107 29.4037C170.34 29.4733 170.553 29.4814 170.747 29.428C170.946 29.3741 171.116 29.2587 171.256 29.0819C171.455 28.8297 171.506 28.5489 171.408 28.2394C171.313 27.9273 171.081 27.6253 170.711 27.3334L169.136 26.0877L167.816 27.7568Z" fill="white"/>
<path d="M170.141 35.1835L175.093 29.3697L175.986 30.1304L171.035 35.9442L170.141 35.1835ZM176.372 28.7875C176.198 28.6393 176.098 28.4521 176.073 28.2261C176.05 28.0022 176.11 27.807 176.252 27.6404C176.394 27.4739 176.577 27.384 176.801 27.3706C177.029 27.3595 177.229 27.4281 177.403 27.5763C177.577 27.7246 177.676 27.9107 177.699 28.1346C177.724 28.3606 177.665 28.5569 177.524 28.7235C177.382 28.89 177.197 28.9789 176.97 28.99C176.745 29.0033 176.546 28.9358 176.372 28.7875Z" fill="white"/>
<path d="M170.735 38.0328L173.063 35.721L173.512 36.1727C173.737 36.1688 173.956 36.1403 174.17 36.0872C174.383 36.034 174.611 35.9458 174.852 35.8225C175.099 35.6991 175.376 35.5267 175.684 35.3052C175.994 35.0813 176.355 34.7979 176.766 34.4549L179.094 32.5087L182.512 35.9522L177.869 40.5617L178.696 41.3944L176.367 43.7061L175.54 42.8735L177.093 41.3323L173.114 37.3243L171.561 38.8655L170.735 38.0328ZM174.451 37.1182L177.042 39.7291L180.909 35.8902L179.088 34.0555L177.579 35.2734C176.954 35.7774 176.386 36.196 175.876 36.5293C175.367 36.8626 174.891 37.0589 174.451 37.1182Z" fill="white"/>
<path d="M177.043 45.0616C176.914 44.9106 176.811 44.7653 176.735 44.6254C176.656 44.4878 176.608 44.3866 176.592 44.3219L177.571 43.875C177.701 44.1388 177.845 44.3472 178.003 44.5003C178.16 44.6534 178.361 44.7369 178.604 44.7508C178.847 44.7694 179.162 44.7065 179.549 44.5622L180.145 44.3398L184.132 37.1984L184.961 38.1644L181.715 43.7265L181.766 43.7869L187.757 41.4245L188.586 42.3904L179.835 45.6276C179.44 45.7737 179.075 45.8492 178.738 45.854C178.399 45.861 178.089 45.7973 177.808 45.663C177.529 45.5312 177.274 45.3307 177.043 45.0616Z" fill="white"/>
<path d="M183.496 52.3542C183.383 52.1904 183.296 52.035 183.235 51.8879C183.171 51.7427 183.134 51.6371 183.125 51.5711L184.146 51.23C184.248 51.5061 184.369 51.7286 184.509 51.8974C184.65 52.0663 184.84 52.1704 185.081 52.21C185.32 52.2541 185.64 52.2249 186.041 52.1222L186.656 51.9638L191.375 45.2833L192.097 46.3314L188.282 51.5197L188.327 51.5852L194.534 49.8685L195.256 50.9166L186.212 53.2118C185.804 53.3155 185.433 53.3519 185.098 53.3212C184.76 53.2924 184.458 53.1963 184.193 53.0331C183.929 52.8725 183.697 52.6462 183.496 52.3542Z" fill="white"/>
<path d="M192.982 61.6207C192.643 60.99 192.5 60.3669 192.553 59.7515C192.606 59.136 192.828 58.5652 193.219 58.0392C193.61 57.5132 194.141 57.0697 194.813 56.709C195.496 56.3419 196.166 56.1435 196.824 56.1138C197.486 56.0855 198.086 56.2184 198.624 56.5125C199.166 56.808 199.601 57.2593 199.927 57.8666C200.181 58.3396 200.322 58.8129 200.351 59.2866C200.38 59.7603 200.302 60.203 200.117 60.6148C199.931 61.0265 199.644 61.3745 199.255 61.6588L198.7 60.6252C198.964 60.3817 199.142 60.0606 199.232 59.662C199.327 59.2648 199.253 58.8384 199.008 58.383C198.791 57.9801 198.496 57.6832 198.123 57.4925C197.754 57.3032 197.335 57.2258 196.864 57.2604C196.398 57.2963 195.911 57.4508 195.403 57.7237C194.883 58.0029 194.475 58.3278 194.177 58.6984C193.881 59.0719 193.707 59.4662 193.656 59.8815C193.606 60.2996 193.69 60.7131 193.91 61.1218C194.054 61.3904 194.232 61.6091 194.443 61.7779C194.654 61.9467 194.888 62.0599 195.145 62.1176C195.402 62.1753 195.67 62.1704 195.95 62.1029L196.505 63.1365C196.077 63.2914 195.641 63.339 195.199 63.2794C194.761 63.2211 194.348 63.0538 193.959 62.7775C193.574 62.5026 193.248 62.117 192.982 61.6207Z" fill="white"/>
<path d="M194.133 68.6351L205.91 63.6539L206.367 64.7345L194.59 69.7157L194.133 68.6351ZM196.386 67.6823C196.185 67.2061 196.087 66.7364 196.092 66.2734C196.101 65.8091 196.205 65.3694 196.404 64.9542C196.605 64.5378 196.897 64.1591 197.278 63.8179C197.659 63.4768 198.121 63.1913 198.665 62.9615C199.214 62.7291 199.744 62.595 200.254 62.5591C200.767 62.5219 201.244 62.576 201.683 62.7212C202.122 62.8665 202.51 63.0984 202.846 63.4168C203.186 63.7339 203.456 64.1306 203.657 64.6068L203.797 64.9365L196.525 68.0119L196.386 67.6823ZM197.357 67.2717L197.434 67.4548L202.764 65.2005L202.687 65.0174C202.534 64.6572 202.329 64.3753 202.07 64.1717C201.814 63.9668 201.524 63.8303 201.2 63.7621C200.881 63.6958 200.543 63.6876 200.186 63.7377C199.83 63.7909 199.476 63.8923 199.122 64.0421C198.652 64.241 198.247 64.5004 197.907 64.8204C197.567 65.1404 197.34 65.5084 197.224 65.9243C197.109 66.3402 197.153 66.7894 197.357 67.2717ZM196.843 68.7629L196.704 68.4332L203.975 65.3577L204.114 65.6874C204.316 66.1636 204.412 66.6339 204.403 67.0982C204.398 67.5612 204.294 68.0009 204.092 68.4173C203.89 68.8337 203.598 69.2132 203.213 69.5556C202.832 69.8967 202.367 70.1835 201.817 70.4159C201.274 70.6457 200.747 70.7786 200.237 70.8144C199.727 70.8503 199.252 70.7956 198.813 70.6503C198.377 70.5038 197.989 70.2719 197.65 69.9548C197.313 69.6364 197.045 69.2391 196.843 68.7629ZM197.814 68.3523C197.967 68.7155 198.17 68.9987 198.421 69.2019C198.677 69.4068 198.965 69.5424 199.285 69.6087C199.608 69.6769 199.947 69.685 200.299 69.6331C200.656 69.583 201.009 69.4838 201.36 69.3353C201.831 69.1364 202.237 68.8764 202.58 68.5551C202.922 68.2338 203.153 67.8645 203.272 67.4473C203.39 67.0301 203.348 66.5803 203.144 66.098L203.066 65.9148L197.736 68.1691L197.814 68.3523Z" fill="white"/>
<path d="M199.938 75.9093C199.708 75.2103 199.664 74.5566 199.806 73.9483C199.952 73.342 200.259 72.8103 200.726 72.3532C201.198 71.8982 201.805 71.5486 202.548 71.3043C203.291 71.06 203.99 70.9801 204.646 71.0646C205.306 71.1512 205.875 71.3863 206.354 71.7698C206.836 72.1554 207.185 72.6757 207.401 73.3306C207.525 73.7084 207.585 74.1022 207.58 74.512C207.575 74.9218 207.48 75.3244 207.296 75.7199C207.116 76.1142 206.823 76.4772 206.419 76.8089C206.015 77.1405 205.475 77.4175 204.798 77.6401L204.326 77.7953L202.488 72.2033L203.451 71.8866L204.917 76.3451C205.326 76.2105 205.664 76.0086 205.932 75.7393C206.2 75.4732 206.378 75.16 206.465 74.7998C206.554 74.4428 206.532 74.0627 206.399 73.6597C206.253 73.2158 206.017 72.8679 205.69 72.616C205.367 72.3662 205.003 72.2122 204.596 72.1539C204.19 72.0956 203.787 72.1322 203.387 72.2637L202.744 72.4748C202.196 72.6549 201.763 72.902 201.444 73.2162C201.129 73.5324 200.929 73.8932 200.842 74.2985C200.759 74.7027 200.791 75.1299 200.939 75.5802C201.035 75.873 201.163 76.124 201.323 76.3333C201.486 76.5446 201.68 76.7095 201.904 76.8278C202.131 76.9451 202.386 77.0095 202.669 77.0212L202.72 78.1974C202.318 78.2041 201.934 78.1192 201.569 77.9426C201.207 77.765 200.884 77.5048 200.601 77.162C200.32 76.8181 200.099 76.4005 199.938 75.9093Z" fill="white"/>
<path d="M198.971 80.525L209.175 78.049L209.442 79.1506L208.263 79.4366L208.296 79.5719C208.445 79.6244 208.637 79.7005 208.873 79.8002C209.113 79.9024 209.345 80.0744 209.571 80.3163C209.801 80.5607 209.975 80.9244 210.092 81.4076C210.243 82.0324 210.221 82.6211 210.024 83.1736C209.827 83.7261 209.475 84.2056 208.966 84.6121C208.458 85.0185 207.814 85.3163 207.034 85.5054C206.248 85.6961 205.535 85.7278 204.893 85.6003C204.255 85.4721 203.721 85.2096 203.29 84.8127C202.863 84.415 202.574 83.907 202.424 83.2886C202.309 82.8119 202.295 82.411 202.383 82.0861C202.475 81.7603 202.603 81.4955 202.768 81.2917C202.937 81.0871 203.079 80.9265 203.194 80.8099L203.17 80.7133L199.247 81.6652L198.971 80.525ZM205.736 80.0703C205.176 80.2063 204.701 80.4084 204.313 80.6766C203.927 80.944 203.652 81.2649 203.487 81.6391C203.325 82.0126 203.3 82.428 203.411 82.8854C203.527 83.3621 203.749 83.7294 204.077 83.9873C204.41 84.2477 204.81 84.4064 205.277 84.4635C205.749 84.523 206.249 84.4887 206.777 84.3606C207.299 84.2339 207.75 84.0393 208.129 83.7767C208.513 83.5165 208.788 83.1956 208.955 82.8141C209.125 82.4351 209.152 82.004 209.035 81.5208C208.922 81.057 208.71 80.6958 208.398 80.4372C208.09 80.1778 207.707 80.0184 207.249 79.959C206.794 79.8987 206.29 79.9358 205.736 80.0703Z" fill="white"/>
<path d="M203.842 88.2741L211.327 86.7575L211.56 87.9074L204.075 89.424L203.842 88.2741ZM212.692 87.0894C212.647 86.8653 212.684 86.6565 212.804 86.4632C212.924 86.2731 213.092 86.1563 213.306 86.1128C213.52 86.0694 213.72 86.1118 213.905 86.24C214.091 86.3715 214.206 86.5493 214.252 86.7735C214.297 86.9976 214.259 87.2047 214.139 87.3948C214.019 87.5882 213.852 87.7066 213.638 87.75C213.423 87.7935 213.223 87.7495 213.038 87.618C212.853 87.4897 212.738 87.3136 212.692 87.0894Z" fill="white"/>
<path d="M210.587 98.5613L209.499 98.6707L209.053 94.2385L210.142 94.1291L210.587 98.5613Z" fill="white"/>
</svg>
