<svg width="440" height="105" viewBox="0 0 440 105" fill="none" xmlns="http://www.w3.org/2000/svg">
<path d="M128.404 50.0954C126.139 49.9658 124.116 50.2411 122.334 50.9212C120.582 51.6013 119.087 52.5243 117.849 53.6902C116.641 54.8237 115.705 56.0705 115.04 57.4307C114.406 58.7909 114.089 60.1025 114.089 61.3656C114.089 62.5638 114.346 63.5516 114.859 64.3288C115.373 65.0737 116.037 65.6243 116.852 65.9805C117.698 66.3367 118.559 66.5149 119.435 66.5149C120.522 66.5149 121.473 66.272 122.289 65.7862C123.104 65.3004 123.783 64.7175 124.327 64.0374C124.901 63.3249 125.324 62.661 125.595 62.0457C125.897 61.3979 126.048 60.9284 126.048 60.6369V60.5883C126.199 60.394 126.35 60.2968 126.501 60.2968C126.803 60.2968 126.954 60.5235 126.954 60.9769C126.803 62.3695 126.335 63.584 125.55 64.6203C124.795 65.6566 123.874 66.4501 122.787 67.0006C121.7 67.5512 120.552 67.8265 119.344 67.8265C118.106 67.8265 116.913 67.5026 115.765 66.8549C114.618 66.2072 113.682 65.268 112.957 64.0374C112.232 62.8067 111.869 61.317 111.869 59.5682C111.869 58.1432 112.156 56.7344 112.73 55.3419C113.334 53.9169 114.225 52.6215 115.403 51.4556C116.611 50.2573 118.136 49.3019 119.978 48.5895C121.82 47.877 123.995 47.5207 126.501 47.5207C128.615 47.5207 130.533 47.7312 132.255 48.1523C134.006 48.5409 135.667 49.0429 137.238 49.6582C138.838 50.2735 140.439 50.8888 142.039 51.5042C142.553 50.7917 143.172 50.063 143.897 49.3181C144.652 48.5733 145.422 48.2008 146.207 48.2008C146.811 48.2008 147.113 48.3951 147.113 48.7838C147.113 49.1724 146.901 49.3667 146.479 49.3667C145.935 49.3667 145.361 49.6744 144.757 50.2897C144.153 50.8726 143.67 51.4232 143.308 51.9414L143.398 51.9899C144.939 52.5081 146.569 53.0101 148.291 53.4959C150.042 53.9493 151.779 54.3217 153.5 54.6132C155.222 54.8723 156.807 55.0018 158.257 55.0018C159.616 55.0018 160.582 54.8884 161.156 54.6617C161.76 54.4351 162.062 54.0626 162.062 53.5444C162.062 53.0587 162.183 52.8158 162.424 52.8158C162.666 52.8158 162.817 52.9615 162.877 53.253C162.968 53.5121 163.013 53.7226 163.013 53.8845C163.013 54.6618 162.575 55.2933 161.7 55.7791C160.824 56.2648 159.465 56.5077 157.623 56.5077C156.837 56.5077 155.841 56.4268 154.633 56.2648C153.425 56.0705 152.111 55.8114 150.692 55.4876C149.302 55.1637 147.913 54.7913 146.524 54.3703C145.165 53.9493 143.912 53.5121 142.764 53.0587C142.734 53.0587 142.704 53.0425 142.673 53.0101C142.311 53.6902 142.009 54.3055 141.768 54.8561C141.526 55.3742 141.254 56.0705 140.952 56.9449C140.409 58.4671 139.865 60.0378 139.321 61.657C138.808 63.2439 138.325 64.7175 137.872 66.0777C137.419 67.4055 137.056 68.4904 136.785 69.3324C135.879 72.1823 134.67 74.9513 133.16 77.6393C131.65 80.3273 129.869 82.7562 127.815 84.926C125.761 87.0959 123.436 88.8123 120.839 90.0753C118.242 91.3708 115.388 92.0185 112.277 92.0185C110.526 92.0185 108.744 91.7918 106.932 91.3384C105.15 90.9174 103.504 90.2049 101.994 89.2009C100.514 88.197 99.3214 86.8368 98.4154 85.1204C97.5094 83.4363 97.0564 81.3312 97.0564 78.8052C97.0564 76.9916 97.3433 75.2913 97.9171 73.7045C98.4909 72.1176 99.2459 70.8383 100.182 69.8668C101.118 68.8628 102.115 68.3608 103.172 68.3608C103.534 68.3608 103.715 68.458 103.715 68.6523C103.715 68.8466 103.519 69.0085 103.127 69.1381C102.372 69.3324 101.632 69.8344 100.907 70.644C100.212 71.4213 99.6385 72.4576 99.1855 73.753C98.7325 75.0484 98.506 76.5868 98.506 78.368C98.506 80.5054 98.9137 82.2542 99.7291 83.6144C100.575 84.9746 101.647 86.0433 102.945 86.8206C104.244 87.5978 105.588 88.1322 106.977 88.4237C108.396 88.7475 109.695 88.9095 110.873 88.9095C113.832 88.9095 116.55 88.3427 119.027 87.2092C121.533 86.1081 123.798 84.5698 125.822 82.5943C127.845 80.6188 129.627 78.3518 131.167 75.7933C132.707 73.2025 134.021 70.4335 135.108 67.4864C135.712 65.8672 136.392 64.1183 137.147 62.24C137.902 60.3292 138.627 58.5318 139.321 56.8478C140.167 54.9046 140.862 53.4635 141.405 52.5243C139.835 51.9738 138.008 51.4718 135.924 51.0184C133.87 50.565 131.364 50.2573 128.404 50.0954ZM145.256 61.657C146.222 59.4224 147.143 58.1108 148.019 57.7222C149.106 57.3012 149.861 57.0907 150.284 57.0907C150.435 57.0907 150.51 57.1231 150.51 57.1878C150.51 57.285 150.329 57.4469 149.967 57.6736C149.755 57.7708 149.393 58.2242 148.88 59.0338C148.396 59.8434 147.853 60.9445 147.249 62.3371C146.856 63.2763 146.403 64.4746 145.89 65.9319C145.376 67.3893 144.848 68.9762 144.304 70.6926C143.761 72.409 143.232 74.1255 142.719 75.8419C142.236 77.5583 141.798 79.1614 141.405 80.6511C141.043 82.1409 140.786 83.3715 140.635 84.3431C140.575 84.8289 140.363 85.1851 140.001 85.4118C139.669 85.6385 139.276 85.7519 138.823 85.7519C138.43 85.7519 138.083 85.6547 137.781 85.4604C137.479 85.2985 137.373 85.0394 137.464 84.6832C137.736 83.5497 138.098 82.2057 138.551 80.6511C139.034 79.0643 139.563 77.3964 140.137 75.6476C140.711 73.8664 141.299 72.1014 141.903 70.3526C142.538 68.6037 143.142 66.9845 143.715 65.4947C144.289 63.9726 144.803 62.6934 145.256 61.657ZM147.294 80.894C147.294 79.9549 147.385 78.9833 147.566 77.9793C147.777 76.943 147.989 75.9714 148.2 75.0646C148.683 73.1863 149.348 71.146 150.193 68.9438C151.039 66.7092 151.9 64.6041 152.775 62.6286C153.289 61.4951 153.832 60.6045 154.406 59.9568C154.98 59.2767 155.478 58.8557 155.901 58.6938C157.109 58.2727 157.94 58.0622 158.393 58.0622C158.574 58.0622 158.664 58.0946 158.664 58.1594C158.664 58.2565 158.453 58.4185 158.03 58.6452C157.819 58.7423 157.426 59.1957 156.852 60.0054C156.309 60.815 155.69 61.9161 154.995 63.3087C154.059 65.1871 153.244 67.1788 152.549 69.2838C151.854 71.3565 151.296 73.3482 150.873 75.259C150.752 75.9067 150.586 76.7487 150.374 77.785C150.193 78.789 150.103 79.7606 150.103 80.6997C150.103 81.5418 150.223 82.2704 150.465 82.8858C150.707 83.5011 151.16 83.8087 151.824 83.8087C152.549 83.8087 153.259 83.4849 153.953 82.8372C154.648 82.1895 155.297 81.3798 155.901 80.4083C156.535 79.4043 157.109 78.3518 157.623 77.2507C158.136 76.1496 158.574 75.1456 158.936 74.2388C159.299 74.2388 159.48 74.3845 159.48 74.676C159.057 75.7447 158.574 76.9106 158.03 78.1737C157.487 79.4043 156.867 80.5864 156.173 81.7199C155.478 82.821 154.693 83.7116 153.817 84.3917C152.941 85.1042 151.96 85.4604 150.873 85.4604C149.484 85.4604 148.532 85.007 148.019 84.1002C147.536 83.2258 147.294 82.1571 147.294 80.894ZM162.19 83.8087C161.073 83.8087 160.061 83.4201 159.155 82.6429C158.279 81.8656 157.841 80.6835 157.841 79.0966C157.841 77.7688 158.113 76.3601 158.657 74.8703C159.231 73.3806 159.971 71.988 160.877 70.6926C161.813 69.3648 162.84 68.2961 163.957 67.4864C165.105 66.6444 166.252 66.2234 167.4 66.2234C167.974 66.2234 168.532 66.4015 169.076 66.7578C169.619 67.114 169.891 67.7293 169.891 68.6037C169.891 69.4134 169.604 70.304 169.031 71.2755C168.457 72.2471 167.641 73.1539 166.584 73.9959C166.131 74.3522 165.558 74.6922 164.863 75.0161C164.168 75.3399 163.474 75.6152 162.779 75.8419C162.085 76.0362 161.511 76.1334 161.058 76.1334C160.907 76.522 160.756 77.0402 160.605 77.6879C160.484 78.3356 160.424 78.9995 160.424 79.6796C160.424 80.4892 160.575 81.2179 160.877 81.8656C161.179 82.5133 161.737 82.8372 162.553 82.8372C163.549 82.8372 164.47 82.5295 165.316 81.9142C166.192 81.2989 166.962 80.5216 167.626 79.5824C168.321 78.6432 168.91 77.6879 169.393 76.7163C169.876 75.7447 170.254 74.9189 170.525 74.2388C170.888 74.2388 171.069 74.3845 171.069 74.676C170.676 75.5828 170.223 76.5706 169.71 77.6393C169.227 78.708 168.638 79.712 167.943 80.6511C167.279 81.5579 166.464 82.319 165.497 82.9343C164.561 83.5173 163.459 83.8087 162.19 83.8087ZM161.375 75.259C161.798 75.259 162.507 75.097 163.504 74.7732C164.501 74.4169 165.407 73.8664 166.222 73.1215C167.007 72.3766 167.611 71.567 168.034 70.6926C168.457 69.7858 168.668 69.0247 168.668 68.4094C168.668 67.6969 168.427 67.3407 167.943 67.3407C167.581 67.3407 167.083 67.5998 166.448 68.1179C165.814 68.6361 165.029 69.5105 164.093 70.7412C163.519 71.5184 162.975 72.3605 162.462 73.2672C161.949 74.174 161.586 74.8379 161.375 75.259ZM179.76 61.7056C180.545 61.7056 181.542 61.819 182.75 62.0457C183.988 62.2724 185.105 62.3857 186.102 62.3857C186.736 62.3857 187.446 62.3533 188.231 62.2885C189.047 62.1914 189.817 61.9809 190.541 61.657C191.296 61.3008 191.87 60.734 192.263 59.9568C192.565 59.9568 192.716 60.0701 192.716 60.2968C192.142 61.7542 191.357 62.8229 190.36 63.503C189.364 64.1831 187.808 64.5232 185.694 64.5232C184.939 64.5232 184.139 64.4098 183.293 64.1831C182.478 63.9564 181.648 63.7297 180.802 63.503C179.987 63.2763 179.216 63.163 178.492 63.163C177.888 63.163 177.329 63.2763 176.816 63.503C176.302 63.6973 175.879 64.1021 175.547 64.7175L175.411 64.9604C175.321 65.0899 175.245 65.1547 175.185 65.1547C175.124 65.1547 175.064 65.1061 175.004 65.0089C174.943 64.9118 174.928 64.7984 174.958 64.6689C175.29 63.7621 175.894 63.0496 176.77 62.5314C177.646 61.9809 178.643 61.7056 179.76 61.7056ZM166.125 83.8573C167.242 81.5579 168.299 79.2586 169.296 76.9592C170.292 74.6274 171.304 72.4252 172.331 70.3526C172.935 69.1867 173.433 68.377 173.826 67.9236C174.249 67.4379 174.807 67.195 175.502 67.195C175.743 67.195 176 67.2435 176.272 67.3407C176.544 67.4055 176.816 67.4378 177.087 67.4378C177.269 67.4378 177.404 67.4217 177.495 67.3893C177.072 67.6484 176.529 68.2961 175.864 69.3324C175.2 70.3364 174.52 71.5022 173.826 72.83C173.131 74.1579 172.512 75.4047 171.968 76.5706C172.542 75.8257 173.131 75.0808 173.735 74.336C174.369 73.5911 175.064 72.8786 175.819 72.1985C176.483 71.5832 177.178 70.9193 177.903 70.2068C178.658 69.4619 179.398 68.8304 180.122 68.3123C180.847 67.7941 181.481 67.535 182.025 67.535C182.236 67.535 182.372 67.5512 182.433 67.5836C183.007 67.8427 183.293 68.2637 183.293 68.8466C183.293 69.0409 183.218 69.3324 183.067 69.721C182.674 70.8221 182.161 71.9556 181.527 73.1215C180.923 74.255 180.349 75.4047 179.805 76.5706C180.258 75.9876 180.817 75.2752 181.481 74.4331C182.176 73.5911 182.871 72.8462 183.565 72.1985C184.23 71.5508 185.075 70.8707 186.102 70.1582C187.129 69.4458 188.141 68.8304 189.137 68.3123C190.134 67.7941 190.934 67.535 191.538 67.535C191.749 67.535 191.9 67.5512 191.991 67.5836C191.991 67.5836 191.825 67.9074 191.493 68.5552C191.161 69.1705 190.738 69.9963 190.224 71.0326C189.741 72.0366 189.243 73.1215 188.729 74.2874C188.216 75.4209 187.748 76.522 187.325 77.5907C186.933 78.6271 186.676 79.5015 186.555 80.2139C186.464 80.635 186.419 81.0236 186.419 81.3798C186.419 81.898 186.51 82.238 186.691 82.4C186.872 82.5619 187.068 82.6429 187.28 82.6429C188.035 82.6429 188.79 82.2057 189.545 81.3313C190.33 80.4245 191.055 79.3719 191.719 78.1737C192.082 78.1737 192.263 78.368 192.263 78.7566C191.568 80.052 190.738 81.2179 189.771 82.2542C188.835 83.2906 187.793 83.8087 186.646 83.8087C186.011 83.8087 185.407 83.582 184.834 83.1286C184.29 82.6752 184.018 81.8332 184.018 80.6026C184.018 79.2748 184.305 77.947 184.879 76.6191C185.483 75.2913 186.102 74.0769 186.736 72.9758C187.038 72.4252 187.189 71.988 187.189 71.6642C187.189 71.2755 187.008 71.0812 186.646 71.0812C186.344 71.0812 185.921 71.2432 185.377 71.567C184.864 71.8909 184.215 72.4576 183.429 73.2672C182.946 73.753 182.372 74.4331 181.708 75.3075C181.074 76.1496 180.424 77.0725 179.76 78.0765C179.096 79.0805 178.522 80.0682 178.039 81.0398C177.555 82.0113 177.238 82.8696 177.087 83.6144C176.634 83.6144 176.272 83.4201 176 83.0315C175.728 82.6105 175.592 82.1247 175.592 81.5741C175.592 81.477 175.592 81.3798 175.592 81.2827C175.592 81.1855 175.608 81.0722 175.638 80.9426C175.789 79.9387 176.03 79.0966 176.363 78.4165C176.695 77.7041 177.072 76.8782 177.495 75.9391C177.706 75.518 177.948 75.0323 178.22 74.4817C178.492 73.8988 178.733 73.3482 178.945 72.83C179.156 72.2795 179.262 71.8261 179.262 71.4698C179.262 71.146 179.141 70.9841 178.899 70.9841C178.628 70.9841 178.265 71.1298 177.812 71.4213C177.389 71.7127 176.982 72.0528 176.589 72.4414C176.196 72.7977 175.894 73.0729 175.683 73.2672C174.928 74.0445 174.007 75.1618 172.92 76.6191C171.863 78.0765 170.7 80.1492 169.432 82.8372C169.25 83.1934 169.039 83.4201 168.797 83.5173C168.556 83.582 168.178 83.6144 167.665 83.6144C167.333 83.6144 167.061 83.6144 166.85 83.6144C166.608 83.6468 166.366 83.7278 166.125 83.8573ZM193.748 82.8858C194.262 82.8858 194.896 82.5781 195.651 81.9628C196.436 81.3151 197.252 80.5054 198.097 79.5339C198.943 78.5299 199.728 77.4774 200.453 76.3763C200.09 76.4734 199.713 76.522 199.32 76.522C198.233 76.522 197.433 76.2143 196.919 75.599C196.436 74.9837 196.195 74.2226 196.195 73.3158C196.195 72.3443 196.451 71.3403 196.965 70.304C197.478 69.2352 198.188 68.3446 199.094 67.6322C200.03 66.9197 201.072 66.5634 202.219 66.5634C203.729 66.5634 204.635 67.2597 204.937 68.6523C205.028 68.3932 205.134 68.1503 205.255 67.9236C205.436 67.535 205.677 67.2759 205.979 67.1464C206.281 66.9844 206.644 66.9035 207.067 66.9035H209.513C209.241 67.1302 208.728 67.6645 207.973 68.5066C207.248 69.3162 206.402 70.7736 205.436 72.8786C205.104 73.5911 204.741 74.4331 204.349 75.4047C203.956 76.3763 203.624 77.364 203.352 78.368C203.08 79.3719 202.944 80.2625 202.944 81.0398C202.944 82.1085 203.292 82.6429 203.986 82.6429C204.56 82.6429 205.134 82.3676 205.708 81.817C206.312 81.2341 206.885 80.5054 207.429 79.631C208.003 78.7566 208.531 77.8498 209.014 76.9106C209.498 75.9391 209.89 75.0485 210.192 74.2388C210.555 74.2388 210.736 74.3845 210.736 74.676C210.404 75.518 209.981 76.4734 209.467 77.5421C208.984 78.6109 208.41 79.6472 207.746 80.6511C207.082 81.6227 206.342 82.4324 205.526 83.0801C204.741 83.6954 203.865 84.0031 202.899 84.0031C202.053 84.0031 201.449 83.744 201.087 83.2258C200.755 82.7076 200.589 82.0275 200.589 81.1855C200.589 80.3759 200.709 79.5015 200.951 78.5623C201.193 77.6231 201.48 76.7001 201.812 75.7933V75.8419C200.906 77.1697 199.97 78.4489 199.003 79.6796C198.037 80.9102 197.055 81.9304 196.059 82.74C195.062 83.5497 194.111 83.9545 193.205 83.9545C192.329 83.9545 191.649 83.6792 191.166 83.1286C190.683 82.5781 190.441 81.8818 190.441 81.0398C190.441 80.3921 190.592 79.7767 190.894 79.1938C191.196 78.6109 191.574 78.1251 192.027 77.7365C192.48 77.3478 192.948 77.1535 193.431 77.1535C193.643 77.1535 193.839 77.1859 194.02 77.2507C194.232 77.3154 194.428 77.4288 194.609 77.5907C194.035 78.1089 193.597 78.7404 193.295 79.4853C192.993 80.2301 192.842 80.8778 192.842 81.4284C192.842 81.817 192.903 82.1571 193.024 82.4485C193.175 82.74 193.416 82.8858 193.748 82.8858ZM199.773 75.7933C200.528 75.7933 201.193 75.4695 201.766 74.8217C202.34 74.1417 202.793 73.3158 203.125 72.3443C203.488 71.3403 203.669 70.3849 203.669 69.4781C203.669 68.0856 203.276 67.3893 202.491 67.3893C202.008 67.3893 201.525 67.616 201.042 68.0694C200.558 68.4904 200.105 69.0571 199.683 69.7696C199.26 70.4497 198.913 71.1622 198.641 71.9071C198.399 72.6519 198.278 73.332 198.278 73.9473C198.278 74.4655 198.384 74.9027 198.595 75.259C198.837 75.6152 199.23 75.7933 199.773 75.7933ZM209.883 82.8858C209.852 83.2096 209.671 83.4363 209.339 83.5659C209.037 83.663 208.735 83.7116 208.433 83.7116C207.95 83.7116 207.587 83.7925 207.345 83.9545C207.345 83.3068 207.511 82.4 207.844 81.2341C208.176 80.0358 208.569 78.7566 209.022 77.3964C209.505 76.0038 209.988 74.7084 210.472 73.5101C210.985 72.2795 211.408 71.3241 211.74 70.644C212.465 69.2191 213.069 68.3123 213.551 67.9236C214.065 67.535 214.654 67.3407 215.319 67.3407C215.923 67.3407 216.345 67.3731 216.587 67.4378C216.859 67.4702 217.055 67.4864 217.176 67.4864C216.512 67.8751 215.726 68.7818 214.82 70.2068C213.945 71.6318 213.114 73.2187 212.329 74.9675C212.57 74.7084 212.842 74.4979 213.144 74.336C213.476 74.174 213.854 74.0931 214.277 74.0931C214.851 74.0931 215.349 74.2064 215.772 74.4331C216.194 74.6274 216.783 74.7246 217.538 74.7246C218.112 74.7246 218.49 74.5303 218.671 74.1417C219.154 72.9758 219.652 71.8423 220.166 70.7412C220.679 69.6077 221.102 68.6685 221.434 67.9236C221.615 67.5026 221.857 67.2273 222.159 67.0978C222.491 66.9683 222.854 66.9035 223.246 66.9035H225.692C225.179 67.3569 224.741 67.7779 224.379 68.1665C224.046 68.5228 223.714 68.96 223.382 69.4781C223.08 69.9963 222.687 70.7412 222.204 71.7127C221.812 72.5224 221.344 73.5749 220.8 74.8703C220.256 76.1658 219.849 77.3154 219.577 78.3194C219.456 78.6756 219.35 79.0966 219.26 79.5824C219.199 80.0682 219.169 80.5216 219.169 80.9426C219.169 81.4608 219.245 81.898 219.396 82.2542C219.547 82.6105 219.803 82.7886 220.166 82.7886C220.74 82.7886 221.328 82.5295 221.932 82.0113C222.536 81.4608 223.125 80.7645 223.699 79.9225C224.273 79.0481 224.801 78.1089 225.285 77.1049C225.798 76.101 226.236 75.1456 226.598 74.2388C226.84 74.2388 226.991 74.2712 227.051 74.336C227.112 74.4007 227.142 74.5141 227.142 74.676C226.78 75.6476 226.327 76.6839 225.783 77.785C225.27 78.8538 224.666 79.8577 223.971 80.7969C223.307 81.7361 222.567 82.5133 221.751 83.1286C220.966 83.7116 220.12 84.0031 219.214 84.0031C218.308 84.0031 217.659 83.7116 217.267 83.1286C216.904 82.5457 216.723 81.817 216.723 80.9426C216.723 80.4892 216.768 80.0034 216.859 79.4853C216.98 78.9671 217.116 78.4489 217.267 77.9308C217.387 77.5421 217.523 77.1373 217.674 76.7163C217.825 76.2629 217.991 75.8257 218.173 75.4047C217.991 75.6638 217.765 75.8743 217.493 76.0362C217.221 76.1658 216.874 76.2305 216.451 76.2305C216.028 76.2305 215.681 76.1658 215.409 76.0362C215.137 75.9067 214.851 75.7771 214.549 75.6476C214.247 75.518 213.854 75.4533 213.371 75.4533C213.069 75.4533 212.752 75.518 212.419 75.6476C212.117 75.7771 211.876 76.0686 211.695 76.522C211.242 77.6555 210.849 78.7728 210.517 79.8739C210.215 80.975 210.003 81.979 209.883 82.8858ZM227.927 83.6144C227.594 83.6144 227.187 83.5335 226.704 83.3715C226.251 83.2096 225.843 82.9181 225.48 82.4971C225.148 82.0437 224.982 81.3798 224.982 80.5054C224.982 79.6634 225.239 78.6918 225.752 77.5907C226.266 76.4896 226.719 75.518 227.111 74.676C226.779 74.676 226.613 74.5303 226.613 74.2388C226.643 74.1417 226.779 73.834 227.021 73.3158C227.262 72.7977 227.549 72.1823 227.881 71.4698C228.214 70.7574 228.531 70.0773 228.833 69.4296C229.165 68.7495 229.422 68.2313 229.603 67.8751C229.965 67.1626 230.539 66.8063 231.324 66.8063H234.133C233.619 67.2273 233.151 67.6969 232.728 68.2151C232.336 68.7009 231.838 69.6077 231.234 70.9355C231.234 70.9355 231.128 71.1622 230.916 71.6156C230.705 72.069 230.433 72.6519 230.101 73.3644C229.799 74.0445 229.482 74.7408 229.15 75.4533C228.848 76.1657 228.591 76.7649 228.38 77.2507C227.987 78.1575 227.73 78.8861 227.61 79.4367C227.489 79.9549 227.428 80.4406 227.428 80.894C227.428 81.9628 227.761 82.4971 228.425 82.4971C229.15 82.4971 230.026 81.8656 231.052 80.6026C231.898 79.5339 232.728 78.2546 233.544 76.7649C234.359 75.2752 235.129 73.7368 235.854 72.1499C236.609 70.5631 237.274 69.1381 237.847 67.8751C238.18 67.1626 238.768 66.8063 239.614 66.8063H242.106C241.441 67.3893 240.762 68.2637 240.067 69.4296C239.403 70.5954 238.663 72.0852 237.847 73.8988C237.636 74.3845 237.364 74.9999 237.032 75.7447C236.7 76.4896 236.398 77.2831 236.126 78.1251C235.884 78.9671 235.764 79.8091 235.764 80.6511C235.764 81.7846 236.141 82.3514 236.896 82.3514C237.923 82.3514 238.919 81.5903 239.886 80.0682C240.852 78.5461 241.804 76.603 242.74 74.2388C242.981 74.2388 243.117 74.255 243.147 74.2874C243.208 74.3198 243.253 74.4493 243.283 74.676C242.951 75.5504 242.543 76.5058 242.06 77.5421C241.607 78.5461 241.079 79.5177 240.475 80.4568C239.901 81.396 239.252 82.1571 238.527 82.74C237.832 83.323 237.062 83.6144 236.217 83.6144C235.462 83.6144 234.842 83.323 234.359 82.74C233.876 82.1247 233.634 81.2665 233.634 80.1654C233.634 79.291 233.786 78.3518 234.088 77.3478C233.574 78.3194 232.985 79.291 232.321 80.2625C231.656 81.2341 230.947 82.0437 230.192 82.6914C229.437 83.3068 228.682 83.6144 227.927 83.6144ZM300.468 86.2862C298.474 86.2862 296.783 85.8328 295.394 84.926C294.035 84.0192 292.933 82.8372 292.087 81.3798C291.272 79.8901 290.683 78.3032 290.32 76.6191C289.958 74.9027 289.777 73.2511 289.777 71.6642C289.777 70.6278 289.882 70.0449 290.094 69.9153C290.668 69.9801 291.619 69.721 292.948 69.1381C294.307 68.5551 295.907 67.6969 297.75 66.5634C299.622 65.4299 301.63 64.0698 303.774 62.4829C305.949 60.8636 308.123 59.05 310.298 57.0421C312.502 55.0342 314.616 52.8644 316.64 50.5326C318.663 48.2008 320.445 45.7557 321.985 43.1973C322.196 42.841 322.363 42.5819 322.483 42.42C322.604 42.2581 322.725 42.1771 322.846 42.1771C322.997 42.1771 323.133 42.2581 323.253 42.42C323.374 42.5496 323.435 42.6953 323.435 42.8572C323.435 43.1163 323.329 43.424 323.118 43.7802C321.668 46.3711 319.947 48.9133 317.953 51.407C315.99 53.8683 313.891 56.1839 311.657 58.3537C309.422 60.5235 307.172 62.4829 304.907 64.2317C302.642 65.9805 300.483 67.4378 298.429 68.6037C296.375 69.7696 294.563 70.5631 292.993 70.9841C292.902 70.9193 292.857 71.0812 292.857 71.4698C292.857 72.2795 292.948 73.2349 293.129 74.336C293.34 75.4371 293.657 76.5544 294.08 77.6879C294.533 78.8214 295.092 79.8901 295.756 80.894C296.451 81.8656 297.266 82.6591 298.203 83.2744C299.169 83.8897 300.286 84.1974 301.555 84.1974C302.612 84.1974 303.744 83.9221 304.952 83.3715C306.16 82.7886 307.353 81.7685 308.531 80.3111C309.709 78.8538 310.796 76.8297 311.793 74.2388C311.913 73.915 312.034 73.753 312.155 73.753C312.366 73.753 312.472 73.8826 312.472 74.1417C312.472 74.2388 312.457 74.3522 312.427 74.4817C312.397 74.5789 312.306 74.8056 312.155 75.1618C310.796 78.8538 309.09 81.6389 307.036 83.5173C305.013 85.3632 302.823 86.2862 300.468 86.2862ZM265.088 91.9699C263.035 91.9699 261.041 91.6622 259.109 91.0469C257.206 90.464 255.485 89.5896 253.944 88.4237C252.434 87.2578 251.226 85.8328 250.32 84.1488C249.445 82.4647 249.007 80.554 249.007 78.4165C249.007 76.862 249.218 75.4857 249.641 74.2874C250.094 73.0567 250.638 72.0366 251.272 71.227C251.936 70.4173 252.585 69.802 253.22 69.381C253.884 68.96 254.428 68.7495 254.85 68.7495C255.152 68.7495 255.303 68.8466 255.303 69.0409C255.303 69.2029 255.228 69.3324 255.077 69.4296C254.382 69.8182 253.673 70.3849 252.948 71.1298C252.223 71.8747 251.619 72.8462 251.136 74.0445C250.653 75.2428 250.411 76.7325 250.411 78.5137C250.411 80.4568 250.789 82.1247 251.544 83.5173C252.329 84.8775 253.34 85.9948 254.579 86.8692C255.847 87.7436 257.206 88.3751 258.656 88.7637C260.105 89.1847 261.494 89.3952 262.823 89.3952C265.783 89.3952 268.546 88.7799 271.113 87.5493C273.68 86.3186 276.021 84.6832 278.135 82.6429C280.279 80.5702 282.166 78.2708 283.797 75.7447C285.428 73.2187 286.772 70.6602 287.829 68.0694C288.221 67.1302 288.69 66.0129 289.233 64.7175C289.777 63.3897 290.366 61.9809 291 60.4911C291.634 59.0014 292.253 57.5441 292.857 56.1191C293.461 54.6941 294.005 53.4149 294.488 52.2814C295.001 51.1155 295.409 50.2249 295.711 49.6096C293.688 49.8687 291.498 50.1116 289.143 50.3383C286.817 50.5326 284.597 50.9536 282.483 51.6013C280.128 52.3138 278.195 53.3501 276.685 54.7103C275.205 56.0705 274.103 57.5441 273.378 59.131C272.684 60.7178 272.336 62.2076 272.336 63.6002C272.336 65.2842 272.729 66.6768 273.514 67.7779C274.299 68.8466 275.432 69.381 276.912 69.381C278.029 69.381 279.026 69.0409 279.901 68.3608C280.777 67.6484 281.472 66.7416 281.985 65.6404C282.499 64.507 282.755 63.3087 282.755 62.0457C282.755 61.5275 282.71 61.0903 282.619 60.734C282.529 60.3778 282.483 60.1025 282.483 59.9082C282.483 59.6815 282.559 59.5682 282.71 59.5682C282.921 59.5682 283.118 59.7625 283.299 60.1511C283.601 60.896 283.752 61.6246 283.752 62.3371C283.752 63.8592 283.405 65.2356 282.71 66.4663C282.015 67.6645 281.124 68.6199 280.037 69.3324C278.95 70.0449 277.802 70.4011 276.594 70.4011C275.175 70.4011 273.937 70.0449 272.88 69.3324C271.853 68.5875 271.053 67.616 270.479 66.4177C269.905 65.2194 269.618 63.924 269.618 62.5314C269.618 60.9445 270.026 59.3415 270.841 57.7222C271.657 56.0705 272.97 54.5808 274.782 53.253C276.594 51.8928 278.98 50.8565 281.94 50.144C284.416 49.561 286.938 49.1886 289.505 49.0267C292.072 48.8324 294.337 48.638 296.3 48.4437C297.357 46.6949 298.218 45.5938 298.882 45.1404C299.546 44.6546 300.15 44.4117 300.694 44.4117C301.238 44.4117 301.66 44.5737 301.962 44.8975C302.295 45.2214 302.461 45.61 302.461 46.0634C302.461 46.7111 302.038 47.4074 301.192 48.1523C300.377 48.8647 298.988 49.3343 297.025 49.561C296.058 51.4718 295.167 53.6092 294.352 55.9734C293.537 58.3051 292.721 60.7502 291.906 63.3087C291.09 65.8671 290.2 68.4094 289.233 70.9355C287.602 75.1456 285.67 78.8376 283.435 82.0113C281.2 85.1527 278.573 87.5979 275.553 89.3467C272.533 91.0955 269.044 91.9699 265.088 91.9699ZM297.885 48.3466C298.64 48.2818 299.365 48.0551 300.06 47.6665C300.754 47.2455 301.102 46.7921 301.102 46.3063C301.102 45.9824 300.951 45.8205 300.649 45.8205C300.377 45.8205 299.999 46.0148 299.516 46.4034C299.033 46.7597 298.489 47.4074 297.885 48.3466ZM314.49 83.6144C313.252 83.6144 312.33 83.1448 311.726 82.2057C311.153 81.2341 310.866 80.0682 310.866 78.708C310.866 77.445 311.092 76.1334 311.545 74.7732C312.029 73.2834 312.693 71.9232 313.539 70.6926C314.414 69.4619 315.366 68.4742 316.392 67.7293C317.449 66.9521 318.491 66.5634 319.518 66.5634C320.756 66.5634 321.662 67.0168 322.236 67.9236C322.84 68.8304 323.142 69.9801 323.142 71.3727C323.142 72.3443 322.991 73.3644 322.689 74.4331C322.387 75.5019 321.979 76.5544 321.466 77.5907C321.859 78.0117 322.417 78.2222 323.142 78.2222C323.988 78.2222 324.712 77.9308 325.316 77.3478C325.92 76.7649 326.509 75.7285 327.083 74.2388C327.446 74.2388 327.627 74.3845 327.627 74.676C327.053 76.1658 326.389 77.2669 325.634 77.9793C324.909 78.6594 323.973 78.9833 322.825 78.9509C322.13 78.9509 321.557 78.7404 321.104 78.3194C320.258 79.8091 319.246 81.0722 318.068 82.1085C316.921 83.1125 315.728 83.6144 314.49 83.6144ZM315.124 82.5457C315.819 82.5457 316.513 82.238 317.208 81.6227C317.902 80.975 318.537 80.2463 319.11 79.4367C319.684 78.6271 320.092 77.9308 320.333 77.3478C319.85 76.4086 319.563 75.7124 319.473 75.259C319.412 74.7732 319.382 74.4169 319.382 74.1902C319.382 73.5749 319.533 73.1053 319.835 72.7815C320.137 72.4576 320.439 72.2957 320.741 72.2957C321.164 72.2957 321.526 72.49 321.828 72.8786C321.889 72.5224 321.934 72.1985 321.964 71.9071C321.994 71.5832 322.01 71.2755 322.01 70.9841C322.01 70.142 321.859 69.4619 321.557 68.9438C321.285 68.3932 320.847 68.1179 320.243 68.1179C319.609 68.1179 318.944 68.4094 318.25 68.9924C317.555 69.5753 316.891 70.3526 316.257 71.3241C315.653 72.2957 315.124 73.3806 314.671 74.5789C314.278 75.5828 313.976 76.5382 313.765 77.445C313.554 78.3194 313.448 79.129 313.448 79.8739C313.448 80.6835 313.584 81.3312 313.856 81.817C314.127 82.3028 314.55 82.5457 315.124 82.5457ZM319.966 96.8763C319.604 96.8763 319.302 96.8277 319.06 96.7306C318.788 96.6658 318.441 96.6334 318.018 96.6334C318.139 96.4391 318.441 95.8724 318.924 94.9332C319.377 94.0264 319.936 92.8767 320.6 91.4841C321.264 90.1239 321.974 88.6342 322.729 87.0149C323.454 85.428 324.164 83.8573 324.858 82.3028C325.553 80.7159 326.142 79.2586 326.625 77.9308C327.138 76.5706 327.471 75.4857 327.622 74.676C327.471 74.676 327.335 74.6436 327.214 74.5789C327.093 74.5141 327.048 74.4007 327.078 74.2388C327.078 74.2388 327.169 73.9473 327.35 73.3644C327.531 72.7815 327.712 72.0852 327.893 71.2755C328.075 70.4335 328.165 69.6725 328.165 68.9924C328.165 68.539 328.12 68.1503 328.029 67.8265C327.939 67.5026 327.773 67.3245 327.531 67.2921L329.796 66.9035C329.977 66.8711 330.143 66.8549 330.294 66.8549C330.445 66.8225 330.581 66.8063 330.702 66.8063C330.974 66.8063 331.155 66.9197 331.246 67.1464C331.366 67.3407 331.427 67.7617 331.427 68.4094C331.427 69.2191 331.291 70.2554 331.019 71.5184C330.778 72.7491 330.491 73.834 330.158 74.7732C330.491 74.1902 330.913 73.4454 331.427 72.5386C331.97 71.6318 332.59 70.7088 333.284 69.7696C333.979 68.8304 334.704 68.0532 335.459 67.4378C336.214 66.7901 336.953 66.4663 337.678 66.4663C337.829 66.4663 338.025 66.4987 338.267 66.5634C339.113 66.7901 339.702 67.2435 340.034 67.9236C340.396 68.5713 340.577 69.3486 340.577 70.2554C340.577 71.227 340.396 72.2957 340.034 73.4616C339.702 74.6274 339.249 75.7771 338.675 76.9106C338.101 78.0117 337.467 79.0157 336.772 79.9225C335.927 81.056 334.915 81.9628 333.737 82.6429C332.559 83.323 331.351 83.663 330.113 83.663C328.996 83.663 327.954 83.3553 326.987 82.74L322.593 94.3502C322.17 95.4513 321.748 96.1476 321.325 96.4391C320.902 96.7306 320.449 96.8763 319.966 96.8763ZM328.664 82.6429C329.509 82.6429 330.46 82.2218 331.517 81.3798C332.574 80.5378 333.586 79.4691 334.552 78.1737C335.549 76.8458 336.38 75.518 337.044 74.1902C337.497 73.2834 337.829 72.4576 338.041 71.7127C338.252 70.9355 338.358 70.2716 338.358 69.721C338.358 68.458 337.935 67.8265 337.089 67.8265C336.697 67.8265 336.183 68.0532 335.549 68.5066C334.945 68.96 334.235 69.7858 333.42 70.9841C332.544 72.2795 331.578 73.915 330.521 75.8905C329.494 77.8336 328.437 79.8901 327.35 82.0599C327.712 82.4485 328.15 82.6429 328.664 82.6429ZM345.558 83.8087C344.44 83.8087 343.428 83.4201 342.522 82.6429C341.647 81.8656 341.209 80.6835 341.209 79.0966C341.209 77.7688 341.481 76.3601 342.024 74.8703C342.598 73.3806 343.338 71.988 344.244 70.6926C345.18 69.3648 346.207 68.2961 347.324 67.4864C348.472 66.6444 349.619 66.2234 350.767 66.2234C351.341 66.2234 351.9 66.4015 352.443 66.7578C352.987 67.114 353.259 67.7293 353.259 68.6037C353.259 69.4134 352.972 70.304 352.398 71.2755C351.824 72.2471 351.009 73.1539 349.952 73.9959C349.499 74.3522 348.925 74.6922 348.23 75.0161C347.536 75.3399 346.841 75.6152 346.146 75.8419C345.452 76.0362 344.878 76.1334 344.425 76.1334C344.274 76.522 344.123 77.0402 343.972 77.6879C343.851 78.3356 343.791 78.9995 343.791 79.6796C343.791 80.4892 343.942 81.2179 344.244 81.8656C344.546 82.5133 345.105 82.8372 345.92 82.8372C346.917 82.8372 347.838 82.5295 348.683 81.9142C349.559 81.2989 350.329 80.5216 350.994 79.5824C351.688 78.6432 352.277 77.6879 352.76 76.7163C353.243 75.7447 353.621 74.9189 353.893 74.2388C354.255 74.2388 354.436 74.3845 354.436 74.676C354.044 75.5828 353.591 76.5706 353.077 77.6393C352.594 78.708 352.005 79.712 351.311 80.6511C350.646 81.5579 349.831 82.319 348.864 82.9343C347.928 83.5173 346.826 83.8087 345.558 83.8087ZM344.742 75.259C345.165 75.259 345.875 75.097 346.871 74.7732C347.868 74.4169 348.774 73.8664 349.589 73.1215C350.374 72.3766 350.978 71.567 351.401 70.6926C351.824 69.7858 352.035 69.0247 352.035 68.4094C352.035 67.6969 351.794 67.3407 351.311 67.3407C350.948 67.3407 350.45 67.5998 349.816 68.1179C349.182 68.6361 348.396 69.5105 347.46 70.7412C346.886 71.5184 346.343 72.3605 345.829 73.2672C345.316 74.174 344.954 74.8379 344.742 75.259ZM353.524 82.8858C353.494 83.2096 353.313 83.4363 352.981 83.5659C352.679 83.663 352.377 83.7116 352.075 83.7116C351.591 83.7116 351.229 83.7925 350.987 83.9545C350.987 83.3068 351.154 82.4 351.486 81.2341C351.818 80.0358 352.211 78.7566 352.664 77.3964C353.147 76.0038 353.63 74.7084 354.113 73.5101C354.627 72.2795 355.049 71.3241 355.382 70.644C356.106 69.2191 356.71 68.3123 357.194 67.9236C357.707 67.535 358.296 67.3407 358.96 67.3407C359.564 67.3407 359.987 67.3731 360.229 67.4378C360.5 67.4702 360.697 67.4864 360.818 67.4864C360.153 67.8751 359.368 68.7818 358.462 70.2068C357.586 71.6318 356.756 73.2187 355.97 74.9675C356.212 74.7084 356.484 74.4979 356.786 74.336C357.118 74.174 357.496 74.0931 357.918 74.0931C358.492 74.0931 358.99 74.2064 359.413 74.4331C359.836 74.6274 360.425 74.7246 361.18 74.7246C361.754 74.7246 362.131 74.5303 362.312 74.1417C362.796 72.9758 363.294 71.8423 363.807 70.7412C364.321 69.6077 364.744 68.6685 365.076 67.9236C365.257 67.5026 365.499 67.2273 365.801 67.0978C366.133 66.9683 366.495 66.9035 366.888 66.9035H369.334C368.821 67.3569 368.383 67.7779 368.02 68.1665C367.688 68.5228 367.356 68.96 367.024 69.4781C366.722 69.9963 366.329 70.7412 365.846 71.7127C365.453 72.5224 364.985 73.5749 364.442 74.8703C363.898 76.1658 363.49 77.3154 363.218 78.3194C363.098 78.6756 362.992 79.0966 362.901 79.5824C362.841 80.0682 362.811 80.5216 362.811 80.9426C362.811 81.4608 362.886 81.898 363.037 82.2542C363.188 82.6105 363.445 82.7886 363.807 82.7886C364.381 82.7886 364.97 82.5295 365.574 82.0113C366.178 81.4608 366.767 80.7645 367.341 79.9225C367.915 79.0481 368.443 78.1089 368.926 77.1049C369.44 76.101 369.878 75.1456 370.24 74.2388C370.482 74.2388 370.633 74.2712 370.693 74.336C370.753 74.4007 370.784 74.5141 370.784 74.676C370.421 75.6476 369.968 76.6839 369.425 77.785C368.911 78.8538 368.307 79.8577 367.613 80.7969C366.948 81.7361 366.208 82.5133 365.393 83.1286C364.608 83.7116 363.762 84.0031 362.856 84.0031C361.95 84.0031 361.301 83.7116 360.908 83.1286C360.546 82.5457 360.365 81.817 360.365 80.9426C360.365 80.4892 360.41 80.0034 360.5 79.4853C360.621 78.9671 360.757 78.4489 360.908 77.9308C361.029 77.5421 361.165 77.1373 361.316 76.7163C361.467 76.2629 361.633 75.8257 361.814 75.4047C361.633 75.6638 361.406 75.8743 361.135 76.0362C360.863 76.1658 360.516 76.2305 360.093 76.2305C359.67 76.2305 359.323 76.1658 359.051 76.0362C358.779 75.9067 358.492 75.7771 358.19 75.6476C357.888 75.518 357.496 75.4533 357.012 75.4533C356.71 75.4533 356.393 75.518 356.061 75.6476C355.759 75.7771 355.517 76.0686 355.336 76.522C354.883 77.6555 354.491 78.7728 354.158 79.8739C353.856 80.975 353.645 81.979 353.524 82.8858ZM372.112 75.1132L371.84 75.7933C373.199 73.8178 374.634 72.1338 376.144 70.7412C377.684 69.3162 379.133 68.2313 380.492 67.4864C381.851 66.7092 382.923 66.3205 383.709 66.3205C384.735 66.3205 385.37 66.612 385.611 67.195C385.702 67.4217 385.747 67.6645 385.747 67.9236C385.747 68.4094 385.596 68.8628 385.294 69.2838C384.992 69.6724 384.569 69.8668 384.026 69.8668C383.996 69.8668 383.935 69.8668 383.845 69.8668C383.754 69.8668 383.678 69.8506 383.618 69.8182C383.558 69.3648 383.407 68.9762 383.165 68.6523C382.923 68.3285 382.455 68.1665 381.761 68.1665C380.976 68.1665 380.205 68.5228 379.45 69.2352C378.726 69.9153 378.107 70.8545 377.593 72.0528C377.11 73.2187 376.838 74.5303 376.778 75.9876C376.748 76.9916 376.808 78.0117 376.959 79.0481C377.14 80.052 377.457 80.894 377.91 81.5741C378.363 82.2219 378.997 82.5457 379.813 82.5457C380.538 82.5457 381.202 82.2542 381.806 81.6713C382.41 81.0884 382.969 80.3597 383.482 79.4853C383.996 78.5785 384.449 77.6555 384.841 76.7163C385.234 75.7771 385.581 74.9513 385.883 74.2388C386.245 74.2388 386.427 74.3845 386.427 74.676C385.853 76.1658 385.234 77.6231 384.569 79.0481C383.935 80.473 383.165 81.6551 382.259 82.5943C381.353 83.5011 380.251 83.9545 378.952 83.9545C377.472 83.9545 376.355 83.4525 375.6 82.4485C374.845 81.4122 374.407 80.0682 374.286 78.4165C374.165 76.7649 374.332 74.9837 374.785 73.0729C373.758 74.336 372.927 75.4533 372.293 76.4248C371.689 77.364 371.145 78.3194 370.662 79.291C370.209 80.2625 369.711 81.4122 369.167 82.74C369.016 83.1286 368.82 83.3392 368.578 83.3715C368.367 83.4039 368.02 83.4201 367.537 83.4201H366.676C366.585 83.4201 366.48 83.4687 366.359 83.5659C366.238 83.6306 366.117 83.6954 365.996 83.7602C366.359 82.9829 366.736 82.1733 367.129 81.3313C367.491 80.4892 367.929 79.5015 368.443 78.368C368.956 77.2345 369.56 75.8581 370.255 74.2388C370.315 74.1417 370.496 73.6883 370.798 72.8786C371.13 72.0366 371.583 70.9679 372.157 69.6724C372.761 68.3123 373.35 67.3083 373.924 66.6606C374.498 66.0129 375.147 65.689 375.872 65.689C376.144 65.689 376.355 65.7214 376.506 65.7862C376.657 65.851 376.959 65.8833 377.412 65.8833C376.325 67.1464 375.404 68.539 374.649 70.0611C373.924 71.5832 373.078 73.2672 372.112 75.1132ZM388.589 83.6144C387.351 83.6144 386.429 83.1448 385.825 82.2057C385.252 81.2341 384.965 80.0682 384.965 78.708C384.965 77.445 385.191 76.1334 385.644 74.7732C386.128 73.2834 386.792 71.9232 387.638 70.6926C388.513 69.4619 389.465 68.4742 390.491 67.7293C391.548 66.9521 392.59 66.5634 393.617 66.5634C394.855 66.5634 395.761 67.0168 396.335 67.9236C396.939 68.8304 397.241 69.9801 397.241 71.3727C397.241 72.3443 397.09 73.3644 396.788 74.4331C396.486 75.5019 396.078 76.5544 395.565 77.5907C395.958 78.0117 396.516 78.2222 397.241 78.2222C398.087 78.2222 398.811 77.9308 399.415 77.3478C400.019 76.7649 400.608 75.7285 401.182 74.2388C401.545 74.2388 401.726 74.3845 401.726 74.676C401.152 76.1658 400.488 77.2669 399.733 77.9793C399.008 78.6594 398.072 78.9833 396.924 78.9509C396.229 78.9509 395.656 78.7404 395.203 78.3194C394.357 79.8091 393.345 81.0722 392.168 82.1085C391.02 83.1125 389.827 83.6144 388.589 83.6144ZM389.223 82.5457C389.918 82.5457 390.612 82.238 391.307 81.6227C392.001 80.975 392.636 80.2463 393.209 79.4367C393.783 78.6271 394.191 77.9308 394.432 77.3478C393.949 76.4086 393.662 75.7124 393.572 75.259C393.511 74.7732 393.481 74.4169 393.481 74.1902C393.481 73.5749 393.632 73.1053 393.934 72.7815C394.236 72.4576 394.538 72.2957 394.84 72.2957C395.263 72.2957 395.625 72.49 395.927 72.8786C395.988 72.5224 396.033 72.1985 396.063 71.9071C396.093 71.5832 396.109 71.2755 396.109 70.9841C396.109 70.142 395.958 69.4619 395.656 68.9438C395.384 68.3932 394.946 68.1179 394.342 68.1179C393.708 68.1179 393.043 68.4094 392.349 68.9924C391.654 69.5753 390.99 70.3526 390.356 71.3241C389.752 72.2957 389.223 73.3806 388.77 74.5789C388.377 75.5828 388.075 76.5382 387.864 77.445C387.653 78.3194 387.547 79.129 387.547 79.8739C387.547 80.6835 387.683 81.3312 387.955 81.817C388.226 82.3028 388.649 82.5457 389.223 82.5457ZM413.454 71.6156C413.454 72.5871 413.212 73.753 412.729 75.1132C412.246 76.4734 411.566 77.8012 410.69 79.0966C409.815 80.3921 408.773 81.477 407.565 82.3514C406.387 83.1934 405.103 83.6144 403.714 83.6144C402.506 83.6144 401.661 83.2258 401.177 82.4485C400.694 81.6713 400.453 80.6997 400.453 79.5339C400.453 78.8861 400.528 78.2222 400.679 77.5421C400.83 76.862 401.147 75.9714 401.63 74.8703C401.359 74.8703 401.208 74.8056 401.177 74.676C401.177 74.5141 401.177 74.3684 401.177 74.2388C401.479 73.4616 401.917 72.4414 402.491 71.1784C403.065 69.883 403.729 68.4742 404.484 66.9521C405.239 65.3976 406.04 63.8431 406.885 62.2885C407.731 60.734 408.576 59.2767 409.422 57.9165C410.268 56.5239 411.068 55.3742 411.823 54.4674C413.786 51.9738 415.704 50.0306 417.576 48.638C419.448 47.2131 421.245 46.5006 422.967 46.5006C423.994 46.5006 424.779 46.7759 425.322 47.3264C425.896 47.8446 426.183 48.5409 426.183 49.4153C426.183 50.6136 425.67 52.0709 424.643 53.7873C423.616 55.4714 422.076 57.2202 420.022 59.0338C418.784 60.1349 417.138 61.3332 415.085 62.6286C413.031 63.8916 410.615 64.9442 407.837 65.7862H407.746C406.719 67.7941 405.798 69.7372 404.983 71.6156C404.197 73.4939 403.578 75.1942 403.125 76.7163C402.672 78.206 402.446 79.4043 402.446 80.3111C402.446 80.7969 402.491 81.2341 402.582 81.6227C402.642 81.8818 402.778 82.1247 402.989 82.3514C403.231 82.5457 403.518 82.6429 403.85 82.6429C404.273 82.6429 404.756 82.4647 405.3 82.1085C405.874 81.7523 406.508 81.1207 407.202 80.2139C407.625 79.6634 408.063 78.9995 408.516 78.2222C408.969 77.445 409.392 76.6515 409.784 75.8419C410.177 74.9999 410.494 74.255 410.736 73.6073C411.249 72.3119 411.506 71.1298 411.506 70.0611C411.506 69.0247 411.279 68.3446 410.826 68.0208C410.404 67.6969 409.754 67.535 408.878 67.535C408.335 67.535 408.063 67.3731 408.063 67.0492C408.063 66.9197 408.139 66.7901 408.29 66.6606C408.471 66.5311 408.712 66.4663 409.014 66.4663C410.162 66.4663 411.189 66.9197 412.095 67.8265C413.001 68.7333 413.454 69.9963 413.454 71.6156ZM422.967 48.1037C421.94 48.1037 420.807 48.5733 419.569 49.5125C418.361 50.4192 417.108 51.6499 415.809 53.2044C414.511 54.7589 413.227 56.5239 411.959 58.4994C410.721 60.4426 409.543 62.4505 408.425 64.5232C410.751 63.7459 412.865 62.7581 414.767 61.5599C416.67 60.3292 418.21 59.1957 419.388 58.1594C421.17 56.5725 422.499 55.0504 423.374 53.593C424.25 52.1033 424.688 50.8888 424.688 49.9497C424.688 49.3991 424.537 48.9619 424.235 48.638C423.963 48.2818 423.541 48.1037 422.967 48.1037ZM418.096 83.6144C416.857 83.6144 415.936 83.1448 415.332 82.2057C414.759 81.2341 414.472 80.0682 414.472 78.708C414.472 77.445 414.698 76.1334 415.151 74.7732C415.634 73.2834 416.299 71.9232 417.144 70.6926C418.02 69.4619 418.971 68.4742 419.998 67.7293C421.055 66.9521 422.097 66.5634 423.124 66.5634C424.362 66.5634 425.268 67.0168 425.842 67.9236C426.446 68.8304 426.748 69.9801 426.748 71.3727C426.748 72.3443 426.597 73.3644 426.295 74.4331C425.993 75.5019 425.585 76.5544 425.072 77.5907C425.464 78.0117 426.023 78.2222 426.748 78.2222C427.594 78.2222 428.318 77.9308 428.922 77.3478C429.526 76.7649 430.115 75.7285 430.689 74.2388C431.051 74.2388 431.233 74.3845 431.233 74.676C430.659 76.1658 429.994 77.2669 429.239 77.9793C428.515 78.6594 427.578 78.9833 426.431 78.9509C425.736 78.9509 425.162 78.7404 424.709 78.3194C423.864 79.8091 422.852 81.0722 421.674 82.1085C420.527 83.1125 419.334 83.6144 418.096 83.6144ZM418.73 82.5457C419.424 82.5457 420.119 82.238 420.814 81.6227C421.508 80.975 422.142 80.2463 422.716 79.4367C423.29 78.6271 423.698 77.9308 423.939 77.3478C423.456 76.4086 423.169 75.7124 423.079 75.259C423.018 74.7732 422.988 74.4169 422.988 74.1902C422.988 73.5749 423.139 73.1053 423.441 72.7815C423.743 72.4576 424.045 72.2957 424.347 72.2957C424.77 72.2957 425.132 72.49 425.434 72.8786C425.495 72.5224 425.54 72.1985 425.57 71.9071C425.6 71.5832 425.615 71.2755 425.615 70.9841C425.615 70.142 425.464 69.4619 425.162 68.9438C424.891 68.3932 424.453 68.1179 423.849 68.1179C423.215 68.1179 422.55 68.4094 421.856 68.9924C421.161 69.5753 420.497 70.3526 419.862 71.3241C419.258 72.2957 418.73 73.3806 418.277 74.5789C417.884 75.5828 417.582 76.5382 417.371 77.445C417.159 78.3194 417.054 79.129 417.054 79.8739C417.054 80.6835 417.19 81.3312 417.461 81.817C417.733 82.3028 418.156 82.5457 418.73 82.5457ZM437.887 63.843C437.494 63.843 437.162 63.6973 436.89 63.4058C436.649 63.082 436.528 62.7096 436.528 62.2885C436.528 61.738 436.724 61.2684 437.117 60.8798C437.51 60.4912 437.947 60.2968 438.431 60.2968C438.853 60.2968 439.201 60.4426 439.473 60.734C439.744 60.9931 439.88 61.3332 439.88 61.7542C439.88 62.2724 439.684 62.7581 439.291 63.2115C438.899 63.6325 438.431 63.843 437.887 63.843ZM433.085 63.843C432.693 63.843 432.36 63.6973 432.089 63.4058C431.847 63.082 431.726 62.7096 431.726 62.2885C431.726 61.738 431.922 61.2684 432.315 60.8798C432.708 60.4912 433.146 60.2968 433.629 60.2968C434.052 60.2968 434.399 60.4426 434.671 60.734C434.942 60.9931 435.078 61.3332 435.078 61.7542C435.078 62.2724 434.882 62.7581 434.49 63.2115C434.097 63.6325 433.629 63.843 433.085 63.843ZM431.953 83.6144C430.835 83.6144 430.05 83.2744 429.597 82.5943C429.144 81.8818 428.918 81.0722 428.918 80.1654C428.918 79.6796 428.963 79.1938 429.054 78.708C429.174 78.1898 429.31 77.7203 429.461 77.2992L432.496 68.9924C432.587 68.7333 432.632 68.5066 432.632 68.3123C432.632 67.9884 432.557 67.7131 432.406 67.4864C432.255 67.2273 432.149 67.0492 432.089 66.9521L434.58 66.8549C435.033 66.8225 435.35 66.8873 435.531 67.0492C435.743 67.1788 435.849 67.3407 435.849 67.535C435.849 67.7293 435.743 68.0856 435.531 68.6037C435.229 69.381 434.822 70.3525 434.308 71.5184C433.795 72.6843 433.282 73.8826 432.768 75.1132C432.285 76.3439 431.862 77.4936 431.5 78.5623C431.168 79.631 431.001 80.4568 431.001 81.0398C431.001 81.4608 431.092 81.817 431.273 82.1085C431.485 82.4 431.832 82.5457 432.315 82.5457C432.949 82.5457 433.568 82.2866 434.172 81.7685C434.807 81.2179 435.395 80.5216 435.939 79.6796C436.483 78.8376 436.981 77.9308 437.434 76.9592C437.917 75.9876 438.325 75.0808 438.657 74.2388C439.019 74.2388 439.201 74.3845 439.201 74.676C438.899 75.4857 438.506 76.4086 438.023 77.445C437.54 78.4813 436.981 79.4691 436.347 80.4083C435.743 81.3151 435.063 82.0761 434.308 82.6914C433.583 83.3068 432.798 83.6144 431.953 83.6144Z" fill="white"/>
<path d="M156.186 27.9518C156.075 27.9518 155.971 27.9073 155.875 27.8182C155.792 27.7292 155.75 27.6178 155.75 27.4842C155.75 27.4249 155.764 27.3581 155.792 27.2839L160.795 12.9229C160.837 12.7745 160.913 12.6483 161.024 12.5444C161.148 12.4256 161.314 12.3663 161.522 12.3663H163.785C163.993 12.3663 164.152 12.4256 164.263 12.5444C164.374 12.6483 164.457 12.7745 164.512 12.9229L169.516 27.2839C169.529 27.3581 169.536 27.4249 169.536 27.4842C169.536 27.6178 169.495 27.7292 169.412 27.8182C169.329 27.9073 169.232 27.9518 169.121 27.9518H167.315C167.121 27.9518 166.975 27.9073 166.879 27.8182C166.796 27.7143 166.74 27.6178 166.713 27.5288L165.737 24.8124H159.57L158.594 27.5288C158.567 27.6178 158.504 27.7143 158.408 27.8182C158.325 27.9073 158.186 27.9518 157.992 27.9518H156.186ZM160.297 22.252H165.01L162.643 15.3721L160.297 22.252ZM170.893 31.0467C170.755 31.0467 170.637 30.9947 170.54 30.8908C170.443 30.8017 170.395 30.6756 170.395 30.5123V25.703C170.395 25.5546 170.443 25.4284 170.54 25.3245C170.637 25.2206 170.755 25.1687 170.893 25.1687H171.309C171.641 25.1687 171.924 25.0054 172.16 24.6788C172.395 24.3374 172.589 23.8476 172.741 23.2094C172.893 22.5562 173.004 21.7547 173.073 20.8047C173.142 19.8548 173.177 18.7712 173.177 17.554V12.9006C173.177 12.7522 173.225 12.626 173.323 12.5221C173.419 12.4182 173.544 12.3663 173.696 12.3663H182.603C182.755 12.3663 182.88 12.4182 182.977 12.5221C183.074 12.626 183.123 12.7596 183.123 12.9229V25.1687H184.119C184.271 25.1687 184.396 25.2206 184.493 25.3245C184.59 25.4284 184.638 25.5546 184.638 25.703V30.5123C184.638 30.6756 184.59 30.8017 184.493 30.8908C184.396 30.9947 184.271 31.0467 184.119 31.0467H182.251C182.098 31.0467 181.974 30.9947 181.877 30.8908C181.794 30.8017 181.752 30.6756 181.752 30.5123V27.9518H173.281V30.5123C173.281 30.6756 173.232 30.8017 173.136 30.8908C173.039 30.9947 172.914 31.0467 172.762 31.0467H170.893ZM174.838 25.1687H180.237V15.1494H175.98V17.9548C175.98 19.7954 175.883 21.302 175.69 22.4746C175.496 23.6324 175.212 24.5304 174.838 25.1687ZM187.443 27.9518C187.305 27.9518 187.187 27.8998 187.091 27.796C186.994 27.6921 186.945 27.5659 186.945 27.4174V12.9229C186.945 12.7596 186.994 12.626 187.091 12.5221C187.187 12.4182 187.305 12.3663 187.443 12.3663H193.465C194.586 12.3663 195.499 12.5518 196.205 12.9229C196.911 13.2791 197.43 13.7764 197.762 14.4147C198.108 15.0529 198.282 15.7951 198.282 16.6412C198.282 17.2052 198.185 17.7024 197.991 18.1329C197.811 18.5485 197.583 18.8899 197.306 19.1571C197.043 19.4243 196.78 19.6321 196.517 19.7805C197.057 20.0477 197.534 20.493 197.949 21.1164C198.365 21.7399 198.572 22.482 198.572 23.3429C198.572 24.2335 198.385 25.0276 198.012 25.7253C197.638 26.423 197.084 26.9721 196.351 27.3729C195.617 27.7589 194.71 27.9518 193.631 27.9518H187.443ZM189.831 25.5917H193.299C194.046 25.5917 194.614 25.3765 195.001 24.946C195.388 24.5007 195.582 23.9664 195.582 23.3429C195.582 22.6898 195.382 22.1481 194.98 21.7176C194.593 21.2871 194.032 21.0719 193.299 21.0719H189.831V25.5917ZM189.831 18.7563H193.091C193.825 18.7563 194.371 18.5708 194.731 18.1997C195.105 17.8138 195.292 17.3165 195.292 16.708C195.292 16.0845 195.105 15.6021 194.731 15.2607C194.371 14.9045 193.825 14.7264 193.091 14.7264H189.831V18.7563ZM206.764 28.1745C205.532 28.1745 204.473 27.9592 203.587 27.5288C202.702 27.0835 202.009 26.4081 201.511 25.5027C201.013 24.5823 200.743 23.4394 200.701 22.0738C200.688 21.4356 200.681 20.8047 200.681 20.1813C200.681 19.5579 200.688 18.9196 200.701 18.2665C200.743 16.9158 201.02 15.7876 201.532 14.8822C202.044 13.9768 202.743 13.294 203.629 12.8338C204.529 12.3737 205.573 12.1436 206.764 12.1436C207.954 12.1436 208.999 12.3737 209.899 12.8338C210.799 13.294 211.505 13.9768 212.017 14.8822C212.529 15.7876 212.806 16.9158 212.847 18.2665C212.875 18.9196 212.889 19.5579 212.889 20.1813C212.889 20.8047 212.875 21.4356 212.847 22.0738C212.806 23.4394 212.536 24.5823 212.038 25.5027C211.539 26.4081 210.84 27.0835 209.941 27.5288C209.055 27.9592 207.996 28.1745 206.764 28.1745ZM206.764 25.614C207.664 25.614 208.397 25.332 208.965 24.7679C209.532 24.189 209.837 23.2539 209.878 21.9625C209.906 21.3094 209.92 20.7082 209.92 20.159C209.92 19.595 209.906 18.9938 209.878 18.3556C209.85 17.4947 209.699 16.797 209.422 16.2627C209.159 15.7135 208.799 15.3201 208.342 15.0826C207.885 14.8303 207.359 14.7041 206.764 14.7041C206.183 14.7041 205.664 14.8303 205.207 15.0826C204.75 15.3201 204.383 15.7135 204.106 16.2627C203.843 16.797 203.698 17.4947 203.67 18.3556C203.657 18.9938 203.65 19.595 203.65 20.159C203.65 20.7082 203.657 21.3094 203.67 21.9625C203.712 23.2539 204.016 24.189 204.584 24.7679C205.152 25.332 205.878 25.614 206.764 25.614ZM216.114 27.9518C215.975 27.9518 215.857 27.9073 215.761 27.8182C215.663 27.7143 215.615 27.5807 215.615 27.4174V12.9229C215.615 12.7596 215.663 12.626 215.761 12.5221C215.857 12.4182 215.975 12.3663 216.114 12.3663H218.003C218.155 12.3663 218.273 12.4182 218.356 12.5221C218.453 12.626 218.501 12.7596 218.501 12.9229V18.6673H220.308L223.692 12.767C223.761 12.6483 223.851 12.5518 223.962 12.4776C224.086 12.4034 224.245 12.3663 224.439 12.3663H226.495C226.633 12.3663 226.737 12.4108 226.806 12.4999C226.889 12.5889 226.931 12.7002 226.931 12.8338C226.931 12.9081 226.903 12.9971 226.848 13.101L222.924 19.8919L227.222 27.1948C227.263 27.2393 227.284 27.3209 227.284 27.4397C227.284 27.5733 227.235 27.6921 227.139 27.796C227.056 27.8998 226.945 27.9518 226.806 27.9518H224.668C224.488 27.9518 224.349 27.9073 224.253 27.8182C224.17 27.7292 224.1 27.6475 224.045 27.5733L220.412 21.4504H218.501V27.4174C218.501 27.5659 218.453 27.6921 218.356 27.796C218.273 27.8998 218.155 27.9518 218.003 27.9518H216.114ZM228.632 27.9518C228.521 27.9518 228.417 27.9073 228.32 27.8182C228.237 27.7292 228.196 27.6178 228.196 27.4842C228.196 27.4249 228.21 27.3581 228.237 27.2839L233.241 12.9229C233.282 12.7745 233.359 12.6483 233.469 12.5444C233.594 12.4256 233.76 12.3663 233.968 12.3663H236.231C236.438 12.3663 236.598 12.4256 236.708 12.5444C236.819 12.6483 236.902 12.7745 236.957 12.9229L241.961 27.2839C241.975 27.3581 241.982 27.4249 241.982 27.4842C241.982 27.6178 241.94 27.7292 241.857 27.8182C241.774 27.9073 241.677 27.9518 241.567 27.9518H239.76C239.567 27.9518 239.421 27.9073 239.324 27.8182C239.241 27.7143 239.186 27.6178 239.158 27.5288L238.182 24.8124H232.016L231.04 27.5288C231.013 27.6178 230.95 27.7143 230.853 27.8182C230.77 27.9073 230.632 27.9518 230.438 27.9518H228.632ZM232.743 22.252H237.456L235.089 15.3721L232.743 22.252ZM247.616 27.9518C247.478 27.9518 247.36 27.8998 247.263 27.796C247.166 27.6921 247.118 27.5659 247.118 27.4174V15.1049H243.277C243.138 15.1049 243.02 15.0529 242.924 14.949C242.827 14.8451 242.778 14.7189 242.778 14.5705V12.9229C242.778 12.7596 242.827 12.626 242.924 12.5221C243.02 12.4182 243.138 12.3663 243.277 12.3663H253.866C254.018 12.3663 254.143 12.4182 254.239 12.5221C254.336 12.626 254.385 12.7596 254.385 12.9229V14.5705C254.385 14.7189 254.336 14.8451 254.239 14.949C254.143 15.0529 254.018 15.1049 253.866 15.1049H250.045V27.4174C250.045 27.5659 249.997 27.6921 249.9 27.796C249.803 27.8998 249.679 27.9518 249.526 27.9518H247.616ZM262.097 28.1745C260.81 28.1745 259.716 27.937 258.817 27.462C257.931 26.9721 257.253 26.2819 256.782 25.3913C256.311 24.4859 256.048 23.4023 255.993 22.1406C255.979 21.532 255.972 20.879 255.972 20.1813C255.972 19.4836 255.979 18.8157 255.993 18.1774C256.048 16.9306 256.311 15.8544 256.782 14.949C257.266 14.0436 257.952 13.3534 258.838 12.8784C259.737 12.3885 260.824 12.1436 262.097 12.1436C263.038 12.1436 263.883 12.2772 264.63 12.5444C265.378 12.8116 266.014 13.1826 266.541 13.6576C267.066 14.1178 267.475 14.6596 267.766 15.283C268.056 15.9064 268.208 16.5818 268.222 17.3091C268.236 17.4427 268.195 17.554 268.098 17.6431C268.015 17.7321 267.911 17.7767 267.786 17.7767H265.814C265.661 17.7767 265.537 17.7396 265.44 17.6654C265.343 17.5763 265.274 17.4353 265.233 17.2423C265.011 16.2627 264.63 15.5947 264.091 15.2385C263.551 14.8822 262.879 14.7041 262.077 14.7041C261.149 14.7041 260.409 14.9861 259.855 15.5502C259.301 16.0994 259.004 17.0122 258.962 18.2888C258.921 19.5059 258.921 20.7528 258.962 22.0293C259.004 23.3059 259.301 24.2261 259.855 24.7902C260.409 25.3394 261.149 25.614 262.077 25.614C262.879 25.614 263.551 25.4359 264.091 25.0796C264.63 24.7085 265.011 24.0406 265.233 23.0758C265.274 22.8679 265.343 22.727 265.44 22.6527C265.537 22.5785 265.661 22.5414 265.814 22.5414H267.786C267.911 22.5414 268.015 22.5859 268.098 22.675C268.195 22.7641 268.236 22.8754 268.222 23.009C268.208 23.7363 268.056 24.4117 267.766 25.0351C267.475 25.6585 267.066 26.2077 266.541 26.6827C266.014 27.1428 265.378 27.5065 264.63 27.7737C263.883 28.0409 263.038 28.1745 262.097 28.1745ZM271.183 27.9518C271.045 27.9518 270.927 27.8998 270.83 27.796C270.733 27.6921 270.685 27.5659 270.685 27.4174V12.9006C270.685 12.7522 270.733 12.626 270.83 12.5221C270.927 12.4182 271.045 12.3663 271.183 12.3663H273.072C273.225 12.3663 273.342 12.4182 273.425 12.5221C273.522 12.626 273.571 12.7522 273.571 12.9006V17.9993H276.249C277.896 17.9993 279.169 18.4149 280.069 19.2462C280.969 20.0625 281.419 21.2797 281.419 22.8976C281.419 23.8328 281.225 24.6863 280.837 25.4581C280.45 26.23 279.875 26.8386 279.114 27.2839C278.353 27.7292 277.398 27.9518 276.249 27.9518H271.183ZM273.571 25.4804H276.124C276.872 25.4804 277.446 25.2429 277.848 24.7679C278.249 24.2781 278.45 23.6472 278.45 22.8754C278.45 22.0738 278.249 21.4727 277.848 21.0719C277.46 20.6711 276.886 20.4707 276.124 20.4707H273.571V25.4804ZM284.281 27.9518C284.142 27.9518 284.025 27.9073 283.928 27.8182C283.831 27.7143 283.783 27.5807 283.783 27.4174V12.9229C283.783 12.7596 283.831 12.626 283.928 12.5221C284.025 12.4182 284.142 12.3663 284.281 12.3663H286.171C286.323 12.3663 286.441 12.4182 286.524 12.5221C286.62 12.626 286.669 12.7596 286.669 12.9229V18.6673H288.475L291.86 12.767C291.928 12.6483 292.019 12.5518 292.129 12.4776C292.254 12.4034 292.413 12.3663 292.607 12.3663H294.662C294.801 12.3663 294.905 12.4108 294.974 12.4999C295.057 12.5889 295.098 12.7002 295.098 12.8338C295.098 12.9081 295.071 12.9971 295.015 13.101L291.091 19.8919L295.389 27.1948C295.431 27.2393 295.451 27.3209 295.451 27.4397C295.451 27.5733 295.403 27.6921 295.306 27.796C295.223 27.8998 295.112 27.9518 294.974 27.9518H292.835C292.655 27.9518 292.517 27.9073 292.42 27.8182C292.337 27.7292 292.268 27.6475 292.212 27.5733L288.579 21.4504H286.669V27.4174C286.669 27.5659 286.62 27.6921 286.524 27.796C286.441 27.8998 286.323 27.9518 286.171 27.9518H284.281ZM298.19 27.9518C298.052 27.9518 297.934 27.8998 297.837 27.796C297.741 27.6921 297.692 27.5659 297.692 27.4174V12.9229C297.692 12.7596 297.741 12.626 297.837 12.5221C297.934 12.4182 298.052 12.3663 298.19 12.3663H307.326C307.478 12.3663 307.603 12.4182 307.699 12.5221C307.797 12.626 307.845 12.7596 307.845 12.9229V14.3924C307.845 14.5408 307.797 14.667 307.699 14.7709C307.603 14.8748 307.478 14.9267 307.326 14.9267H300.495V18.8677H306.869C307.021 18.8677 307.146 18.9196 307.243 19.0235C307.34 19.1126 307.388 19.2387 307.388 19.402V20.7825C307.388 20.9458 307.34 21.0793 307.243 21.1832C307.146 21.2723 307.021 21.3168 306.869 21.3168H300.495V25.3913H307.492C307.644 25.3913 307.769 25.4433 307.866 25.5472C307.963 25.6511 308.011 25.7847 308.011 25.948V27.4174C308.011 27.5659 307.963 27.6921 307.866 27.796C307.769 27.8998 307.644 27.9518 307.492 27.9518H298.19ZM315.851 27.9518C315.712 27.9518 315.594 27.8998 315.498 27.796C315.401 27.6921 315.352 27.5659 315.352 27.4174V12.9229C315.352 12.7596 315.401 12.626 315.498 12.5221C315.594 12.4182 315.712 12.3663 315.851 12.3663H325.36C325.512 12.3663 325.63 12.4182 325.713 12.5221C325.81 12.626 325.858 12.7596 325.858 12.9229V14.4814C325.858 14.6299 325.81 14.7561 325.713 14.86C325.63 14.9638 325.512 15.0158 325.36 15.0158H318.238V18.5782H321.747C323.311 18.5782 324.536 18.9938 325.422 19.8251C326.308 20.6563 326.751 21.7844 326.751 23.2094C326.751 23.8179 326.64 24.4117 326.419 24.9906C326.211 25.5546 325.9 26.0593 325.484 26.5046C325.069 26.9499 324.55 27.3061 323.927 27.5733C323.304 27.8257 322.578 27.9518 321.747 27.9518H315.851ZM318.238 25.5917H321.456C321.955 25.5917 322.377 25.4804 322.723 25.2577C323.069 25.0351 323.332 24.7382 323.512 24.3671C323.692 23.9961 323.782 23.5953 323.782 23.1648C323.782 22.5117 323.588 21.9699 323.201 21.5395C322.813 21.109 322.232 20.8938 321.456 20.8938H318.238V25.5917ZM340.608 28.1745C339.626 28.1745 338.761 28.0334 338.013 27.7514C337.28 27.4545 336.664 27.0464 336.165 26.5268C335.681 26.0073 335.307 25.3913 335.044 24.6788C334.781 23.9515 334.622 23.15 334.567 22.2742C334.553 22.1258 334.539 21.9848 334.525 21.8512C334.525 21.7176 334.525 21.584 334.525 21.4504H331.701V27.4174C331.701 27.5659 331.653 27.6921 331.556 27.796C331.473 27.8998 331.355 27.9518 331.203 27.9518H329.314C329.175 27.9518 329.058 27.9073 328.961 27.8182C328.864 27.7143 328.815 27.5807 328.815 27.4174V12.9006C328.815 12.7522 328.864 12.626 328.961 12.5221C329.058 12.4182 329.175 12.3663 329.314 12.3663H331.203C331.355 12.3663 331.473 12.4182 331.556 12.5221C331.653 12.626 331.701 12.7522 331.701 12.9006V18.6673H334.546C334.546 18.5634 334.546 18.4521 334.546 18.3333C334.56 18.1997 334.567 18.0736 334.567 17.9548C334.636 17.1384 334.802 16.374 335.065 15.6615C335.328 14.949 335.702 14.333 336.186 13.8135C336.684 13.294 337.301 12.8858 338.034 12.5889C338.768 12.292 339.626 12.1436 340.608 12.1436C341.633 12.1436 342.519 12.2995 343.266 12.6112C344.013 12.9081 344.636 13.3311 345.135 13.8803C345.633 14.4295 346.007 15.0826 346.256 15.8396C346.505 16.5818 346.65 17.3907 346.692 18.2665C346.72 18.9196 346.733 19.5579 346.733 20.1813C346.733 20.8047 346.72 21.4356 346.692 22.0738C346.65 22.9793 346.498 23.8031 346.235 24.5453C345.986 25.2874 345.612 25.9331 345.114 26.4823C344.63 27.0167 344.013 27.4323 343.266 27.7292C342.519 28.026 341.633 28.1745 340.608 28.1745ZM340.608 25.614C341.204 25.614 341.73 25.4952 342.186 25.2577C342.643 25.0203 343.003 24.6418 343.266 24.1222C343.543 23.5879 343.695 22.8902 343.723 22.0293C343.751 21.3762 343.764 20.7528 343.764 20.159C343.764 19.5504 343.751 18.927 343.723 18.2888C343.695 17.4279 343.543 16.7377 343.266 16.2181C343.003 15.6838 342.643 15.2978 342.186 15.0603C341.73 14.8229 341.204 14.7041 340.608 14.7041C340.041 14.7041 339.522 14.8229 339.051 15.0603C338.594 15.2978 338.228 15.6838 337.951 16.2181C337.688 16.7377 337.543 17.4279 337.515 18.2888C337.501 18.927 337.494 19.5504 337.494 20.159C337.494 20.7528 337.501 21.3762 337.515 22.0293C337.543 22.8902 337.688 23.5879 337.951 24.1222C338.228 24.6418 338.594 25.0203 339.051 25.2577C339.508 25.4952 340.027 25.614 340.608 25.614ZM349.955 27.9518C349.816 27.9518 349.699 27.8998 349.602 27.796C349.505 27.6921 349.457 27.5659 349.457 27.4174V12.9229C349.457 12.7596 349.505 12.626 349.602 12.5221C349.699 12.4182 349.816 12.3663 349.955 12.3663H355.519C356.599 12.3663 357.54 12.5518 358.343 12.9229C359.146 13.2791 359.768 13.8283 360.212 14.5705C360.654 15.2978 360.876 16.2107 360.876 17.3091C360.876 18.4224 360.654 19.3427 360.212 20.07C359.768 20.7825 359.146 21.3168 358.343 21.6731C357.54 22.0293 356.599 22.2074 355.519 22.2074H352.426V27.4174C352.426 27.5659 352.377 27.6921 352.28 27.796C352.197 27.8998 352.079 27.9518 351.927 27.9518H349.955ZM352.384 19.736H355.415C356.218 19.736 356.834 19.5356 357.263 19.1348C357.692 18.7192 357.907 18.1107 357.907 17.3091C357.907 16.5669 357.706 15.9732 357.305 15.5279C356.903 15.0678 356.273 14.8377 355.415 14.8377H352.384V19.736ZM368.727 28.1745C367.496 28.1745 366.437 27.9592 365.551 27.5288C364.665 27.0835 363.973 26.4081 363.475 25.5027C362.976 24.5823 362.706 23.4394 362.665 22.0738C362.651 21.4356 362.644 20.8047 362.644 20.1813C362.644 19.5579 362.651 18.9196 362.665 18.2665C362.706 16.9158 362.983 15.7876 363.495 14.8822C364.008 13.9768 364.707 13.294 365.592 12.8338C366.492 12.3737 367.537 12.1436 368.727 12.1436C369.918 12.1436 370.963 12.3737 371.863 12.8338C372.763 13.294 373.468 13.9768 373.98 14.8822C374.493 15.7876 374.769 16.9158 374.811 18.2665C374.839 18.9196 374.852 19.5579 374.852 20.1813C374.852 20.8047 374.839 21.4356 374.811 22.0738C374.769 23.4394 374.499 24.5823 374.001 25.5027C373.503 26.4081 372.804 27.0835 371.904 27.5288C371.018 27.9592 369.96 28.1745 368.727 28.1745ZM368.727 25.614C369.627 25.614 370.361 25.332 370.928 24.7679C371.496 24.189 371.8 23.2539 371.842 21.9625C371.87 21.3094 371.883 20.7082 371.883 20.159C371.883 19.595 371.87 18.9938 371.842 18.3556C371.815 17.4947 371.662 16.797 371.385 16.2627C371.122 15.7135 370.762 15.3201 370.305 15.0826C369.849 14.8303 369.323 14.7041 368.727 14.7041C368.146 14.7041 367.627 14.8303 367.17 15.0826C366.714 15.3201 366.347 15.7135 366.07 16.2627C365.807 16.797 365.662 17.4947 365.634 18.3556C365.62 18.9938 365.613 19.595 365.613 20.159C365.613 20.7082 365.62 21.3094 365.634 21.9625C365.675 23.2539 365.98 24.189 366.547 24.7679C367.115 25.332 367.842 25.614 368.727 25.614Z" fill="white"/>
<path d="M155.458 38.5783L376.767 38.0723" stroke="white" stroke-width="4"/>
<path d="M153.329 34.0241L149.325 38.3179L153.329 42.6116L157.333 38.3179L153.329 34.0241Z" fill="white"/>
<path d="M376.998 33.5181L372.994 37.8118L376.998 42.1056L381.002 37.8118L376.998 33.5181Z" fill="white"/>
<path d="M46.4727 0.494142C44.7286 1.20895 44.3134 3.90945 45.1439 9.90619C46.0159 15.9029 47.5943 18.7622 50.1278 18.7622C51.0829 18.7622 51.4981 19.0005 51.7888 19.7551C52.2871 20.9862 51.9964 21.8202 50.5846 23.2498C49.5044 24.3618 49.5044 24.4015 50.3354 24.9575C51.8303 26.0298 53.2011 26.0695 57.8109 25.1958C60.3444 24.6795 62.7948 24.3221 63.2931 24.3221C64.4143 24.3221 66.408 26.546 66.2419 27.658C66.1173 28.4126 65.8681 28.492 62.9609 28.492C59.8045 28.492 58.4337 28.9685 58.4337 30.0805C58.4337 31.1528 57.0219 31.5896 52.7859 31.9073C47.6774 32.3045 45.5176 33.059 43.5659 35.2433C42.4027 36.4744 42.1951 36.9509 42.4027 37.9834C44.3549 47.038 44.2303 49.1031 41.6968 54.3056L39.9523 57.8796L39.8277 69.3967C39.7447 75.7109 39.8277 81.5094 39.9523 82.2239L40.2014 83.5345L41.4477 82.065C42.8595 80.3577 45.3515 76.2275 49.9202 68.0067C53.7825 61.0964 56.0253 57.7212 56.2329 58.3563C56.5236 59.1108 55.7346 61.1364 52.7443 67.6094C48.3833 76.982 46.2235 80.5166 42.6519 83.8923C39.3294 87.0691 33.2659 91.1993 26.87 94.6544L22.9661 96.759L26.4547 98.3479C30.4002 100.175 32.5183 100.413 33.9304 99.1818C34.4705 98.7446 36.2146 96.759 37.876 94.8133C39.5786 92.8277 43.4824 88.6575 46.5977 85.4807C53.6579 78.3321 57.3126 74.0036 59.4723 70.3101C61.5486 66.736 62.4211 66.2988 62.0058 69.0395C61.2164 74.0036 58.1015 78.1337 44.9778 91.4376C38.9557 97.5534 35.4256 101.763 35.9239 102.24C36.7544 103.034 41.3646 103.788 46.8469 104.026L52.4947 104.265L52.9935 100.572C53.7825 94.535 55.0697 93.6616 55.1113 99.1818C55.1113 103.987 54.9867 103.828 59.5554 103.51C67.4461 102.954 67.7368 102.716 64.6634 98.5068C62.9609 96.2033 62.4626 95.0911 62.2965 93.5821L62.0889 91.636L65.3698 94.8927C69.3982 98.9035 71.7656 100.095 74.133 99.3407C76.0847 98.7446 79.4902 97.1167 79.7809 96.64C79.9059 96.4417 78.2445 95.2105 76.0847 93.8599C71.3504 90.8815 68.0694 87.5058 65.9927 83.5345L64.4558 80.5561V70.5879C64.4143 65.1471 64.2897 60.0241 64.0821 59.2697C63.5838 57.3635 62.3796 55.06 60.552 52.7171C58.3507 49.8976 57.9354 49.0237 57.9354 47.3158C57.977 45.1318 61.0088 39.8103 62.2135 39.8103C62.3796 39.8103 63.6668 41.955 65.0792 44.6157C68.111 50.1359 71.6826 55.6956 76.0432 61.3747C77.7046 63.5987 79.5733 66.2594 80.1966 67.2522C81.2763 69.0789 81.2763 69.0789 80.4873 70.0718C80.0305 70.5879 78.5767 71.6207 77.2063 72.2957C74.2161 73.8447 73.4682 74.5592 74.0915 75.4731C74.2991 75.8698 75.0051 76.307 75.5864 76.5053C76.4584 76.8231 76.8741 76.6642 78.1199 75.6714C80.4458 73.6858 87.4644 69.3967 93.6111 66.1799C99.9654 62.8837 101.295 61.8909 101.129 60.6597C100.879 59.1507 99.384 59.508 96.3937 61.8514C93.1958 64.2737 90.6623 65.6238 89.1674 65.6238C87.2153 65.6238 84.6403 64.0354 82.522 61.4542C78.7012 56.8868 68.6093 39.8897 69.2737 39.2146C69.3982 39.0954 70.644 39.8103 72.0148 40.8033C74.6313 42.6695 77.0402 43.3845 80.6949 43.3845C82.6881 43.3845 82.7296 43.3845 83.0623 47.1575C83.2284 48.6664 83.5191 49.3415 84.3911 50.0165C85.6369 51.0493 87.9627 51.2477 88.7517 50.3343C89.4996 49.4604 88.9598 48.547 87.589 48.547C86.9661 48.547 86.0526 48.3092 85.5953 47.9914C84.8479 47.4353 84.8479 47.3158 85.4292 46.2836C85.9695 45.3702 86.3848 45.1318 87.9212 45.0524C91.3683 44.8141 94.1509 46.7997 94.1509 49.5798C94.1509 50.6121 93.4865 51.3271 89.209 54.9411C87.7966 56.1323 87.506 56.609 87.506 57.8401C87.506 60.9375 90.5793 64.0354 92.4899 62.8442C92.9882 62.4864 92.8221 62.2086 91.4513 61.0569L89.7903 59.7069L90.6623 58.5946C91.1606 57.999 92.2408 57.0857 93.1128 56.609C95.6463 55.2589 96.9335 53.8689 97.8471 51.486C99.5086 47.3158 98.7611 44.139 95.3971 41.24C92.4484 38.6983 91.0776 38.4997 85.8445 40.0089C80.1551 41.6372 76.0016 41.2 73.3021 38.738C72.0978 37.626 71.7656 36.6332 72.6792 36.6332C72.9283 36.6332 74.133 37.1098 75.2542 37.626C76.8322 38.3806 77.9953 38.6189 80.0305 38.6189C83.6437 38.6189 85.6369 38.0232 87.4229 36.4347C88.9178 35.1241 88.9598 35.0447 88.9598 32.1456C88.9598 28.8891 88.4195 27.8169 86.1356 26.1489C83.5191 24.2824 78.5767 25.5135 76.9157 28.4523C76.0847 29.9217 74.4237 30.8351 73.0944 30.5968C72.5546 30.5174 72.1809 29.7628 71.6826 27.8169C70.4779 23.0513 68.194 20.3111 64.9961 19.7551C63.0855 19.3976 61.6732 18.1268 62.5872 17.5708C62.9194 17.3325 63.7084 17.1737 64.3728 17.1737C65.9097 17.1737 65.7851 16.4986 63.8329 14.2349C62.0058 12.1301 61.9228 11.8521 62.7948 10.4224C63.8329 8.67509 63.5423 7.12625 61.6732 4.42575C59.0571 0.732378 58.2261 0.295579 54.0731 0.295579C51.3735 0.295579 50.46 0.454419 49.8371 0.970665C48.7985 1.88409 48.6324 1.84437 48.3418 0.89127C48.0926 0.0175683 47.885 -0.0221544 46.4727 0.494142Z" fill="#918CCB"/>
<path d="M17.6086 6.09371C16.5704 6.6894 15.2413 9.3899 15.2413 10.9785C15.2413 12.011 15.5736 12.7258 16.4873 13.5995C17.6502 14.7512 17.7333 14.9895 17.7333 17.968C17.7333 21.4231 17.0272 23.925 15.449 26.1886C14.5768 27.3403 14.4107 28.0949 14.4107 30.3585C14.4107 33.2576 13.8708 34.6873 12.2511 36.0773C10.6314 37.5069 9.59309 37.8246 5.68912 38.1821C1.78516 38.5395 0.705322 38.9763 0.705322 40.2869C0.705322 41.0017 0.912995 41.0417 2.15893 40.8428C5.73065 40.2074 5.97985 41.1606 3.82022 47.5942C2.15893 52.5188 1.61901 55.9734 2.28356 57.1651C2.90653 58.2768 5.27378 59.2697 7.22579 59.2697C8.47172 59.2697 9.26084 58.9519 10.4237 57.9591C12.9156 55.9339 12.874 54.7822 10.2576 45.3702L9.30237 41.9945L10.4653 41.2C11.1297 40.7633 12.791 39.4926 14.2031 38.3409L16.778 36.2758L18.6054 38.0629C20.682 40.128 22.2186 41.0017 23.7553 41.0017C24.3367 41.0017 24.7936 41.24 24.7936 41.5178C24.7936 41.8356 24.1291 44.3374 23.34 47.1175C21.5541 53.3527 21.1804 56.0134 21.8864 57.324C24.0875 61.2553 30.5665 59.4685 31.6463 54.6233C31.9785 53.0744 31.1479 50.0565 29.3621 46.4819C27.3685 42.4312 27.8669 40.6045 31.0233 40.6045C31.8955 40.6045 32.7261 40.4457 32.8922 40.2471C33.266 39.6515 31.8539 39.0954 29.0298 38.6586C25.3335 38.1026 22.9247 36.951 22.0525 35.3624C21.5957 34.5284 21.2634 32.8207 21.1388 30.6763C21.0557 28.8097 20.682 26.7843 20.3497 26.1886C19.9344 25.4341 19.7683 23.6073 19.7683 19.9537C19.7683 12.4479 20.059 12.289 23.0493 18.246C24.1706 20.6288 25.7073 23.7264 26.3718 25.1958C27.0363 26.6255 28.0746 28.0949 28.5729 28.4126C29.8605 29.2069 33.4321 30.0408 38.8312 30.8748C43.9813 31.6294 44.7287 31.3911 44.7287 29.1274C44.7287 26.6255 43.7736 26.1489 38.5405 25.9106C34.4291 25.7121 33.9305 25.6327 32.5184 24.5604C30.3588 23.0116 26.621 18.0474 23.2985 12.4081C20.142 7.00713 18.7715 5.49802 17.6086 6.09371Z" fill="#918CCB"/>
<path d="M67.4053 71.4618C66.3667 77.4982 68.1527 83.3362 72.3472 87.7841C75.0468 90.6432 77.4142 92.1126 80.6536 92.9466L83.3947 93.6216L85.7206 92.4699C88.2536 91.1993 93.4037 86.6719 92.6562 86.3941C92.3656 86.3146 91.0363 86.7913 89.666 87.4663C85.2634 89.6109 79.5324 89.4914 76.4171 87.228C74.6316 85.9174 71.226 80.8739 70.3535 78.2527C69.9798 77.1009 69.3569 74.758 68.9832 73.0502C68.6095 71.3824 68.1942 69.9923 67.9866 69.9923C67.8205 69.9923 67.5714 70.6673 67.4053 71.4618Z" fill="#918CCB"/>
<path d="M20.4327 77.9748C18.1901 79.9205 17.8578 80.9133 18.5638 83.3361C19.2698 85.679 20.9311 87.1086 23.8384 87.903C26.5379 88.618 26.9532 89.0947 25.4165 89.7697C22.8 90.9214 19.0622 90.0875 15.1583 87.5458C12.2095 85.679 12.168 85.6396 12.791 86.7118C13.5801 88.1808 17.8993 92.0732 20.059 93.2643C21.8448 94.2572 22.094 94.2971 23.5061 93.8599C25.7073 93.1054 30.6495 90.0875 33.0998 88.0224C35.2596 86.1157 36.8376 83.7334 36.8376 82.3033C36.8376 81.2311 36.3393 81.3105 35.135 82.5417C32.2692 85.4807 29.6112 85.4012 25.0843 82.2639C24.1706 81.6283 22.9662 81.1122 22.4263 81.1122C21.7202 81.1122 21.4711 80.8738 21.4711 80.1988C21.4711 77.2998 25.9149 77.9748 26.704 80.9927C26.8701 81.5489 27.2854 81.9061 27.7423 81.9061C28.3652 81.9061 28.5314 81.6283 28.5314 80.6355C28.5314 79.7221 28.1161 79.0471 26.8701 77.8554C24.5028 75.7508 22.9247 75.7903 20.4327 77.9748Z" fill="#918CCB"/>
</svg>
