<svg width="970" height="206" viewBox="0 0 970 206" fill="none" xmlns="http://www.w3.org/2000/svg">
<path d="M369.54 52.24C369.305 52.24 369.085 52.152 368.88 51.976C368.704 51.8 368.616 51.58 368.616 51.316C368.616 51.1987 368.645 51.0667 368.704 50.92L379.308 22.54C379.396 22.2467 379.557 21.9973 379.792 21.792C380.056 21.5573 380.408 21.44 380.848 21.44H385.644C386.084 21.44 386.421 21.5573 386.656 21.792C386.891 21.9973 387.067 22.2467 387.184 22.54L397.788 50.92C397.817 51.0667 397.832 51.1987 397.832 51.316C397.832 51.58 397.744 51.8 397.568 51.976C397.392 52.152 397.187 52.24 396.952 52.24H393.124C392.713 52.24 392.405 52.152 392.2 51.976C392.024 51.7707 391.907 51.58 391.848 51.404L389.78 46.036H376.712L374.644 51.404C374.585 51.58 374.453 51.7707 374.248 51.976C374.072 52.152 373.779 52.24 373.368 52.24H369.54ZM378.252 40.976H388.24L383.224 27.38L378.252 40.976ZM400.708 58.356C400.414 58.356 400.165 58.2533 399.96 58.048C399.754 57.872 399.652 57.6227 399.652 57.3V47.796C399.652 47.5027 399.754 47.2533 399.96 47.048C400.165 46.8427 400.414 46.74 400.708 46.74H401.588C402.292 46.74 402.893 46.4173 403.392 45.772C403.89 45.0973 404.301 44.1293 404.624 42.868C404.946 41.5773 405.181 39.9933 405.328 38.116C405.474 36.2387 405.548 34.0973 405.548 31.692V22.496C405.548 22.2027 405.65 21.9533 405.856 21.748C406.061 21.5427 406.325 21.44 406.648 21.44H425.524C425.846 21.44 426.11 21.5427 426.316 21.748C426.521 21.9533 426.624 22.2173 426.624 22.54V46.74H428.736C429.058 46.74 429.322 46.8427 429.528 47.048C429.733 47.2533 429.836 47.5027 429.836 47.796V57.3C429.836 57.6227 429.733 57.872 429.528 58.048C429.322 58.2533 429.058 58.356 428.736 58.356H424.776C424.453 58.356 424.189 58.2533 423.984 58.048C423.808 57.872 423.72 57.6227 423.72 57.3V52.24H405.768V57.3C405.768 57.6227 405.665 57.872 405.46 58.048C405.254 58.2533 404.99 58.356 404.668 58.356H400.708ZM409.068 46.74H420.508V26.94H411.488V32.484C411.488 36.1213 411.282 39.0987 410.872 41.416C410.461 43.704 409.86 45.4787 409.068 46.74ZM435.781 52.24C435.488 52.24 435.238 52.1373 435.033 51.932C434.828 51.7267 434.725 51.4773 434.725 51.184V22.54C434.725 22.2173 434.828 21.9533 435.033 21.748C435.238 21.5427 435.488 21.44 435.781 21.44H448.541C450.917 21.44 452.853 21.8067 454.349 22.54C455.845 23.244 456.945 24.2267 457.649 25.488C458.382 26.7493 458.749 28.216 458.749 29.888C458.749 31.0027 458.544 31.9853 458.133 32.836C457.752 33.6573 457.268 34.332 456.681 34.86C456.124 35.388 455.566 35.7987 455.009 36.092C456.153 36.62 457.165 37.5 458.045 38.732C458.925 39.964 459.365 41.4307 459.365 43.132C459.365 44.892 458.969 46.4613 458.177 47.84C457.385 49.2187 456.212 50.304 454.657 51.096C453.102 51.8587 451.181 52.24 448.893 52.24H435.781ZM440.841 47.576H448.189C449.773 47.576 450.976 47.1507 451.797 46.3C452.618 45.42 453.029 44.364 453.029 43.132C453.029 41.8413 452.604 40.7707 451.753 39.92C450.932 39.0693 449.744 38.644 448.189 38.644H440.841V47.576ZM440.841 34.068H447.749C449.304 34.068 450.462 33.7013 451.225 32.968C452.017 32.2053 452.413 31.2227 452.413 30.02C452.413 28.788 452.017 27.8347 451.225 27.16C450.462 26.456 449.304 26.104 447.749 26.104H440.841V34.068ZM476.725 52.68C474.114 52.68 471.87 52.2547 469.993 51.404C468.116 50.524 466.649 49.1893 465.593 47.4C464.537 45.5813 463.965 43.3227 463.877 40.624C463.848 39.3627 463.833 38.116 463.833 36.884C463.833 35.652 463.848 34.3907 463.877 33.1C463.965 30.4307 464.552 28.2013 465.637 26.412C466.722 24.6227 468.204 23.2733 470.081 22.364C471.988 21.4547 474.202 21 476.725 21C479.248 21 481.462 21.4547 483.369 22.364C485.276 23.2733 486.772 24.6227 487.857 26.412C488.942 28.2013 489.529 30.4307 489.617 33.1C489.676 34.3907 489.705 35.652 489.705 36.884C489.705 38.116 489.676 39.3627 489.617 40.624C489.529 43.3227 488.957 45.5813 487.901 47.4C486.845 49.1893 485.364 50.524 483.457 51.404C481.58 52.2547 479.336 52.68 476.725 52.68ZM476.725 47.62C478.632 47.62 480.186 47.0627 481.389 45.948C482.592 44.804 483.237 42.956 483.325 40.404C483.384 39.1133 483.413 37.9253 483.413 36.84C483.413 35.7253 483.384 34.5373 483.325 33.276C483.266 31.5747 482.944 30.196 482.357 29.14C481.8 28.0547 481.037 27.2773 480.069 26.808C479.101 26.3093 477.986 26.06 476.725 26.06C475.493 26.06 474.393 26.3093 473.425 26.808C472.457 27.2773 471.68 28.0547 471.093 29.14C470.536 30.196 470.228 31.5747 470.169 33.276C470.14 34.5373 470.125 35.7253 470.125 36.84C470.125 37.9253 470.14 39.1133 470.169 40.404C470.257 42.956 470.902 44.804 472.105 45.948C473.308 47.0627 474.848 47.62 476.725 47.62ZM496.539 52.24C496.245 52.24 495.996 52.152 495.791 51.976C495.585 51.7707 495.483 51.5067 495.483 51.184V22.54C495.483 22.2173 495.585 21.9533 495.791 21.748C495.996 21.5427 496.245 21.44 496.539 21.44H500.543C500.865 21.44 501.115 21.5427 501.291 21.748C501.496 21.9533 501.599 22.2173 501.599 22.54V33.892H505.427L512.599 22.232C512.745 21.9973 512.936 21.8067 513.171 21.66C513.435 21.5133 513.772 21.44 514.183 21.44H518.539C518.832 21.44 519.052 21.528 519.199 21.704C519.375 21.88 519.463 22.1 519.463 22.364C519.463 22.5107 519.404 22.6867 519.287 22.892L510.971 36.312L520.079 50.744C520.167 50.832 520.211 50.9933 520.211 51.228C520.211 51.492 520.108 51.7267 519.903 51.932C519.727 52.1373 519.492 52.24 519.199 52.24H514.667C514.285 52.24 513.992 52.152 513.787 51.976C513.611 51.8 513.464 51.6387 513.347 51.492L505.647 39.392H501.599V51.184C501.599 51.4773 501.496 51.7267 501.291 51.932C501.115 52.1373 500.865 52.24 500.543 52.24H496.539ZM523.067 52.24C522.833 52.24 522.613 52.152 522.407 51.976C522.231 51.8 522.143 51.58 522.143 51.316C522.143 51.1987 522.173 51.0667 522.231 50.92L532.835 22.54C532.923 22.2467 533.085 21.9973 533.319 21.792C533.583 21.5573 533.935 21.44 534.375 21.44H539.171C539.611 21.44 539.949 21.5573 540.183 21.792C540.418 21.9973 540.594 22.2467 540.711 22.54L551.315 50.92C551.345 51.0667 551.359 51.1987 551.359 51.316C551.359 51.58 551.271 51.8 551.095 51.976C550.919 52.152 550.714 52.24 550.479 52.24H546.651C546.241 52.24 545.933 52.152 545.727 51.976C545.551 51.7707 545.434 51.58 545.375 51.404L543.307 46.036H530.239L528.171 51.404C528.113 51.58 527.981 51.7707 527.775 51.976C527.599 52.152 527.306 52.24 526.895 52.24H523.067ZM531.779 40.976H541.767L536.751 27.38L531.779 40.976ZM563.299 52.24C563.006 52.24 562.756 52.1373 562.551 51.932C562.346 51.7267 562.243 51.4773 562.243 51.184V26.852H554.103C553.81 26.852 553.56 26.7493 553.355 26.544C553.15 26.3387 553.047 26.0893 553.047 25.796V22.54C553.047 22.2173 553.15 21.9533 553.355 21.748C553.56 21.5427 553.81 21.44 554.103 21.44H576.543C576.866 21.44 577.13 21.5427 577.335 21.748C577.54 21.9533 577.643 22.2173 577.643 22.54V25.796C577.643 26.0893 577.54 26.3387 577.335 26.544C577.13 26.7493 576.866 26.852 576.543 26.852H568.447V51.184C568.447 51.4773 568.344 51.7267 568.139 51.932C567.934 52.1373 567.67 52.24 567.347 52.24H563.299ZM593.988 52.68C591.26 52.68 588.942 52.2107 587.036 51.272C585.158 50.304 583.721 48.94 582.724 47.18C581.726 45.3907 581.169 43.2493 581.052 40.756C581.022 39.5533 581.008 38.2627 581.008 36.884C581.008 35.5053 581.022 34.1853 581.052 32.924C581.169 30.46 581.726 28.3333 582.724 26.544C583.75 24.7547 585.202 23.3907 587.08 22.452C588.986 21.484 591.289 21 593.988 21C595.982 21 597.772 21.264 599.356 21.792C600.94 22.32 602.289 23.0533 603.404 23.992C604.518 24.9013 605.384 25.972 606 27.204C606.616 28.436 606.938 29.7707 606.968 31.208C606.997 31.472 606.909 31.692 606.704 31.868C606.528 32.044 606.308 32.132 606.044 32.132H601.864C601.541 32.132 601.277 32.0587 601.072 31.912C600.866 31.736 600.72 31.4573 600.632 31.076C600.162 29.14 599.356 27.82 598.212 27.116C597.068 26.412 595.645 26.06 593.944 26.06C591.978 26.06 590.409 26.6173 589.236 27.732C588.062 28.8173 587.432 30.6213 587.344 33.144C587.256 35.5493 587.256 38.0133 587.344 40.536C587.432 43.0587 588.062 44.8773 589.236 45.992C590.409 47.0773 591.978 47.62 593.944 47.62C595.645 47.62 597.068 47.268 598.212 46.564C599.356 45.8307 600.162 44.5107 600.632 42.604C600.72 42.1933 600.866 41.9147 601.072 41.768C601.277 41.6213 601.541 41.548 601.864 41.548H606.044C606.308 41.548 606.528 41.636 606.704 41.812C606.909 41.988 606.997 42.208 606.968 42.472C606.938 43.9093 606.616 45.244 606 46.476C605.384 47.708 604.518 48.7933 603.404 49.732C602.289 50.6413 600.94 51.36 599.356 51.888C597.772 52.416 595.982 52.68 593.988 52.68ZM613.242 52.24C612.949 52.24 612.699 52.1373 612.494 51.932C612.289 51.7267 612.186 51.4773 612.186 51.184V22.496C612.186 22.2027 612.289 21.9533 612.494 21.748C612.699 21.5427 612.949 21.44 613.242 21.44H617.246C617.569 21.44 617.818 21.5427 617.994 21.748C618.199 21.9533 618.302 22.2027 618.302 22.496V32.572H623.978C627.469 32.572 630.167 33.3933 632.074 35.036C633.981 36.6493 634.934 39.0547 634.934 42.252C634.934 44.1 634.523 45.7867 633.702 47.312C632.881 48.8373 631.663 50.04 630.05 50.92C628.437 51.8 626.413 52.24 623.978 52.24H613.242ZM618.302 47.356H623.714C625.298 47.356 626.515 46.8867 627.366 45.948C628.217 44.98 628.642 43.7333 628.642 42.208C628.642 40.624 628.217 39.436 627.366 38.644C626.545 37.852 625.327 37.456 623.714 37.456H618.302V47.356ZM641 52.24C640.706 52.24 640.457 52.152 640.252 51.976C640.046 51.7707 639.944 51.5067 639.944 51.184V22.54C639.944 22.2173 640.046 21.9533 640.252 21.748C640.457 21.5427 640.706 21.44 641 21.44H645.004C645.326 21.44 645.576 21.5427 645.752 21.748C645.957 21.9533 646.06 22.2173 646.06 22.54V33.892H649.888L657.06 22.232C657.206 21.9973 657.397 21.8067 657.632 21.66C657.896 21.5133 658.233 21.44 658.644 21.44H663C663.293 21.44 663.513 21.528 663.66 21.704C663.836 21.88 663.924 22.1 663.924 22.364C663.924 22.5107 663.865 22.6867 663.748 22.892L655.432 36.312L664.54 50.744C664.628 50.832 664.672 50.9933 664.672 51.228C664.672 51.492 664.569 51.7267 664.364 51.932C664.188 52.1373 663.953 52.24 663.66 52.24H659.128C658.746 52.24 658.453 52.152 658.248 51.976C658.072 51.8 657.925 51.6387 657.808 51.492L650.108 39.392H646.06V51.184C646.06 51.4773 645.957 51.7267 645.752 51.932C645.576 52.1373 645.326 52.24 645.004 52.24H641ZM670.476 52.24C670.183 52.24 669.934 52.1373 669.728 51.932C669.523 51.7267 669.42 51.4773 669.42 51.184V22.54C669.42 22.2173 669.523 21.9533 669.728 21.748C669.934 21.5427 670.183 21.44 670.476 21.44H689.836C690.159 21.44 690.423 21.5427 690.628 21.748C690.834 21.9533 690.936 22.2173 690.936 22.54V25.444C690.936 25.7373 690.834 25.9867 690.628 26.192C690.423 26.3973 690.159 26.5 689.836 26.5H675.36V34.288H688.868C689.191 34.288 689.455 34.3907 689.66 34.596C689.866 34.772 689.968 35.0213 689.968 35.344V38.072C689.968 38.3947 689.866 38.6587 689.66 38.864C689.455 39.04 689.191 39.128 688.868 39.128H675.36V47.18H690.188C690.511 47.18 690.775 47.2827 690.98 47.488C691.186 47.6933 691.288 47.9573 691.288 48.28V51.184C691.288 51.4773 691.186 51.7267 690.98 51.932C690.775 52.1373 690.511 52.24 690.188 52.24H670.476ZM707.902 52.24C707.609 52.24 707.359 52.1373 707.154 51.932C706.949 51.7267 706.846 51.4773 706.846 51.184V22.54C706.846 22.2173 706.949 21.9533 707.154 21.748C707.359 21.5427 707.609 21.44 707.902 21.44H728.054C728.377 21.44 728.626 21.5427 728.802 21.748C729.007 21.9533 729.11 22.2173 729.11 22.54V25.62C729.11 25.9133 729.007 26.1627 728.802 26.368C728.626 26.5733 728.377 26.676 728.054 26.676H712.962V33.716H720.398C723.713 33.716 726.309 34.5373 728.186 36.18C730.063 37.8227 731.002 40.052 731.002 42.868C731.002 44.0707 730.767 45.244 730.298 46.388C729.858 47.5027 729.198 48.5 728.318 49.38C727.438 50.26 726.338 50.964 725.018 51.492C723.698 51.9907 722.158 52.24 720.398 52.24H707.902ZM712.962 47.576H719.782C720.838 47.576 721.733 47.356 722.466 46.916C723.199 46.476 723.757 45.8893 724.138 45.156C724.519 44.4227 724.71 43.6307 724.71 42.78C724.71 41.4893 724.299 40.4187 723.478 39.568C722.657 38.7173 721.425 38.292 719.782 38.292H712.962V47.576ZM760.369 52.68C758.287 52.68 756.453 52.4013 754.869 51.844C753.315 51.2573 752.009 50.4507 750.953 49.424C749.927 48.3973 749.135 47.18 748.577 45.772C748.02 44.3347 747.683 42.7507 747.565 41.02C747.536 40.7267 747.507 40.448 747.477 40.184C747.477 39.92 747.477 39.656 747.477 39.392H741.493V51.184C741.493 51.4773 741.391 51.7267 741.185 51.932C741.009 52.1373 740.76 52.24 740.437 52.24H736.433C736.14 52.24 735.891 52.152 735.685 51.976C735.48 51.7707 735.377 51.5067 735.377 51.184V22.496C735.377 22.2027 735.48 21.9533 735.685 21.748C735.891 21.5427 736.14 21.44 736.433 21.44H740.437C740.76 21.44 741.009 21.5427 741.185 21.748C741.391 21.9533 741.493 22.2027 741.493 22.496V33.892H747.521C747.521 33.6867 747.521 33.4667 747.521 33.232C747.551 32.968 747.565 32.7187 747.565 32.484C747.712 30.8707 748.064 29.36 748.621 27.952C749.179 26.544 749.971 25.3267 750.997 24.3C752.053 23.2733 753.359 22.4667 754.913 21.88C756.468 21.2933 758.287 21 760.369 21C762.54 21 764.417 21.308 766.001 21.924C767.585 22.5107 768.905 23.3467 769.961 24.432C771.017 25.5173 771.809 26.808 772.337 28.304C772.865 29.7707 773.173 31.3693 773.261 33.1C773.32 34.3907 773.349 35.652 773.349 36.884C773.349 38.116 773.32 39.3627 773.261 40.624C773.173 42.4133 772.851 44.0413 772.293 45.508C771.765 46.9747 770.973 48.2507 769.917 49.336C768.891 50.392 767.585 51.2133 766.001 51.8C764.417 52.3867 762.54 52.68 760.369 52.68ZM760.369 47.62C761.631 47.62 762.745 47.3853 763.713 46.916C764.681 46.4467 765.444 45.6987 766.001 44.672C766.588 43.616 766.911 42.2373 766.969 40.536C767.028 39.2453 767.057 38.0133 767.057 36.84C767.057 35.6373 767.028 34.4053 766.969 33.144C766.911 31.4427 766.588 30.0787 766.001 29.052C765.444 27.996 764.681 27.2333 763.713 26.764C762.745 26.2947 761.631 26.06 760.369 26.06C759.167 26.06 758.067 26.2947 757.069 26.764C756.101 27.2333 755.324 27.996 754.737 29.052C754.18 30.0787 753.872 31.4427 753.813 33.144C753.784 34.4053 753.769 35.6373 753.769 36.84C753.769 38.0133 753.784 39.2453 753.813 40.536C753.872 42.2373 754.18 43.616 754.737 44.672C755.324 45.6987 756.101 46.4467 757.069 46.916C758.037 47.3853 759.137 47.62 760.369 47.62ZM780.176 52.24C779.882 52.24 779.633 52.1373 779.428 51.932C779.222 51.7267 779.12 51.4773 779.12 51.184V22.54C779.12 22.2173 779.222 21.9533 779.428 21.748C779.633 21.5427 779.882 21.44 780.176 21.44H791.968C794.256 21.44 796.25 21.8067 797.952 22.54C799.653 23.244 800.973 24.3293 801.912 25.796C802.85 27.2333 803.32 29.0373 803.32 31.208C803.32 33.408 802.85 35.2267 801.912 36.664C800.973 38.072 799.653 39.128 797.952 39.832C796.25 40.536 794.256 40.888 791.968 40.888H785.412V51.184C785.412 51.4773 785.309 51.7267 785.104 51.932C784.928 52.1373 784.678 52.24 784.356 52.24H780.176ZM785.324 36.004H791.748C793.449 36.004 794.754 35.608 795.664 34.816C796.573 33.9947 797.028 32.792 797.028 31.208C797.028 29.7413 796.602 28.568 795.752 27.688C794.901 26.7787 793.566 26.324 791.748 26.324H785.324V36.004ZM819.959 52.68C817.349 52.68 815.105 52.2547 813.227 51.404C811.35 50.524 809.883 49.1893 808.827 47.4C807.771 45.5813 807.199 43.3227 807.111 40.624C807.082 39.3627 807.067 38.116 807.067 36.884C807.067 35.652 807.082 34.3907 807.111 33.1C807.199 30.4307 807.786 28.2013 808.871 26.412C809.957 24.6227 811.438 23.2733 813.315 22.364C815.222 21.4547 817.437 21 819.959 21C822.482 21 824.697 21.4547 826.603 22.364C828.51 23.2733 830.006 24.6227 831.091 26.412C832.177 28.2013 832.763 30.4307 832.851 33.1C832.91 34.3907 832.939 35.652 832.939 36.884C832.939 38.116 832.91 39.3627 832.851 40.624C832.763 43.3227 832.191 45.5813 831.135 47.4C830.079 49.1893 828.598 50.524 826.691 51.404C824.814 52.2547 822.57 52.68 819.959 52.68ZM819.959 47.62C821.866 47.62 823.421 47.0627 824.623 45.948C825.826 44.804 826.471 42.956 826.559 40.404C826.618 39.1133 826.647 37.9253 826.647 36.84C826.647 35.7253 826.618 34.5373 826.559 33.276C826.501 31.5747 826.178 30.196 825.591 29.14C825.034 28.0547 824.271 27.2773 823.303 26.808C822.335 26.3093 821.221 26.06 819.959 26.06C818.727 26.06 817.627 26.3093 816.659 26.808C815.691 27.2773 814.914 28.0547 814.327 29.14C813.77 30.196 813.462 31.5747 813.403 33.276C813.374 34.5373 813.359 35.7253 813.359 36.84C813.359 37.9253 813.374 39.1133 813.403 40.404C813.491 42.956 814.137 44.804 815.339 45.948C816.542 47.0627 818.082 47.62 819.959 47.62Z" fill="black"/>
<path d="M367.996 73.24L836.996 72.24" stroke="black" stroke-width="4"/>
<path d="M363.485 64.24L355 72.7253L363.485 81.2106L371.971 72.7253L363.485 64.24Z" fill="black"/>
<path d="M837.485 63.24L829 71.7253L837.485 80.2106L845.971 71.7253L837.485 63.24Z" fill="black"/>
<path d="M96.9906 0.663397C93.2946 2.076 92.4146 7.4127 94.1746 19.2634C96.0226 31.114 99.3676 36.7646 104.737 36.7646C106.761 36.7646 107.641 37.2355 108.257 38.7267C109.313 41.1596 108.697 42.8077 105.705 45.633C103.416 47.8305 103.416 47.9089 105.177 49.0077C108.345 51.1267 111.25 51.2051 121.019 49.4786C126.388 48.4583 131.581 47.752 132.637 47.752C135.013 47.752 139.238 52.1469 138.886 54.3444C138.622 55.8355 138.094 55.9925 131.933 55.9925C125.244 55.9925 122.339 56.9342 122.339 59.1317C122.339 61.2507 119.347 62.114 110.37 62.7418C99.5436 63.5267 94.9666 65.0178 90.8306 69.3343C88.3656 71.7672 87.9256 72.7089 88.3656 74.7494C92.5026 92.643 92.2386 96.724 86.8696 107.005L83.1726 114.068L82.9086 136.828C82.7326 149.306 82.9086 160.765 83.1726 162.177L83.7006 164.767L86.3416 161.863C89.3336 158.489 94.6146 150.327 104.297 134.081C112.482 120.425 117.235 113.755 117.675 115.01C118.291 116.501 116.619 120.504 110.282 133.296C101.04 151.818 96.4626 158.803 88.8936 165.474C81.8526 171.752 69.0027 179.914 55.4486 186.742L47.1753 190.901L54.5685 194.041C62.9298 197.651 67.4185 198.122 70.4109 195.689C71.5556 194.825 75.2516 190.901 78.7726 187.056C82.3806 183.132 90.6536 174.891 97.2556 168.613C112.218 154.486 119.963 145.932 124.54 138.633C128.94 131.57 130.789 130.706 129.909 136.122C128.236 145.932 121.635 154.094 93.8226 180.385C81.0606 192.471 73.5796 200.79 74.6356 201.732C76.3956 203.301 86.1656 204.792 97.7836 205.263L109.753 205.734L110.81 198.436C112.482 186.506 115.21 184.78 115.298 195.689C115.298 205.185 115.034 204.871 124.716 204.243C141.438 203.144 142.054 202.674 135.541 194.355C131.933 189.803 130.877 187.605 130.525 184.623L130.085 180.777L137.038 187.213C145.575 195.139 150.592 197.494 155.609 196.003C159.745 194.825 166.962 191.608 167.578 190.666C167.843 190.274 164.322 187.841 159.745 185.172C149.712 179.286 142.759 172.615 138.358 164.767L135.101 158.881V139.182C135.013 128.43 134.749 118.306 134.309 116.815C133.253 113.048 130.701 108.496 126.828 103.866C122.163 98.294 121.283 96.567 121.283 93.192C121.371 88.876 127.796 78.3596 130.349 78.3596C130.701 78.3596 133.429 82.598 136.422 87.856C142.847 98.765 150.416 109.752 159.657 120.975C163.178 125.37 167.138 130.628 168.459 132.59C170.747 136.2 170.747 136.2 169.075 138.162C168.107 139.182 165.026 141.223 162.122 142.557C155.785 145.618 154.2 147.03 155.521 148.836C155.961 149.62 157.457 150.484 158.689 150.876C160.537 151.504 161.418 151.19 164.058 149.228C168.987 145.304 183.861 136.828 196.887 130.471C210.353 123.957 213.17 121.995 212.818 119.562C212.289 116.58 209.121 117.286 202.784 121.917C196.007 126.704 190.638 129.372 187.47 129.372C183.333 129.372 177.876 126.233 173.387 121.132C165.29 112.106 143.903 78.5165 145.311 77.1824C145.575 76.9469 148.215 78.3596 151.12 80.322C156.665 84.01 161.77 85.423 169.515 85.423C173.739 85.423 173.827 85.423 174.532 92.879C174.884 95.861 175.5 97.195 177.348 98.529C179.988 100.57 184.917 100.962 186.589 99.157C188.174 97.43 187.03 95.625 184.125 95.625C182.805 95.625 180.869 95.155 179.9 94.527C178.316 93.428 178.316 93.192 179.548 91.152C180.693 89.347 181.573 88.876 184.829 88.719C192.134 88.248 198.031 92.172 198.031 97.666C198.031 99.706 196.623 101.119 187.558 108.261C184.565 110.615 183.949 111.557 183.949 113.99C183.949 120.111 190.462 126.233 194.511 123.879C195.567 123.172 195.215 122.623 192.31 120.347L188.79 117.679L190.638 115.481C191.694 114.304 193.983 112.499 195.831 111.557C201.2 108.889 203.928 106.142 205.864 101.433C209.385 93.192 207.801 86.914 200.672 81.185C194.423 76.1621 191.518 75.7697 180.428 78.752C168.371 81.97 159.569 81.106 153.848 76.2406C151.296 74.0431 150.592 72.0811 152.528 72.0811C153.056 72.0811 155.609 73.0229 157.985 74.0431C161.329 75.5343 163.794 76.0051 168.107 76.0051C175.764 76.0051 179.988 74.8279 183.773 71.6887C186.941 69.0988 187.03 68.9418 187.03 63.2127C187.03 56.7773 185.885 54.6583 181.045 51.3621C175.5 47.6735 165.026 50.1064 161.506 55.914C159.745 58.8178 156.225 60.6229 153.408 60.152C152.264 59.995 151.472 58.5039 150.416 54.6583C147.863 45.2406 143.023 39.8254 136.246 38.7267C132.197 38.0203 129.204 35.5089 131.141 34.4102C131.845 33.9393 133.517 33.6254 134.925 33.6254C138.182 33.6254 137.918 32.2912 133.781 27.8178C129.909 23.6583 129.733 23.1089 131.581 20.2836C133.781 16.8305 133.165 13.7697 129.204 8.433C123.66 1.1342 121.899 0.270998 113.098 0.270998C107.377 0.270998 105.441 0.584897 104.121 1.6051C101.92 3.4102 101.568 3.3317 100.952 1.4482C100.424 -0.278404 99.9836 -0.356903 96.9906 0.663397Z" fill="#918CCB"/>
<path d="M35.8216 11.7292C33.6213 12.9064 30.8048 18.2431 30.8048 21.3824C30.8048 23.4229 31.5089 24.8355 33.4452 26.5621C35.9096 28.8381 36.0857 29.309 36.0857 35.195C36.0857 42.0229 34.5894 46.9672 31.2449 51.4406C29.3966 53.7165 29.0446 55.2077 29.0446 59.6811C29.0446 65.4102 27.9004 68.2355 24.4678 70.9824C21.0353 73.8077 18.835 74.4355 10.5617 75.1419C2.2884 75.8482 0 76.7115 0 79.3014C0 80.714 0.440102 80.793 3.0805 80.4C10.6497 79.1444 11.1778 81.028 6.6011 93.742C3.0805 103.474 1.9363 110.301 3.3446 112.656C4.6648 114.853 9.6815 116.815 13.8182 116.815C16.4586 116.815 18.1309 116.187 20.5952 114.225C25.8761 110.223 25.788 107.947 20.2432 89.347L18.2189 82.676L20.6833 81.106C22.0915 80.243 25.612 77.7317 28.6045 75.4558L34.0613 71.3748L37.9339 74.9064C42.3346 78.9874 45.5911 80.714 48.8476 80.714C50.0798 80.714 51.048 81.185 51.048 81.734C51.048 82.362 49.6398 87.306 47.9675 92.8C44.1829 105.122 43.3908 110.38 44.887 112.97C49.5517 120.739 63.2819 117.208 65.5702 107.633C66.2743 104.572 64.5141 98.608 60.7295 91.544C56.5048 83.539 57.561 79.929 64.25 79.929C66.0983 79.929 67.8586 79.6153 68.2107 79.2229C69.0028 78.0457 66.0103 76.9469 60.0254 76.0836C52.1922 74.9849 47.0874 72.709 45.2391 69.5697C44.2709 67.9216 43.5668 64.5469 43.3028 60.309C43.1267 56.6203 42.3346 52.6178 41.6305 51.4406C40.7504 49.9495 40.3983 46.3393 40.3983 39.1191C40.3983 24.2862 41.0144 23.9722 47.3514 35.7444C49.7278 40.4533 52.9843 46.5748 54.3925 49.4786C55.8007 52.3039 58.0011 55.2077 59.0572 55.8355C61.7857 57.4052 69.3548 59.0533 80.7966 60.7014C91.7106 62.1925 93.2946 61.7216 93.2946 57.2482C93.2946 52.3039 91.2706 51.3621 80.1806 50.8912C71.4676 50.4988 70.411 50.3419 67.4185 48.2229C62.8418 45.1621 54.9206 35.352 47.8795 24.2077C41.1904 13.5343 38.286 10.552 35.8216 11.7292Z" fill="#918CCB"/>
<path d="M141.35 140.909C139.149 152.838 142.934 164.375 151.823 173.165C157.544 178.815 162.561 181.719 169.426 183.367L175.235 184.701L180.164 182.425C185.532 179.914 196.446 170.967 194.862 170.418C194.246 170.261 191.429 171.203 188.525 172.537C179.195 176.775 167.05 176.539 160.448 172.066C156.664 169.476 149.447 159.509 147.598 154.329C146.806 152.053 145.486 147.423 144.694 144.048C143.902 140.752 143.022 138.005 142.582 138.005C142.23 138.005 141.702 139.339 141.35 140.909Z" fill="#918CCB"/>
<path d="M41.8064 153.78C37.0537 157.625 36.3496 159.587 37.8458 164.375C39.342 169.005 42.8626 171.83 49.0236 173.4C54.7444 174.813 55.6246 175.755 52.3681 177.089C46.8232 179.365 38.902 177.717 30.6287 172.694C24.3797 169.005 24.2917 168.927 25.6119 171.046C27.2842 173.949 36.4376 181.641 41.0143 183.995C44.7989 185.957 45.327 186.036 48.3194 185.172C52.9842 183.681 63.4578 177.717 68.6506 173.636C73.2276 169.868 76.5716 165.16 76.5716 162.334C76.5716 160.215 75.5156 160.372 72.9636 162.805C66.8903 168.613 61.2575 168.456 51.664 162.256C49.7277 161 47.1753 159.98 46.0311 159.98C44.5349 159.98 44.0068 159.509 44.0068 158.175C44.0068 152.446 53.4242 153.78 55.0965 159.744C55.4486 160.843 56.3287 161.549 57.2968 161.549C58.617 161.549 58.9691 161 58.9691 159.038C58.9691 157.233 58.089 155.899 55.4486 153.544C50.4318 149.385 47.0873 149.463 41.8064 153.78Z" fill="#918CCB"/>
<path d="M278.664 92.76C273.864 92.504 269.576 93.048 265.8 94.392C262.088 95.736 258.92 97.56 256.296 99.864C253.736 102.104 251.752 104.568 250.344 107.256C249 109.944 248.328 112.536 248.328 115.032C248.328 117.4 248.872 119.352 249.96 120.888C251.048 122.36 252.456 123.448 254.184 124.152C255.976 124.856 257.8 125.208 259.656 125.208C261.96 125.208 263.976 124.728 265.704 123.768C267.432 122.808 268.872 121.656 270.024 120.312C271.24 118.904 272.136 117.592 272.712 116.376C273.352 115.096 273.672 114.168 273.672 113.592V113.496C273.992 113.112 274.312 112.92 274.632 112.92C275.272 112.92 275.592 113.368 275.592 114.264C275.272 117.016 274.28 119.416 272.616 121.464C271.016 123.512 269.064 125.08 266.76 126.168C264.456 127.256 262.024 127.8 259.464 127.8C256.84 127.8 254.312 127.16 251.88 125.88C249.448 124.6 247.464 122.744 245.928 120.312C244.392 117.88 243.624 114.936 243.624 111.48C243.624 108.664 244.232 105.88 245.448 103.128C246.728 100.312 248.616 97.752 251.112 95.448C253.672 93.08 256.904 91.192 260.808 89.784C264.712 88.376 269.32 87.672 274.632 87.672C279.112 87.672 283.176 88.088 286.824 88.92C290.536 89.688 294.056 90.68 297.384 91.896C300.776 93.112 304.168 94.328 307.56 95.544C308.648 94.136 309.96 92.696 311.496 91.224C313.096 89.752 314.728 89.016 316.392 89.016C317.672 89.016 318.312 89.4 318.312 90.168C318.312 90.936 317.864 91.32 316.968 91.32C315.816 91.32 314.6 91.928 313.32 93.144C312.04 94.296 311.016 95.384 310.248 96.408L310.44 96.504C313.704 97.528 317.16 98.52 320.808 99.48C324.52 100.376 328.2 101.112 331.848 101.688C335.496 102.2 338.856 102.456 341.928 102.456C344.808 102.456 346.856 102.232 348.072 101.784C349.352 101.336 349.992 100.6 349.992 99.576C349.992 98.616 350.248 98.136 350.76 98.136C351.272 98.136 351.592 98.424 351.72 99C351.912 99.512 352.008 99.928 352.008 100.248C352.008 101.784 351.08 103.032 349.224 103.992C347.368 104.952 344.488 105.432 340.584 105.432C338.92 105.432 336.808 105.272 334.248 104.952C331.688 104.568 328.904 104.056 325.896 103.416C322.952 102.776 320.008 102.04 317.064 101.208C314.184 100.376 311.528 99.512 309.096 98.616C309.032 98.616 308.968 98.584 308.904 98.52C308.136 99.864 307.496 101.08 306.984 102.168C306.472 103.192 305.896 104.568 305.256 106.296C304.104 109.304 302.952 112.408 301.8 115.608C300.712 118.744 299.688 121.656 298.728 124.344C297.768 126.968 297 129.112 296.424 130.776C294.504 136.408 291.944 141.88 288.744 147.192C285.544 152.504 281.768 157.304 277.416 161.592C273.064 165.88 268.136 169.272 262.632 171.768C257.128 174.328 251.08 175.608 244.488 175.608C240.776 175.608 237 175.16 233.16 174.264C229.384 173.432 225.896 172.024 222.696 170.04C219.56 168.056 217.032 165.368 215.112 161.976C213.192 158.648 212.232 154.488 212.232 149.496C212.232 145.912 212.84 142.552 214.056 139.416C215.272 136.28 216.872 133.752 218.856 131.832C220.84 129.848 222.952 128.856 225.192 128.856C225.96 128.856 226.344 129.048 226.344 129.432C226.344 129.816 225.928 130.136 225.096 130.392C223.496 130.776 221.928 131.768 220.392 133.368C218.92 134.904 217.704 136.952 216.744 139.512C215.784 142.072 215.304 145.112 215.304 148.632C215.304 152.856 216.168 156.312 217.896 159C219.688 161.688 221.96 163.8 224.712 165.336C227.464 166.872 230.312 167.928 233.256 168.504C236.264 169.144 239.016 169.464 241.512 169.464C247.784 169.464 253.544 168.344 258.792 166.104C264.104 163.928 268.904 160.888 273.192 156.984C277.48 153.08 281.256 148.6 284.52 143.544C287.784 138.424 290.568 132.952 292.872 127.128C294.152 123.928 295.592 120.472 297.192 116.76C298.792 112.984 300.328 109.432 301.8 106.104C303.592 102.264 305.064 99.416 306.216 97.56C302.888 96.472 299.016 95.48 294.6 94.584C290.248 93.688 284.936 93.08 278.664 92.76ZM314.376 115.608C316.424 111.192 318.376 108.6 320.232 107.832C322.536 107 324.136 106.584 325.032 106.584C325.352 106.584 325.512 106.648 325.512 106.776C325.512 106.968 325.128 107.288 324.36 107.736C323.912 107.928 323.144 108.824 322.056 110.424C321.032 112.024 319.88 114.2 318.6 116.952C317.768 118.808 316.808 121.176 315.72 124.056C314.632 126.936 313.512 130.072 312.36 133.464C311.208 136.856 310.088 140.248 309 143.64C307.976 147.032 307.048 150.2 306.216 153.144C305.448 156.088 304.904 158.52 304.584 160.44C304.456 161.4 304.008 162.104 303.24 162.552C302.536 163 301.704 163.224 300.744 163.224C299.912 163.224 299.176 163.032 298.536 162.648C297.896 162.328 297.672 161.816 297.864 161.112C298.44 158.872 299.208 156.216 300.168 153.144C301.192 150.008 302.312 146.712 303.528 143.256C304.744 139.736 305.992 136.248 307.272 132.792C308.616 129.336 309.896 126.136 311.112 123.192C312.328 120.184 313.416 117.656 314.376 115.608ZM318.696 153.624C318.696 151.768 318.888 149.848 319.272 147.864C319.72 145.816 320.168 143.896 320.616 142.104C321.64 138.392 323.048 134.36 324.84 130.008C326.632 125.592 328.456 121.432 330.312 117.528C331.4 115.288 332.552 113.528 333.768 112.248C334.984 110.904 336.04 110.072 336.936 109.752C339.496 108.92 341.256 108.504 342.216 108.504C342.6 108.504 342.792 108.568 342.792 108.696C342.792 108.888 342.344 109.208 341.448 109.656C341 109.848 340.168 110.744 338.952 112.344C337.8 113.944 336.488 116.12 335.016 118.872C333.032 122.584 331.304 126.52 329.832 130.68C328.36 134.776 327.176 138.712 326.28 142.488C326.024 143.768 325.672 145.432 325.224 147.48C324.84 149.464 324.648 151.384 324.648 153.24C324.648 154.904 324.904 156.344 325.416 157.56C325.928 158.776 326.888 159.384 328.296 159.384C329.832 159.384 331.336 158.744 332.808 157.464C334.28 156.184 335.656 154.584 336.936 152.664C338.28 150.68 339.496 148.6 340.584 146.424C341.672 144.248 342.6 142.264 343.368 140.472C344.136 140.472 344.52 140.76 344.52 141.336C343.624 143.448 342.6 145.752 341.448 148.248C340.296 150.68 338.984 153.016 337.512 155.256C336.04 157.432 334.376 159.192 332.52 160.536C330.664 161.944 328.584 162.648 326.28 162.648C323.336 162.648 321.32 161.752 320.232 159.96C319.208 158.232 318.696 156.12 318.696 153.624ZM350.264 159.384C347.896 159.384 345.752 158.616 343.832 157.08C341.976 155.544 341.048 153.208 341.048 150.072C341.048 147.448 341.624 144.664 342.776 141.72C343.992 138.776 345.56 136.024 347.48 133.464C349.464 130.84 351.64 128.728 354.008 127.128C356.44 125.464 358.872 124.632 361.304 124.632C362.52 124.632 363.704 124.984 364.856 125.688C366.008 126.392 366.584 127.608 366.584 129.336C366.584 130.936 365.976 132.696 364.76 134.616C363.544 136.536 361.816 138.328 359.576 139.992C358.616 140.696 357.4 141.368 355.928 142.008C354.456 142.648 352.984 143.192 351.512 143.64C350.04 144.024 348.824 144.216 347.864 144.216C347.544 144.984 347.224 146.008 346.904 147.288C346.648 148.568 346.52 149.88 346.52 151.224C346.52 152.824 346.84 154.264 347.48 155.544C348.12 156.824 349.304 157.464 351.032 157.464C353.144 157.464 355.096 156.856 356.888 155.64C358.744 154.424 360.376 152.888 361.784 151.032C363.256 149.176 364.504 147.288 365.528 145.368C366.552 143.448 367.352 141.816 367.928 140.472C368.696 140.472 369.08 140.76 369.08 141.336C368.248 143.128 367.288 145.08 366.2 147.192C365.176 149.304 363.928 151.288 362.456 153.144C361.048 154.936 359.32 156.44 357.272 157.656C355.288 158.808 352.952 159.384 350.264 159.384ZM348.536 142.488C349.432 142.488 350.936 142.168 353.048 141.528C355.16 140.824 357.08 139.736 358.808 138.264C360.472 136.792 361.752 135.192 362.648 133.464C363.544 131.672 363.992 130.168 363.992 128.952C363.992 127.544 363.48 126.84 362.456 126.84C361.688 126.84 360.632 127.352 359.288 128.376C357.944 129.4 356.28 131.128 354.296 133.56C353.08 135.096 351.928 136.76 350.84 138.552C349.752 140.344 348.984 141.656 348.536 142.488ZM387.498 115.704C389.162 115.704 391.274 115.928 393.834 116.376C396.458 116.824 398.826 117.048 400.938 117.048C402.282 117.048 403.786 116.984 405.45 116.856C407.178 116.664 408.81 116.248 410.346 115.608C411.946 114.904 413.162 113.784 413.994 112.248C414.634 112.248 414.954 112.472 414.954 112.92C413.738 115.8 412.074 117.912 409.962 119.256C407.85 120.6 404.554 121.272 400.074 121.272C398.474 121.272 396.778 121.048 394.986 120.6C393.258 120.152 391.498 119.704 389.706 119.256C387.978 118.808 386.346 118.584 384.81 118.584C383.53 118.584 382.346 118.808 381.258 119.256C380.17 119.64 379.274 120.44 378.57 121.656L378.282 122.136C378.09 122.392 377.93 122.52 377.802 122.52C377.674 122.52 377.546 122.424 377.418 122.232C377.29 122.04 377.258 121.816 377.322 121.56C378.026 119.768 379.306 118.36 381.162 117.336C383.018 116.248 385.13 115.704 387.498 115.704ZM358.602 159.48C360.97 154.936 363.21 150.392 365.322 145.848C367.434 141.24 369.578 136.888 371.754 132.792C373.034 130.488 374.09 128.888 374.922 127.992C375.818 127.032 377.002 126.552 378.474 126.552C378.986 126.552 379.53 126.648 380.106 126.84C380.682 126.968 381.258 127.032 381.834 127.032C382.218 127.032 382.506 127 382.698 126.936C381.802 127.448 380.65 128.728 379.242 130.776C377.834 132.76 376.394 135.064 374.922 137.688C373.45 140.312 372.138 142.776 370.986 145.08C372.202 143.608 373.45 142.136 374.73 140.664C376.074 139.192 377.546 137.784 379.146 136.44C380.554 135.224 382.026 133.912 383.562 132.504C385.162 131.032 386.73 129.784 388.266 128.76C389.802 127.736 391.146 127.224 392.298 127.224C392.746 127.224 393.034 127.256 393.162 127.32C394.378 127.832 394.986 128.664 394.986 129.816C394.986 130.2 394.826 130.776 394.506 131.544C393.674 133.72 392.586 135.96 391.242 138.264C389.962 140.504 388.746 142.776 387.594 145.08C388.554 143.928 389.738 142.52 391.146 140.856C392.618 139.192 394.09 137.72 395.562 136.44C396.97 135.16 398.762 133.816 400.938 132.408C403.114 131 405.258 129.784 407.37 128.76C409.482 127.736 411.178 127.224 412.458 127.224C412.906 127.224 413.226 127.256 413.418 127.32C413.418 127.32 413.066 127.96 412.362 129.24C411.658 130.456 410.762 132.088 409.674 134.136C408.65 136.12 407.594 138.264 406.506 140.568C405.418 142.808 404.426 144.984 403.53 147.096C402.698 149.144 402.154 150.872 401.898 152.28C401.706 153.112 401.61 153.88 401.61 154.584C401.61 155.608 401.802 156.28 402.186 156.6C402.57 156.92 402.986 157.08 403.434 157.08C405.034 157.08 406.634 156.216 408.234 154.488C409.898 152.696 411.434 150.616 412.842 148.248C413.61 148.248 413.994 148.632 413.994 149.4C412.522 151.96 410.762 154.264 408.714 156.312C406.73 158.36 404.522 159.384 402.09 159.384C400.746 159.384 399.466 158.936 398.25 158.04C397.098 157.144 396.522 155.48 396.522 153.048C396.522 150.424 397.13 147.8 398.346 145.176C399.626 142.552 400.938 140.152 402.282 137.976C402.922 136.888 403.242 136.024 403.242 135.384C403.242 134.616 402.858 134.232 402.09 134.232C401.45 134.232 400.554 134.552 399.402 135.192C398.314 135.832 396.938 136.952 395.274 138.552C394.25 139.512 393.034 140.856 391.626 142.584C390.282 144.248 388.906 146.072 387.498 148.056C386.09 150.04 384.874 151.992 383.85 153.912C382.826 155.832 382.154 157.528 381.834 159C380.874 159 380.106 158.616 379.53 157.848C378.954 157.016 378.666 156.056 378.666 154.968C378.666 154.776 378.666 154.584 378.666 154.392C378.666 154.2 378.698 153.976 378.762 153.72C379.082 151.736 379.594 150.072 380.298 148.728C381.002 147.32 381.802 145.688 382.698 143.832C383.146 143 383.658 142.04 384.234 140.952C384.81 139.8 385.322 138.712 385.77 137.688C386.218 136.6 386.442 135.704 386.442 135C386.442 134.36 386.186 134.04 385.674 134.04C385.098 134.04 384.33 134.328 383.37 134.904C382.474 135.48 381.61 136.152 380.778 136.92C379.946 137.624 379.306 138.168 378.858 138.552C377.258 140.088 375.306 142.296 373.002 145.176C370.762 148.056 368.298 152.152 365.61 157.464C365.226 158.168 364.778 158.616 364.266 158.808C363.754 158.936 362.954 159 361.866 159C361.162 159 360.586 159 360.138 159C359.626 159.064 359.114 159.224 358.602 159.48ZM417.142 157.56C418.23 157.56 419.574 156.952 421.174 155.736C422.838 154.456 424.566 152.856 426.358 150.936C428.15 148.952 429.814 146.872 431.35 144.696C430.582 144.888 429.782 144.984 428.95 144.984C426.646 144.984 424.95 144.376 423.862 143.16C422.838 141.944 422.326 140.44 422.326 138.648C422.326 136.728 422.87 134.744 423.958 132.696C425.046 130.584 426.55 128.824 428.47 127.416C430.454 126.008 432.662 125.304 435.094 125.304C438.294 125.304 440.214 126.68 440.854 129.432C441.046 128.92 441.27 128.44 441.526 127.992C441.91 127.224 442.422 126.712 443.062 126.456C443.702 126.136 444.47 125.976 445.366 125.976H450.55C449.974 126.424 448.886 127.48 447.286 129.144C445.75 130.744 443.958 133.624 441.91 137.784C441.206 139.192 440.438 140.856 439.606 142.776C438.774 144.696 438.07 146.648 437.494 148.632C436.918 150.616 436.63 152.376 436.63 153.912C436.63 156.024 437.366 157.08 438.838 157.08C440.054 157.08 441.27 156.536 442.486 155.448C443.766 154.296 444.982 152.856 446.134 151.128C447.35 149.4 448.47 147.608 449.494 145.752C450.518 143.832 451.35 142.072 451.99 140.472C452.758 140.472 453.142 140.76 453.142 141.336C452.438 143 451.542 144.888 450.454 147C449.43 149.112 448.214 151.16 446.806 153.144C445.398 155.064 443.83 156.664 442.102 157.944C440.438 159.16 438.582 159.768 436.534 159.768C434.742 159.768 433.462 159.256 432.694 158.232C431.99 157.208 431.638 155.864 431.638 154.2C431.638 152.6 431.894 150.872 432.406 149.016C432.918 147.16 433.526 145.336 434.23 143.544V143.64C432.31 146.264 430.326 148.792 428.278 151.224C426.23 153.656 424.15 155.672 422.038 157.272C419.926 158.872 417.91 159.672 415.99 159.672C414.134 159.672 412.694 159.128 411.67 158.04C410.646 156.952 410.134 155.576 410.134 153.912C410.134 152.632 410.454 151.416 411.094 150.264C411.734 149.112 412.534 148.152 413.494 147.384C414.454 146.616 415.446 146.232 416.47 146.232C416.918 146.232 417.334 146.296 417.718 146.424C418.166 146.552 418.582 146.776 418.966 147.096C417.75 148.12 416.822 149.368 416.182 150.84C415.542 152.312 415.222 153.592 415.222 154.68C415.222 155.448 415.35 156.12 415.606 156.696C415.926 157.272 416.438 157.56 417.142 157.56ZM429.91 143.544C431.51 143.544 432.918 142.904 434.134 141.624C435.35 140.28 436.31 138.648 437.014 136.728C437.782 134.744 438.166 132.856 438.166 131.064C438.166 128.312 437.334 126.936 435.67 126.936C434.646 126.936 433.622 127.384 432.598 128.28C431.574 129.112 430.614 130.232 429.718 131.64C428.822 132.984 428.086 134.392 427.51 135.864C426.998 137.336 426.742 138.68 426.742 139.896C426.742 140.92 426.966 141.784 427.414 142.488C427.926 143.192 428.758 143.544 429.91 143.544ZM451.334 157.56C451.27 158.2 450.886 158.648 450.182 158.904C449.542 159.096 448.902 159.192 448.262 159.192C447.238 159.192 446.469 159.352 445.957 159.672C445.957 158.392 446.309 156.6 447.014 154.296C447.718 151.928 448.55 149.4 449.51 146.712C450.534 143.96 451.558 141.4 452.582 139.032C453.67 136.6 454.566 134.712 455.27 133.368C456.806 130.552 458.086 128.76 459.109 127.992C460.198 127.224 461.446 126.84 462.854 126.84C464.134 126.84 465.03 126.904 465.542 127.032C466.118 127.096 466.534 127.128 466.79 127.128C465.382 127.896 463.718 129.688 461.798 132.504C459.942 135.32 458.182 138.456 456.518 141.912C457.03 141.4 457.606 140.984 458.246 140.664C458.95 140.344 459.75 140.184 460.646 140.184C461.862 140.184 462.918 140.408 463.814 140.856C464.71 141.24 465.958 141.432 467.558 141.432C468.774 141.432 469.574 141.048 469.958 140.28C470.982 137.976 472.038 135.736 473.126 133.56C474.214 131.32 475.11 129.464 475.814 127.992C476.198 127.16 476.71 126.616 477.35 126.36C478.054 126.104 478.822 125.976 479.654 125.976H484.838C483.75 126.872 482.822 127.704 482.054 128.472C481.35 129.176 480.646 130.04 479.942 131.064C479.302 132.088 478.47 133.56 477.446 135.48C476.614 137.08 475.622 139.16 474.47 141.72C473.318 144.28 472.454 146.552 471.878 148.536C471.622 149.24 471.398 150.072 471.206 151.032C471.078 151.992 471.014 152.888 471.014 153.72C471.014 154.744 471.174 155.608 471.494 156.312C471.814 157.016 472.358 157.368 473.126 157.368C474.342 157.368 475.59 156.856 476.87 155.832C478.15 154.744 479.398 153.368 480.614 151.704C481.83 149.976 482.95 148.12 483.974 146.136C485.062 144.152 485.99 142.264 486.758 140.472C487.27 140.472 487.59 140.536 487.718 140.664C487.846 140.792 487.91 141.016 487.91 141.336C487.142 143.256 486.182 145.304 485.03 147.48C483.942 149.592 482.662 151.576 481.19 153.432C479.782 155.288 478.214 156.824 476.486 158.04C474.822 159.192 473.03 159.768 471.109 159.768C469.19 159.768 467.814 159.192 466.982 158.04C466.214 156.888 465.83 155.448 465.83 153.72C465.83 152.824 465.926 151.864 466.118 150.84C466.374 149.816 466.662 148.792 466.982 147.768C467.238 147 467.526 146.2 467.846 145.368C468.166 144.472 468.518 143.608 468.902 142.776C468.518 143.288 468.038 143.704 467.462 144.024C466.886 144.28 466.15 144.408 465.254 144.408C464.358 144.408 463.622 144.28 463.046 144.024C462.47 143.768 461.862 143.512 461.222 143.256C460.582 143 459.75 142.872 458.726 142.872C458.086 142.872 457.414 143 456.71 143.256C456.07 143.512 455.558 144.088 455.174 144.984C454.214 147.224 453.382 149.432 452.678 151.608C452.038 153.784 451.59 155.768 451.334 157.56ZM489.573 159C488.869 159 488.005 158.84 486.981 158.52C486.021 158.2 485.157 157.624 484.389 156.792C483.685 155.896 483.333 154.584 483.333 152.856C483.333 151.192 483.877 149.272 484.965 147.096C486.053 144.92 487.013 143 487.845 141.336C487.141 141.336 486.789 141.048 486.789 140.472C486.853 140.28 487.141 139.672 487.653 138.648C488.165 137.624 488.773 136.408 489.477 135C490.181 133.592 490.853 132.248 491.493 130.968C492.197 129.624 492.741 128.6 493.125 127.896C493.893 126.488 495.109 125.784 496.773 125.784H502.725C501.637 126.616 500.645 127.544 499.749 128.568C498.917 129.528 497.861 131.32 496.581 133.944C496.581 133.944 496.357 134.392 495.909 135.288C495.461 136.184 494.885 137.336 494.181 138.744C493.541 140.088 492.869 141.464 492.165 142.872C491.525 144.28 490.981 145.464 490.533 146.424C489.701 148.216 489.157 149.656 488.901 150.744C488.645 151.768 488.517 152.728 488.517 153.624C488.517 155.736 489.221 156.792 490.629 156.792C492.165 156.792 494.021 155.544 496.197 153.048C497.989 150.936 499.749 148.408 501.477 145.464C503.205 142.52 504.837 139.48 506.373 136.344C507.973 133.208 509.381 130.392 510.597 127.896C511.301 126.488 512.549 125.784 514.341 125.784H519.621C518.213 126.936 516.773 128.664 515.301 130.968C513.893 133.272 512.325 136.216 510.597 139.8C510.149 140.76 509.573 141.976 508.869 143.448C508.165 144.92 507.525 146.488 506.949 148.152C506.437 149.816 506.181 151.48 506.181 153.144C506.181 155.384 506.981 156.504 508.581 156.504C510.757 156.504 512.869 155 514.917 151.992C516.965 148.984 518.981 145.144 520.965 140.472C521.477 140.472 521.765 140.504 521.829 140.568C521.957 140.632 522.053 140.888 522.117 141.336C521.413 143.064 520.549 144.952 519.525 147C518.565 148.984 517.445 150.904 516.165 152.76C514.949 154.616 513.573 156.12 512.037 157.272C510.565 158.424 508.933 159 507.141 159C505.541 159 504.229 158.424 503.205 157.272C502.181 156.056 501.669 154.36 501.669 152.184C501.669 150.456 501.989 148.6 502.629 146.616C501.541 148.536 500.293 150.456 498.885 152.376C497.477 154.296 495.973 155.896 494.373 157.176C492.773 158.392 491.173 159 489.573 159ZM643.302 164.28C639.078 164.28 635.494 163.384 632.55 161.592C629.67 159.8 627.334 157.464 625.542 154.584C623.814 151.64 622.566 148.504 621.798 145.176C621.03 141.784 620.646 138.52 620.646 135.384C620.646 133.336 620.87 132.184 621.318 131.928C622.534 132.056 624.55 131.544 627.366 130.392C630.246 129.24 633.638 127.544 637.542 125.304C641.51 123.064 645.766 120.376 650.31 117.24C654.918 114.04 659.526 110.456 664.134 106.488C668.806 102.52 673.286 98.232 677.574 93.624C681.862 89.016 685.638 84.184 688.902 79.128C689.35 78.424 689.702 77.912 689.958 77.592C690.214 77.272 690.47 77.112 690.726 77.112C691.046 77.112 691.334 77.272 691.59 77.592C691.846 77.848 691.974 78.136 691.974 78.456C691.974 78.968 691.75 79.576 691.302 80.28C688.23 85.4 684.582 90.424 680.358 95.352C676.198 100.216 671.75 104.792 667.014 109.08C662.278 113.368 657.51 117.24 652.71 120.696C647.91 124.152 643.334 127.032 638.982 129.336C634.63 131.64 630.79 133.208 627.462 134.04C627.27 133.912 627.174 134.232 627.174 135C627.174 136.6 627.366 138.488 627.75 140.664C628.198 142.84 628.87 145.048 629.766 147.288C630.726 149.528 631.91 151.64 633.318 153.624C634.79 155.544 636.518 157.112 638.502 158.328C640.55 159.544 642.918 160.152 645.606 160.152C647.846 160.152 650.246 159.608 652.806 158.52C655.366 157.368 657.894 155.352 660.39 152.472C662.886 149.592 665.19 145.592 667.302 140.472C667.558 139.832 667.814 139.512 668.07 139.512C668.518 139.512 668.742 139.768 668.742 140.28C668.742 140.472 668.71 140.696 668.646 140.952C668.582 141.144 668.39 141.592 668.07 142.296C665.19 149.592 661.574 155.096 657.222 158.808C652.934 162.456 648.294 164.28 643.302 164.28ZM568.326 175.512C563.974 175.512 559.75 174.904 555.654 173.688C551.622 172.536 547.974 170.808 544.71 168.504C541.51 166.2 538.95 163.384 537.03 160.056C535.174 156.728 534.246 152.952 534.246 148.728C534.246 145.656 534.694 142.936 535.59 140.568C536.55 138.136 537.702 136.12 539.046 134.52C540.454 132.92 541.83 131.704 543.174 130.872C544.582 130.04 545.734 129.624 546.63 129.624C547.27 129.624 547.59 129.816 547.59 130.2C547.59 130.52 547.43 130.776 547.11 130.968C545.638 131.736 544.134 132.856 542.598 134.328C541.062 135.8 539.782 137.72 538.758 140.088C537.734 142.456 537.222 145.4 537.222 148.92C537.222 152.76 538.022 156.056 539.622 158.808C541.286 161.496 543.43 163.704 546.054 165.432C548.742 167.16 551.622 168.408 554.694 169.176C557.766 170.008 560.71 170.424 563.526 170.424C569.798 170.424 575.654 169.208 581.094 166.776C586.534 164.344 591.494 161.112 595.974 157.08C600.518 152.984 604.518 148.44 607.974 143.448C611.43 138.456 614.278 133.4 616.518 128.28C617.35 126.424 618.342 124.216 619.494 121.656C620.646 119.032 621.894 116.248 623.238 113.304C624.582 110.36 625.894 107.48 627.174 104.664C628.454 101.848 629.606 99.32 630.63 97.08C631.718 94.776 632.582 93.016 633.222 91.8C628.934 92.312 624.294 92.792 619.302 93.24C614.374 93.624 609.67 94.456 605.19 95.736C600.198 97.144 596.102 99.192 592.902 101.88C589.766 104.568 587.43 107.48 585.894 110.616C584.422 113.752 583.686 116.696 583.686 119.448C583.686 122.776 584.518 125.528 586.182 127.704C587.846 129.816 590.246 130.872 593.382 130.872C595.75 130.872 597.862 130.2 599.718 128.856C601.574 127.448 603.046 125.656 604.134 123.48C605.222 121.24 605.766 118.872 605.766 116.376C605.766 115.352 605.67 114.488 605.478 113.784C605.286 113.08 605.19 112.536 605.19 112.152C605.19 111.704 605.35 111.48 605.67 111.48C606.118 111.48 606.534 111.864 606.918 112.632C607.558 114.104 607.878 115.544 607.878 116.952C607.878 119.96 607.142 122.68 605.67 125.112C604.198 127.48 602.31 129.368 600.006 130.776C597.702 132.184 595.27 132.888 592.71 132.888C589.702 132.888 587.078 132.184 584.838 130.776C582.662 129.304 580.966 127.384 579.75 125.016C578.534 122.648 577.926 120.088 577.926 117.336C577.926 114.2 578.79 111.032 580.518 107.832C582.246 104.568 585.03 101.624 588.87 99C592.71 96.312 597.766 94.264 604.038 92.856C609.286 91.704 614.63 90.968 620.07 90.648C625.51 90.264 630.31 89.88 634.47 89.496C636.71 86.04 638.534 83.864 639.942 82.968C641.35 82.008 642.63 81.528 643.782 81.528C644.934 81.528 645.83 81.848 646.47 82.488C647.174 83.128 647.526 83.896 647.526 84.792C647.526 86.072 646.63 87.448 644.838 88.92C643.11 90.328 640.166 91.256 636.006 91.704C633.958 95.48 632.07 99.704 630.342 104.376C628.614 108.984 626.886 113.816 625.158 118.872C623.43 123.928 621.542 128.952 619.494 133.944C616.038 142.264 611.942 149.56 607.206 155.832C602.47 162.04 596.902 166.872 590.502 170.328C584.102 173.784 576.71 175.512 568.326 175.512ZM637.83 89.304C639.43 89.176 640.966 88.728 642.438 87.96C643.91 87.128 644.646 86.232 644.646 85.272C644.646 84.632 644.326 84.312 643.686 84.312C643.11 84.312 642.31 84.696 641.286 85.464C640.262 86.168 639.11 87.448 637.83 89.304ZM673.018 159C670.394 159 668.442 158.072 667.162 156.216C665.946 154.296 665.338 151.992 665.338 149.304C665.338 146.808 665.818 144.216 666.778 141.528C667.802 138.584 669.21 135.896 671.002 133.464C672.858 131.032 674.874 129.08 677.05 127.608C679.29 126.072 681.498 125.304 683.674 125.304C686.298 125.304 688.218 126.2 689.434 127.992C690.714 129.784 691.354 132.056 691.354 134.808C691.354 136.728 691.034 138.744 690.394 140.856C689.754 142.968 688.89 145.048 687.802 147.096C688.634 147.928 689.818 148.344 691.354 148.344C693.146 148.344 694.682 147.768 695.962 146.616C697.242 145.464 698.49 143.416 699.706 140.472C700.474 140.472 700.858 140.76 700.858 141.336C699.642 144.28 698.234 146.456 696.634 147.864C695.098 149.208 693.114 149.848 690.682 149.784C689.21 149.784 687.994 149.368 687.034 148.536C685.242 151.48 683.098 153.976 680.602 156.024C678.17 158.008 675.642 159 673.018 159ZM674.362 156.888C675.834 156.888 677.306 156.28 678.778 155.064C680.25 153.784 681.594 152.344 682.81 150.744C684.026 149.144 684.89 147.768 685.402 146.616C684.378 144.76 683.77 143.384 683.578 142.488C683.45 141.528 683.386 140.824 683.386 140.376C683.386 139.16 683.706 138.232 684.346 137.592C684.986 136.952 685.626 136.632 686.266 136.632C687.162 136.632 687.93 137.016 688.57 137.784C688.698 137.08 688.794 136.44 688.858 135.864C688.922 135.224 688.954 134.616 688.954 134.04C688.954 132.376 688.634 131.032 687.994 130.008C687.418 128.92 686.49 128.376 685.21 128.376C683.866 128.376 682.458 128.952 680.986 130.104C679.514 131.256 678.106 132.792 676.762 134.712C675.482 136.632 674.362 138.776 673.402 141.144C672.57 143.128 671.93 145.016 671.482 146.808C671.034 148.536 670.81 150.136 670.81 151.608C670.81 153.208 671.098 154.488 671.674 155.448C672.25 156.408 673.146 156.888 674.362 156.888ZM684.623 185.208C683.855 185.208 683.215 185.112 682.703 184.92C682.127 184.792 681.391 184.728 680.495 184.728C680.751 184.344 681.391 183.224 682.415 181.368C683.375 179.576 684.559 177.304 685.967 174.552C687.375 171.864 688.879 168.92 690.479 165.72C692.015 162.584 693.519 159.48 694.991 156.408C696.463 153.272 697.711 150.392 698.735 147.768C699.823 145.08 700.527 142.936 700.847 141.336C700.527 141.336 700.239 141.272 699.983 141.144C699.727 141.016 699.631 140.792 699.695 140.472C699.695 140.472 699.887 139.896 700.271 138.744C700.655 137.592 701.039 136.216 701.423 134.616C701.807 132.952 701.999 131.448 701.999 130.104C701.999 129.208 701.903 128.44 701.711 127.8C701.519 127.16 701.167 126.808 700.655 126.744L705.455 125.976C705.839 125.912 706.191 125.88 706.511 125.88C706.831 125.816 707.119 125.784 707.375 125.784C707.951 125.784 708.335 126.008 708.527 126.456C708.783 126.84 708.911 127.672 708.911 128.952C708.911 130.552 708.623 132.6 708.047 135.096C707.535 137.528 706.927 139.672 706.223 141.528C706.927 140.376 707.823 138.904 708.911 137.112C710.063 135.32 711.375 133.496 712.847 131.64C714.319 129.784 715.855 128.248 717.455 127.032C719.055 125.752 720.623 125.112 722.159 125.112C722.479 125.112 722.895 125.176 723.407 125.304C725.199 125.752 726.447 126.648 727.151 127.992C727.919 129.272 728.303 130.808 728.303 132.6C728.303 134.52 727.919 136.632 727.151 138.936C726.447 141.24 725.487 143.512 724.271 145.752C723.055 147.928 721.711 149.912 720.239 151.704C718.447 153.944 716.303 155.736 713.807 157.08C711.311 158.424 708.751 159.096 706.127 159.096C703.759 159.096 701.551 158.488 699.503 157.272L690.191 180.216C689.295 182.392 688.399 183.768 687.503 184.344C686.607 184.92 685.647 185.208 684.623 185.208ZM703.055 157.08C704.847 157.08 706.863 156.248 709.103 154.584C711.343 152.92 713.487 150.808 715.535 148.248C717.647 145.624 719.407 143 720.815 140.376C721.775 138.584 722.479 136.952 722.927 135.48C723.375 133.944 723.599 132.632 723.599 131.544C723.599 129.048 722.703 127.8 720.911 127.8C720.079 127.8 718.991 128.248 717.647 129.144C716.367 130.04 714.863 131.672 713.135 134.04C711.279 136.6 709.231 139.832 706.991 143.736C704.815 147.576 702.575 151.64 700.271 155.928C701.039 156.696 701.967 157.08 703.055 157.08ZM738.857 159.384C736.489 159.384 734.345 158.616 732.425 157.08C730.569 155.544 729.641 153.208 729.641 150.072C729.641 147.448 730.217 144.664 731.369 141.72C732.585 138.776 734.153 136.024 736.073 133.464C738.057 130.84 740.233 128.728 742.601 127.128C745.033 125.464 747.465 124.632 749.897 124.632C751.113 124.632 752.297 124.984 753.449 125.688C754.601 126.392 755.177 127.608 755.177 129.336C755.177 130.936 754.569 132.696 753.353 134.616C752.137 136.536 750.409 138.328 748.169 139.992C747.209 140.696 745.993 141.368 744.521 142.008C743.049 142.648 741.577 143.192 740.105 143.64C738.633 144.024 737.417 144.216 736.457 144.216C736.137 144.984 735.817 146.008 735.497 147.288C735.241 148.568 735.113 149.88 735.113 151.224C735.113 152.824 735.433 154.264 736.073 155.544C736.713 156.824 737.897 157.464 739.625 157.464C741.737 157.464 743.689 156.856 745.481 155.64C747.337 154.424 748.969 152.888 750.377 151.032C751.849 149.176 753.097 147.288 754.121 145.368C755.145 143.448 755.945 141.816 756.521 140.472C757.289 140.472 757.673 140.76 757.673 141.336C756.841 143.128 755.881 145.08 754.793 147.192C753.769 149.304 752.521 151.288 751.049 153.144C749.641 154.936 747.913 156.44 745.865 157.656C743.881 158.808 741.545 159.384 738.857 159.384ZM737.129 142.488C738.025 142.488 739.529 142.168 741.641 141.528C743.753 140.824 745.673 139.736 747.401 138.264C749.065 136.792 750.345 135.192 751.241 133.464C752.137 131.672 752.585 130.168 752.585 128.952C752.585 127.544 752.073 126.84 751.049 126.84C750.281 126.84 749.225 127.352 747.881 128.376C746.537 129.4 744.873 131.128 742.889 133.56C741.673 135.096 740.521 136.76 739.433 138.552C738.345 140.344 737.577 141.656 737.129 142.488ZM755.74 157.56C755.676 158.2 755.292 158.648 754.588 158.904C753.948 159.096 753.308 159.192 752.668 159.192C751.644 159.192 750.876 159.352 750.364 159.672C750.364 158.392 750.716 156.6 751.42 154.296C752.124 151.928 752.956 149.4 753.916 146.712C754.94 143.96 755.964 141.4 756.988 139.032C758.076 136.6 758.972 134.712 759.676 133.368C761.212 130.552 762.492 128.76 763.516 127.992C764.604 127.224 765.852 126.84 767.26 126.84C768.54 126.84 769.436 126.904 769.948 127.032C770.524 127.096 770.94 127.128 771.196 127.128C769.788 127.896 768.124 129.688 766.204 132.504C764.348 135.32 762.588 138.456 760.924 141.912C761.436 141.4 762.012 140.984 762.652 140.664C763.356 140.344 764.156 140.184 765.052 140.184C766.268 140.184 767.324 140.408 768.22 140.856C769.116 141.24 770.364 141.432 771.964 141.432C773.18 141.432 773.98 141.048 774.364 140.28C775.388 137.976 776.444 135.736 777.532 133.56C778.62 131.32 779.516 129.464 780.22 127.992C780.604 127.16 781.116 126.616 781.756 126.36C782.46 126.104 783.228 125.976 784.06 125.976H789.244C788.156 126.872 787.228 127.704 786.46 128.472C785.756 129.176 785.052 130.04 784.348 131.064C783.708 132.088 782.876 133.56 781.852 135.48C781.02 137.08 780.028 139.16 778.876 141.72C777.724 144.28 776.86 146.552 776.284 148.536C776.028 149.24 775.804 150.072 775.612 151.032C775.484 151.992 775.42 152.888 775.42 153.72C775.42 154.744 775.58 155.608 775.9 156.312C776.22 157.016 776.764 157.368 777.532 157.368C778.748 157.368 779.996 156.856 781.276 155.832C782.556 154.744 783.804 153.368 785.02 151.704C786.236 149.976 787.356 148.12 788.38 146.136C789.468 144.152 790.396 142.264 791.164 140.472C791.676 140.472 791.996 140.536 792.124 140.664C792.252 140.792 792.316 141.016 792.316 141.336C791.548 143.256 790.588 145.304 789.436 147.48C788.348 149.592 787.068 151.576 785.596 153.432C784.188 155.288 782.62 156.824 780.892 158.04C779.228 159.192 777.436 159.768 775.516 159.768C773.596 159.768 772.22 159.192 771.388 158.04C770.62 156.888 770.236 155.448 770.236 153.72C770.236 152.824 770.332 151.864 770.524 150.84C770.78 149.816 771.068 148.792 771.388 147.768C771.644 147 771.932 146.2 772.252 145.368C772.572 144.472 772.924 143.608 773.308 142.776C772.924 143.288 772.444 143.704 771.868 144.024C771.292 144.28 770.556 144.408 769.66 144.408C768.764 144.408 768.028 144.28 767.452 144.024C766.876 143.768 766.268 143.512 765.628 143.256C764.988 143 764.156 142.872 763.132 142.872C762.492 142.872 761.82 143 761.116 143.256C760.476 143.512 759.964 144.088 759.58 144.984C758.62 147.224 757.788 149.432 757.084 151.608C756.444 153.784 755.996 155.768 755.74 157.56ZM811.451 147C810.811 148.344 810.075 149.624 809.243 150.84C809.499 150.904 809.787 150.936 810.107 150.936C811.643 150.936 813.339 150.168 815.195 148.632C817.051 147.032 818.747 144.312 820.283 140.472C821.051 140.472 821.435 140.76 821.435 141.336C819.515 145.688 817.627 148.664 815.771 150.264C813.915 151.8 811.867 152.568 809.627 152.568C809.051 152.568 808.539 152.536 808.091 152.472C806.363 154.52 804.379 156.248 802.139 157.656C799.899 159 797.435 159.672 794.747 159.672C792.123 159.672 790.235 158.936 789.083 157.464C787.995 155.992 787.451 154.168 787.451 151.992C787.451 150.712 787.611 149.464 787.931 148.248C788.251 147.032 788.635 145.816 789.083 144.6C789.723 143.064 790.619 141.208 791.771 139.032C792.923 136.856 794.203 134.712 795.611 132.6C797.019 130.488 798.427 128.728 799.835 127.32C801.243 125.912 802.491 125.208 803.579 125.208C804.091 125.208 804.635 125.304 805.211 125.496C805.787 125.624 806.395 125.688 807.035 125.688C807.291 125.688 807.515 125.656 807.707 125.592C807.323 125.784 806.715 126.392 805.883 127.416C805.051 128.376 804.091 129.56 803.003 130.968C801.979 132.376 800.923 133.816 799.835 135.288C798.747 136.76 797.787 138.072 796.955 139.224C798.043 138.072 799.483 136.92 801.275 135.768C803.067 134.552 804.955 133.944 806.939 133.944C809.115 133.944 810.715 134.552 811.739 135.768C812.763 136.984 813.275 138.424 813.275 140.088C813.275 141.24 813.083 142.456 812.699 143.736C812.379 144.952 811.963 146.04 811.451 147ZM802.331 146.808C802.331 145.912 802.619 145.208 803.195 144.696C803.771 144.184 804.411 143.928 805.115 143.928C805.819 143.928 806.331 144.12 806.651 144.504C807.035 144.888 807.227 145.336 807.227 145.848C807.227 146.04 807.227 146.2 807.227 146.328C807.611 145.24 807.867 144.248 807.995 143.352C808.123 142.456 808.187 141.72 808.187 141.144C808.187 139.864 807.931 138.808 807.419 137.976C806.907 137.08 806.011 136.632 804.731 136.632C803.131 136.632 801.371 137.528 799.451 139.32C797.531 141.112 795.803 143.416 794.267 146.232C793.307 148.024 792.603 149.592 792.155 150.936C791.771 152.28 791.579 153.56 791.579 154.776C791.579 155.8 791.835 156.632 792.347 157.272C792.859 157.912 793.787 158.232 795.131 158.232C796.347 158.232 797.851 157.592 799.643 156.312C801.499 155.032 803.195 153.272 804.731 151.032C803.131 149.88 802.331 148.472 802.331 146.808ZM824.194 142.2L823.618 143.544C826.498 139.64 829.538 136.312 832.738 133.56C836.002 130.744 839.074 128.6 841.954 127.128C844.834 125.592 847.106 124.824 848.77 124.824C850.946 124.824 852.29 125.4 852.802 126.552C852.994 127 853.09 127.48 853.09 127.992C853.09 128.952 852.77 129.848 852.13 130.68C851.49 131.448 850.594 131.832 849.442 131.832C849.378 131.832 849.25 131.832 849.058 131.832C848.866 131.832 848.706 131.8 848.578 131.736C848.45 130.84 848.13 130.072 847.618 129.432C847.106 128.792 846.114 128.472 844.642 128.472C842.978 128.472 841.346 129.176 839.746 130.584C838.21 131.928 836.898 133.784 835.81 136.152C834.786 138.456 834.21 141.048 834.082 143.928C834.018 145.912 834.146 147.928 834.466 149.976C834.85 151.96 835.522 153.624 836.482 154.968C837.442 156.248 838.786 156.888 840.514 156.888C842.05 156.888 843.458 156.312 844.738 155.16C846.018 154.008 847.202 152.568 848.29 150.84C849.378 149.048 850.338 147.224 851.17 145.368C852.002 143.512 852.738 141.88 853.378 140.472C854.146 140.472 854.53 140.76 854.53 141.336C853.314 144.28 852.002 147.16 850.594 149.976C849.25 152.792 847.618 155.128 845.698 156.984C843.778 158.776 841.442 159.672 838.69 159.672C835.554 159.672 833.186 158.68 831.586 156.696C829.986 154.648 829.058 151.992 828.802 148.728C828.546 145.464 828.898 141.944 829.858 138.168C827.682 140.664 825.922 142.872 824.578 144.792C823.298 146.648 822.146 148.536 821.122 150.456C820.162 152.376 819.106 154.648 817.954 157.272C817.634 158.04 817.218 158.456 816.706 158.52C816.258 158.584 815.522 158.616 814.498 158.616H812.674C812.482 158.616 812.258 158.712 812.002 158.904C811.746 159.032 811.49 159.16 811.234 159.288C812.002 157.752 812.802 156.152 813.634 154.488C814.402 152.824 815.33 150.872 816.418 148.632C817.506 146.392 818.786 143.672 820.258 140.472C820.386 140.28 820.77 139.384 821.41 137.784C822.114 136.12 823.074 134.008 824.29 131.448C825.57 128.76 826.818 126.776 828.034 125.496C829.25 124.216 830.626 123.576 832.162 123.576C832.738 123.576 833.186 123.64 833.506 123.768C833.826 123.896 834.466 123.96 835.426 123.96C833.122 126.456 831.17 129.208 829.57 132.216C828.034 135.224 826.242 138.552 824.194 142.2ZM859.112 159C856.488 159 854.536 158.072 853.256 156.216C852.04 154.296 851.432 151.992 851.432 149.304C851.432 146.808 851.912 144.216 852.872 141.528C853.896 138.584 855.304 135.896 857.096 133.464C858.952 131.032 860.968 129.08 863.144 127.608C865.384 126.072 867.592 125.304 869.768 125.304C872.392 125.304 874.312 126.2 875.528 127.992C876.808 129.784 877.448 132.056 877.448 134.808C877.448 136.728 877.128 138.744 876.488 140.856C875.848 142.968 874.984 145.048 873.896 147.096C874.728 147.928 875.912 148.344 877.448 148.344C879.24 148.344 880.776 147.768 882.056 146.616C883.336 145.464 884.584 143.416 885.8 140.472C886.568 140.472 886.952 140.76 886.952 141.336C885.736 144.28 884.328 146.456 882.728 147.864C881.192 149.208 879.208 149.848 876.776 149.784C875.304 149.784 874.088 149.368 873.128 148.536C871.336 151.48 869.192 153.976 866.696 156.024C864.264 158.008 861.736 159 859.112 159ZM860.456 156.888C861.928 156.888 863.4 156.28 864.872 155.064C866.344 153.784 867.688 152.344 868.904 150.744C870.12 149.144 870.984 147.768 871.496 146.616C870.472 144.76 869.864 143.384 869.672 142.488C869.544 141.528 869.48 140.824 869.48 140.376C869.48 139.16 869.8 138.232 870.44 137.592C871.08 136.952 871.72 136.632 872.359 136.632C873.256 136.632 874.024 137.016 874.664 137.784C874.792 137.08 874.888 136.44 874.952 135.864C875.016 135.224 875.048 134.616 875.048 134.04C875.048 132.376 874.728 131.032 874.088 130.008C873.512 128.92 872.584 128.376 871.304 128.376C869.96 128.376 868.552 128.952 867.08 130.104C865.608 131.256 864.2 132.792 862.856 134.712C861.576 136.632 860.456 138.776 859.496 141.144C858.664 143.128 858.024 145.016 857.576 146.808C857.128 148.536 856.904 150.136 856.904 151.608C856.904 153.208 857.192 154.488 857.768 155.448C858.344 156.408 859.24 156.888 860.456 156.888ZM911.805 135.288C911.805 137.208 911.293 139.512 910.269 142.2C909.245 144.888 907.805 147.512 905.949 150.072C904.093 152.632 901.885 154.776 899.325 156.504C896.829 158.168 894.109 159 891.165 159C888.605 159 886.813 158.232 885.789 156.696C884.765 155.16 884.253 153.24 884.253 150.936C884.253 149.656 884.413 148.344 884.733 147C885.053 145.656 885.725 143.896 886.749 141.72C886.173 141.72 885.853 141.592 885.789 141.336C885.789 141.016 885.789 140.728 885.789 140.472C886.429 138.936 887.357 136.92 888.573 134.424C889.789 131.864 891.197 129.08 892.797 126.072C894.397 123 896.093 119.928 897.885 116.856C899.677 113.784 901.469 110.904 903.261 108.216C905.053 105.464 906.749 103.192 908.349 101.4C912.509 96.472 916.573 92.632 920.541 89.88C924.509 87.064 928.317 85.656 931.965 85.656C934.141 85.656 935.805 86.2 936.957 87.288C938.173 88.312 938.781 89.688 938.781 91.416C938.781 93.784 937.693 96.664 935.517 100.056C933.341 103.384 930.077 106.84 925.725 110.424C923.101 112.6 919.613 114.968 915.261 117.528C910.909 120.024 905.789 122.104 899.901 123.768H899.709C897.533 127.736 895.581 131.576 893.853 135.288C892.189 139 890.877 142.36 889.917 145.368C888.957 148.312 888.477 150.68 888.477 152.472C888.477 153.432 888.573 154.296 888.765 155.064C888.893 155.576 889.181 156.056 889.629 156.504C890.141 156.888 890.749 157.08 891.453 157.08C892.349 157.08 893.373 156.728 894.525 156.024C895.741 155.32 897.085 154.072 898.557 152.28C899.453 151.192 900.381 149.88 901.341 148.344C902.301 146.808 903.197 145.24 904.029 143.64C904.861 141.976 905.533 140.504 906.045 139.224C907.133 136.664 907.677 134.328 907.677 132.216C907.677 130.168 907.197 128.824 906.237 128.184C905.341 127.544 903.965 127.224 902.109 127.224C900.957 127.224 900.381 126.904 900.381 126.264C900.381 126.008 900.541 125.752 900.861 125.496C901.245 125.24 901.757 125.112 902.397 125.112C904.829 125.112 907.005 126.008 908.925 127.8C910.845 129.592 911.805 132.088 911.805 135.288ZM931.965 88.824C929.789 88.824 927.389 89.752 924.765 91.608C922.205 93.4 919.549 95.832 916.797 98.904C914.045 101.976 911.325 105.464 908.637 109.368C906.013 113.208 903.517 117.176 901.149 121.272C906.077 119.736 910.557 117.784 914.589 115.416C918.621 112.984 921.885 110.744 924.381 108.696C928.157 105.56 930.973 102.552 932.829 99.672C934.685 96.728 935.613 94.328 935.613 92.472C935.613 91.384 935.293 90.52 934.653 89.88C934.077 89.176 933.181 88.824 931.965 88.824ZM921.643 159C919.019 159 917.067 158.072 915.787 156.216C914.571 154.296 913.963 151.992 913.963 149.304C913.963 146.808 914.443 144.216 915.403 141.528C916.427 138.584 917.835 135.896 919.627 133.464C921.483 131.032 923.499 129.08 925.675 127.608C927.915 126.072 930.123 125.304 932.299 125.304C934.923 125.304 936.843 126.2 938.059 127.992C939.339 129.784 939.979 132.056 939.979 134.808C939.979 136.728 939.659 138.744 939.019 140.856C938.379 142.968 937.515 145.048 936.427 147.096C937.259 147.928 938.443 148.344 939.979 148.344C941.771 148.344 943.307 147.768 944.587 146.616C945.867 145.464 947.115 143.416 948.331 140.472C949.099 140.472 949.483 140.76 949.483 141.336C948.267 144.28 946.859 146.456 945.259 147.864C943.723 149.208 941.739 149.848 939.307 149.784C937.835 149.784 936.619 149.368 935.659 148.536C933.867 151.48 931.723 153.976 929.227 156.024C926.795 158.008 924.267 159 921.643 159ZM922.987 156.888C924.459 156.888 925.931 156.28 927.403 155.064C928.875 153.784 930.219 152.344 931.435 150.744C932.651 149.144 933.515 147.768 934.027 146.616C933.003 144.76 932.395 143.384 932.203 142.488C932.075 141.528 932.011 140.824 932.011 140.376C932.011 139.16 932.331 138.232 932.971 137.592C933.611 136.952 934.251 136.632 934.891 136.632C935.787 136.632 936.555 137.016 937.195 137.784C937.323 137.08 937.419 136.44 937.483 135.864C937.547 135.224 937.579 134.616 937.579 134.04C937.579 132.376 937.259 131.032 936.619 130.008C936.043 128.92 935.115 128.376 933.835 128.376C932.491 128.376 931.083 128.952 929.611 130.104C928.139 131.256 926.731 132.792 925.387 134.712C924.107 136.632 922.987 138.776 922.027 141.144C921.195 143.128 920.555 145.016 920.107 146.808C919.659 148.536 919.435 150.136 919.435 151.608C919.435 153.208 919.723 154.488 920.299 155.448C920.875 156.408 921.771 156.888 922.987 156.888ZM963.584 119.928C962.752 119.928 962.048 119.64 961.472 119.064C960.96 118.424 960.704 117.688 960.704 116.856C960.704 115.768 961.12 114.84 961.952 114.072C962.784 113.304 963.712 112.92 964.736 112.92C965.632 112.92 966.368 113.208 966.944 113.784C967.52 114.296 967.808 114.968 967.808 115.8C967.808 116.824 967.392 117.784 966.56 118.68C965.728 119.512 964.736 119.928 963.584 119.928ZM953.408 119.928C952.576 119.928 951.872 119.64 951.296 119.064C950.784 118.424 950.528 117.688 950.528 116.856C950.528 115.768 950.944 114.84 951.776 114.072C952.608 113.304 953.536 112.92 954.56 112.92C955.456 112.92 956.192 113.208 956.768 113.784C957.344 114.296 957.632 114.968 957.632 115.8C957.632 116.824 957.216 117.784 956.384 118.68C955.552 119.512 954.56 119.928 953.408 119.928ZM951.008 159C948.64 159 946.976 158.328 946.016 156.984C945.056 155.576 944.576 153.976 944.576 152.184C944.576 151.224 944.672 150.264 944.864 149.304C945.12 148.28 945.408 147.352 945.728 146.52L952.16 130.104C952.352 129.592 952.448 129.144 952.448 128.76C952.448 128.12 952.288 127.576 951.968 127.128C951.648 126.616 951.424 126.264 951.296 126.072L956.576 125.88C957.536 125.816 958.208 125.944 958.592 126.264C959.04 126.52 959.264 126.84 959.264 127.224C959.264 127.608 959.04 128.312 958.592 129.336C957.952 130.872 957.088 132.792 956 135.096C954.912 137.4 953.824 139.768 952.736 142.2C951.712 144.632 950.816 146.904 950.048 149.016C949.344 151.128 948.992 152.76 948.992 153.912C948.992 154.744 949.184 155.448 949.568 156.024C950.016 156.6 950.752 156.888 951.776 156.888C953.12 156.888 954.432 156.376 955.712 155.352C957.056 154.264 958.304 152.888 959.456 151.224C960.608 149.56 961.664 147.768 962.624 145.848C963.648 143.928 964.512 142.136 965.216 140.472C965.984 140.472 966.368 140.76 966.368 141.336C965.728 142.936 964.896 144.76 963.872 146.808C962.848 148.856 961.664 150.808 960.32 152.664C959.04 154.456 957.6 155.96 956 157.176C954.464 158.392 952.8 159 951.008 159Z" fill="black"/>
</svg>
